<svg xmlns="http://www.w3.org/2000/svg" version="1.0" viewBox="0 0 1133.858 1133.858"><polygon fill="#FF7C2B" points="641.778 796.792 933.05 796.792 902.024 974.644 670.288 974.644"/><path fill="#45C64B" d="M1075.386,612.418c-27.861,53.672-59.328,92.227-91.117,119.858 c-101.98,88.572-207.336,64.519-207.336,64.519s28.723-143.557,170.414-180.461C982.604,607.133,1024.842,604.545,1075.386,612.418 z"/><path fill="#003800" d="M984.269,732.276c-101.98,88.572-207.336,64.519-207.336,64.519s28.723-143.557,170.414-180.461 c-41.336,93.927,20.889,45.594,29.691,59.544C986.202,690.399,993.411,699.17,984.269,732.276z"/><path fill="#003800" d="M778.008,797.901l-2.14-2.219c0.137-0.132,13.959-13.429,36.604-32.651 c55.332-46.972,163.021-129.191,262.562-152.115l0.692,3.004c-98.906,22.776-206.142,104.671-261.258,151.462 C791.902,784.533,778.144,797.771,778.008,797.901z"/><rect width="91.686" height="3.083" x="848.058" y="748.29" fill="#003800" transform="matrix(0.9361 0.3517 -0.3517 0.9361 320.8132 -266.474)"/><rect width="99.205" height="3.081" x="859.927" y="737.745" fill="#003800" transform="matrix(0.9594 0.2822 -0.2822 0.9594 245.5978 -226.6244)"/><rect width="3.081" height="77.986" x="917.989" y="618.095" fill="#003800" transform="matrix(0.9379 0.3468 -0.3468 0.9379 284.9224 -278.0982)"/><path fill="#003800" d="M949.931,667.672l-1.553-2.664l0.776,1.332l-0.782-1.327c2.783-1.821,14.335-29.199,23.896-54.615 l2.887,1.086C971.815,620.356,954.911,664.771,949.931,667.672z"/><rect width="61.609" height="3.082" x="977.304" y="661.096" fill="#003800" transform="matrix(0.8965 0.443 -0.443 0.8965 397.8495 -378.0138)"/><rect width="3.083" height="69.535" x="827.522" y="686.045" fill="#003800" transform="matrix(0.9901 0.1406 -0.1406 0.9901 109.6012 -109.423)"/><rect width="99.545" height="3.081" x="883.774" y="719.713" fill="#003800" transform="matrix(0.9631 0.2693 -0.2693 0.9631 228.7242 -224.76)"/><path fill="#45C64B" d="M926.297,653.732c-46.97,121.628-147.456,149.78-147.456,149.78s-23.899-77.217,8.399-157.254 c21.497-53.256,67.849-107.761,162.648-141.615C951.044,565.527,941.46,614.498,926.297,653.732z"/><path fill="#003800" d="M926.297,653.732c-46.97,121.628-147.456,149.78-147.456,149.78s-23.899-77.217,8.399-157.254 c-1.232,30.682,22.358,30.967,31.419,44.141C830.341,707.383,841.851,654.081,926.297,653.732z"/><path fill="#003800" d="M780.304,803.977l-2.938-0.928c0.057-0.179,5.749-18.124,16.277-45.319 c25.724-66.442,80.096-187.822,155.219-254.233l2.041,2.308c-74.635,65.982-128.763,186.857-154.386,253.039 C786.026,785.938,780.361,803.8,780.304,803.977z"/><rect width="3.081" height="89.999" x="856.184" y="663.205" fill="#003800" transform="matrix(0.1379 0.9905 -0.9905 0.1379 1440.9109 -238.9696)"/><rect width="3.081" height="97.379" x="864.724" y="643.097" fill="#003800" transform="matrix(0.2098 0.9777 -0.9777 0.2098 1360.9021 -300.3409)"/><rect width="76.55" height="3.084" x="798.105" y="614.658" fill="#003800" transform="matrix(0.143 0.9897 -0.9897 0.143 1326.6361 -299.7054)"/><path fill="#003800" d="M867.581,611.1l-2.634-1.601l1.317,0.8l-1.322-0.793c1.543-2.895-1.318-31.908-4.978-58.285l3.055-0.425 C864.815,563.748,870.452,606.376,867.581,611.1z"/><rect width="3.081" height="60.475" x="913.843" y="549.248" fill="#003800" transform="matrix(0.038 0.9993 -0.9993 0.038 1459.637 -357.2744)"/><rect width="68.259" height="3.08" x="754.071" y="712.011" fill="#003800" transform="matrix(0.3489 0.9372 -0.9372 0.3489 1181.9559 -274.0576)"/><rect width="3.08" height="97.712" x="876.991" y="616.123" fill="#003800" transform="matrix(0.2226 0.9749 -0.9749 0.2226 1331.2993 -339.5186)"/><path fill="#45C64B" d="M549.965,516.705c-0.306-25.09,1.819-52.273,6.886-81.713c232.254,125.234,229.419,302.97,222.963,355.037 c-1.172,9.556-2.481,14.871-2.481,14.871s-139.519-30.218-199.987-160.414v-0.015C561.111,609.528,550.579,567.389,549.965,516.705"/><path fill="#003800" d="M779.813,790.029c-1.172,9.556-2.481,14.871-2.481,14.871s-139.519-30.218-199.987-160.414v-0.015 c0,0,138.363,49.139,165.254,73.181C758.687,732.029,771.846,765.467,779.813,790.029z"/><path fill="#003800" d="M777.339,806.444c-0.846,0-0.914,0-12.031-12.59c-6.3-7.135-16.35-18.729-28.447-33.449 c-56.552-68.809-155.334-202.538-181.516-325.087l3.013-0.644c26.046,121.91,124.509,255.183,180.884,323.773 c23.408,28.484,39.067,45.237,39.215,45.394l-1.117,1.056V806.444z"/><rect width="3.083" height="112.549" x="720.435" y="604.15" fill="#003800" transform="matrix(0.9306 0.3661 -0.3661 0.9306 291.9442 -218.4856)"/><rect width="3.083" height="121.78" x="707.797" y="580.145" fill="#003800" transform="matrix(0.9546 0.2977 -0.2977 0.9546 223.0271 -182.1224)"/><rect width="95.734" height="3.083" x="560.775" y="625.618" fill="#003800" transform="matrix(0.9323 0.3616 -0.3616 0.9323 267.9644 -177.6466)"/><path fill="#003800" d="M619.229,591.735c-1.975-3.521-35.86-18.366-66.74-30.545l1.132-2.868 c10.808,4.263,64.893,25.835,68.296,31.905L619.229,591.735z"/><rect width="3.083" height="75.627" x="615.639" y="480.732" fill="#003800" transform="matrix(0.8896 0.4568 -0.4568 0.8896 305.0424 -224.671)"/><rect width="85.364" height="3.081" x="642.412" y="737.9" fill="#003800" transform="matrix(0.9877 0.1564 -0.1564 0.9877 124.1155 -98.0731)"/><rect width="3.083" height="122.201" x="686.132" y="550.105" fill="#003800" transform="matrix(0.9588 0.2841 -0.2841 0.9588 201.996 -170.1935)"/><polygon fill="#c54d00" points="870.112 796.792 932.374 796.792 901.349 974.644 855.429 974.644"/><path fill="#45C64B" d="M777.339,804.903c0,0,32.429-162.1,216.072-133.486C908.596,834.88,777.339,804.903,777.339,804.903z"/><path fill="#003800" d="M778.408,806.013l-2.14-2.219c0.1-0.096,10.115-9.733,26.521-23.659 c40.092-34.03,118.124-93.603,190.275-110.22l0.692,3.004c-71.517,16.469-149.095,75.717-188.973,109.566 C788.459,796.342,778.507,805.917,778.408,806.013z"/><rect width="66.383" height="3.082" x="828.829" y="769.363" fill="#003800" transform="matrix(0.9361 0.3517 -0.3517 0.9361 326.198 -253.921)"/><rect width="71.826" height="3.081" x="837.423" y="761.728" fill="#003800" transform="matrix(0.9594 0.2822 -0.2822 0.9594 250.9081 -215.4441)"/><rect width="3.081" height="56.46" x="879.035" y="675.526" fill="#003800" transform="matrix(0.9379 0.3468 -0.3468 0.9379 298.6887 -261.6937)"/><path fill="#003800" d="M902.799,711.788l-1.55-2.664l-0.039,0.025c2.075-1.605,10.35-21.267,17.152-39.347l2.883,1.086 C916.878,682.499,906.339,709.726,902.799,711.788z"/><rect width="44.604" height="3.083" x="922.405" y="706.234" fill="#003800" transform="matrix(0.8965 0.443 -0.443 0.8965 411.2556 -345.2426)"/><rect width="3.082" height="50.344" x="813.536" y="724.721" fill="#003800" transform="matrix(0.9901 0.1407 -0.1407 0.9901 113.5898 -107.1984)"/><rect width="72.069" height="3.08" x="854.689" y="748.674" fill="#003800" transform="matrix(0.9631 0.2693 -0.2693 0.9631 234.9244 -212.1462)"/><path fill="#45C64B" d="M619.015,735.379c-7.176-12.649-13.498-27.403-18.625-44.598c153.619,5.271,178.123,114.94,178.123,114.94 S673.877,832.093,619.015,735.379"/><path fill="#003800" d="M777.97,807.165c-0.106-0.041-10.971-4.133-27.359-11.505c-40.051-18.012-112.982-55.464-151.428-103.922 l2.414-1.914c38.041,47.946,110.48,85.128,150.277,103.025c16.301,7.331,27.072,11.39,27.18,11.429L777.97,807.165z"/><rect width="55.406" height="3.084" x="694.804" y="752.562" fill="#003800" transform="matrix(0.0848 0.9964 -0.9964 0.0848 1412.5874 -29.7833)"/><rect width="59.949" height="3.081" x="682.719" y="746.774" fill="#003800" transform="matrix(0.1576 0.9875 -0.9875 0.1576 1339.3464 -73.3986)"/><rect width="3.083" height="47.128" x="663.706" y="740.647" fill="#003800" transform="matrix(0.0909 0.9959 -0.9959 0.0909 1365.8181 32.2462)"/><path fill="#003800" d="M626.124,748.174l-0.262-3.07c10.346-0.877,34.717-2.699,37.605-0.731l-1.736,2.546l0.064,0.039 C659.709,745.999,642.018,746.825,626.124,748.174z"/><rect width="3.082" height="37.228" x="643.723" y="695.827" fill="#003800" transform="matrix(0.9999 0.0146 -0.0146 0.9999 10.4807 -9.3281)"/><rect width="3.082" height="42.024" x="721.976" y="776.007" fill="#003800" transform="matrix(0.2991 0.9542 -0.9542 0.2991 1267.6774 -131.7473)"/><rect width="60.155" height="3.082" x="666.538" y="738.354" fill="#003800" transform="matrix(0.1708 0.9853 -0.9853 0.1708 1306.6171 -72.8873)"/><path fill="#c54d00" d="M686.3,830.774c-0.76,0-1.421-0.562-1.526-1.335c-0.114-0.843,0.479-1.619,1.321-1.733l192.594-26.058 c0.844-0.11,1.619,0.479,1.734,1.321c0.113,0.843-0.477,1.619-1.319,1.733l-192.597,26.058 C686.438,830.77,686.368,830.774,686.3,830.774z"/><path fill="#c54d00" d="M704.894,856.764c-0.76,0-1.421-0.562-1.526-1.335c-0.114-0.843,0.479-1.619,1.321-1.733l177.789-24.057 c0.836-0.114,1.619,0.477,1.733,1.321c0.114,0.843-0.476,1.619-1.318,1.733L705.101,856.75 C705.032,856.759,704.962,856.764,704.894,856.764z"/><path fill="#c54d00" d="M716.505,883.691c-0.759,0-1.42-0.562-1.523-1.335c-0.113-0.843,0.477-1.619,1.318-1.733l169.964-22.997 c0.841-0.116,1.62,0.477,1.733,1.32c0.114,0.843-0.476,1.62-1.318,1.734l-169.963,22.997 C716.645,883.687,716.573,883.691,716.505,883.691z"/><path fill="#c54d00" d="M730.503,910.3c-0.758,0-1.419-0.562-1.523-1.335c-0.113-0.843,0.477-1.619,1.318-1.733l159.752-21.616 c0.846-0.101,1.619,0.478,1.733,1.321c0.114,0.843-0.476,1.62-1.317,1.734l-159.752,21.615 C730.642,910.295,730.572,910.3,730.503,910.3z"/><path fill="#c54d00" d="M738.163,937.767c-0.759,0-1.42-0.562-1.525-1.335c-0.112-0.843,0.478-1.619,1.32-1.733l155.881-21.093 c0.84-0.104,1.619,0.478,1.734,1.321c0.113,0.843-0.479,1.619-1.322,1.734l-155.878,21.092 C738.302,937.762,738.231,937.767,738.163,937.767z"/><path fill="#c54d00" d="M758.665,963.493c-0.759,0-1.42-0.562-1.523-1.335c-0.114-0.843,0.476-1.619,1.318-1.733l139.165-18.829 c0.853-0.109,1.62,0.479,1.733,1.321c0.115,0.843-0.475,1.619-1.318,1.733l-139.165,18.829 C758.804,963.488,758.733,963.493,758.665,963.493z"/><path fill="#FFF" d="M743.571,644.118c-1.192,0-2.325-0.695-2.83-1.857c-3.187-7.352-6.727-14.727-10.518-21.92 c-0.795-1.505-0.217-3.369,1.287-4.164c1.506-0.793,3.368-0.216,4.162,1.29c3.867,7.33,7.474,14.847,10.725,22.341 c0.677,1.563-0.039,3.377-1.602,4.055C744.396,644.035,743.98,644.118,743.571,644.118z"/><path fill="#FFF" d="M722.141,603.019c-1.037,0-2.048-0.521-2.63-1.47c-4.686-7.636-9.777-15.249-15.139-22.626 c-0.998-1.378-0.695-3.305,0.684-4.305c1.375-1,3.303-0.694,4.305,0.682c5.453,7.508,10.636,15.254,15.402,23.025 c0.892,1.45,0.438,3.349-1.014,4.239C723.247,602.873,722.689,603.019,722.141,603.019z"/><path fill="#FFF" d="M695.558,565.419c-0.9,0-1.793-0.393-2.402-1.148c-19.051-23.65-41.443-45.635-66.551-65.341 c-1.338-1.05-1.57-2.988-0.52-4.326c1.05-1.339,2.988-1.571,4.328-0.522c25.473,19.995,48.197,42.31,67.543,66.322 c1.068,1.325,0.857,3.266-0.467,4.334C696.921,565.196,696.235,565.419,695.558,565.419z"/><path fill="#FFF" d="M741.524,754.711c-0.736,0-1.475-0.263-2.064-0.795c-9.162-8.275-22.566-17.13-39.842-26.32 c-1.502-0.799-2.071-2.665-1.272-4.168c0.8-1.502,2.665-2.072,4.169-1.273c17.719,9.427,31.539,18.574,41.077,27.187 c1.263,1.141,1.362,3.09,0.222,4.354C743.204,754.367,742.367,754.711,741.524,754.711z"/><path fill="#FFF" d="M685.953,724.085c-0.367,0-0.74-0.067-1.104-0.207c-12.326-4.742-25.915-9.389-40.387-13.812 c-1.629-0.498-2.545-2.222-2.047-3.85c0.496-1.627,2.217-2.546,3.846-2.047c14.613,4.467,28.34,9.162,40.801,13.956 c1.588,0.611,2.38,2.395,1.77,3.982C688.36,723.333,687.193,724.085,685.953,724.085z"/><path fill="#EFECE2" d="M632.327,706.355c-0.28,0-0.563-0.039-0.846-0.119c-9.146-2.604-14.987-4.062-15.046-4.076 c-1.651-0.411-2.657-2.083-2.245-3.734c0.41-1.65,2.081-2.665,3.734-2.246c0.058,0.014,5.99,1.492,15.244,4.128 c1.638,0.466,2.586,2.171,2.119,3.809C634.903,705.471,633.669,706.355,632.327,706.355z"/><path fill="#FFF" d="M936.82,554.09c-0.138,0-0.278-0.009-0.418-0.028c-1.687-0.229-2.868-1.78-2.64-3.467 c0.818-6.044,1.568-11.836,1.742-16.29c0.068-1.702,1.473-3.035,3.203-2.959c1.7,0.066,3.024,1.499,2.958,3.199 c-0.187,4.727-0.956,10.682-1.797,16.877C939.66,552.969,938.337,554.09,936.82,554.09z"/><path fill="#EFECE2" d="M887.022,548.074c-0.943,0-1.875-0.431-2.48-1.248c-1.013-1.366-0.725-3.297,0.641-4.31 c8.443-6.258,16.6-11.571,24.24-15.794c4.65-2.568,8.521-4.474,11.832-5.823c1.574-0.648,3.373,0.109,4.018,1.689 c0.641,1.576-0.115,3.374-1.691,4.017c-3.085,1.258-6.74,3.062-11.176,5.513c-7.403,4.092-15.328,9.256-23.551,15.35 C888.303,547.877,887.66,548.074,887.022,548.074z"/><path fill="#FFF" d="M848.31,582.568c-0.594,0-1.196-0.172-1.726-0.531c-1.409-0.954-1.777-2.872-0.821-4.28 c1.859-2.746,10.572-11.481,21.398-20.805c1.291-1.11,3.238-0.966,4.348,0.325c1.11,1.29,0.965,3.235-0.324,4.346 c-12.045,10.37-19.316,18.111-20.32,19.592C850.268,582.094,849.298,582.568,848.31,582.568z"/><path fill="#FFF" d="M987.667,625.176c-1.518,0-2.839-1.119-3.051-2.663c-0.23-1.688,0.949-3.241,2.635-3.472 c3.918-0.537,7.805-1.028,11.549-1.46c1.689-0.191,3.22,1.021,3.416,2.71c0.193,1.69-1.02,3.22-2.709,3.415 c-3.702,0.426-7.543,0.91-11.42,1.441C987.946,625.167,987.805,625.176,987.667,625.176z"/><path fill="#FFF" d="M933.128,680.9c-1.463,0-2.764-1.046-3.031-2.535c-0.301-1.677,0.813-3.277,2.489-3.58 c4.194-0.754,8.437-1.415,12.61-1.964c1.691-0.2,3.235,0.968,3.459,2.654c0.221,1.688-0.969,3.235-2.655,3.458 c-4.078,0.534-8.224,1.182-12.325,1.919C933.491,680.886,933.308,680.9,933.128,680.9z"/><path fill="#FFF" d="M896.891,690.136c-1.288,0-2.491-0.817-2.923-2.108c-0.538-1.614,0.335-3.36,1.949-3.898 c1.479-0.494,2.984-0.981,4.51-1.457c1.627-0.504,3.354,0.4,3.859,2.025c0.507,1.624-0.4,3.353-2.025,3.858 c-1.487,0.464-2.95,0.939-4.393,1.421C897.544,690.083,897.216,690.136,896.891,690.136z"/><path fill="#FFF" d="M838.626,718.643c-0.979,0-1.941-0.465-2.54-1.332c-0.966-1.402-0.614-3.321,0.788-4.287 c1.159-0.8,2.441-1.666,3.844-2.581c1.427-0.933,3.335-0.528,4.265,0.896c0.931,1.427,0.528,3.337-0.896,4.265 c-1.357,0.886-2.595,1.722-3.714,2.494C839.839,718.466,839.228,718.643,838.626,718.643z"/><path fill="#FFF" d="M830.909,724.334c-0.927,0-1.84-0.416-2.447-1.206c-1.038-1.35-0.782-3.285,0.568-4.32l0.35-0.275 c1.066-0.837,3.561-2.794,7.492-5.509c1.402-0.965,3.322-0.614,4.288,0.787c0.966,1.4,0.614,3.319-0.785,4.287 c-3.777,2.604-6.167,4.481-7.188,5.283l-0.405,0.314C832.225,724.126,831.563,724.334,830.909,724.334z"/><path fill="#EFECE2" d="M666.194,892.714c-1.484,0-2.794-1.077-3.038-2.593l-7.919-49.193c-0.27-1.68,0.873-3.261,2.555-3.532 c1.68-0.273,3.261,0.873,3.531,2.554l7.919,49.193c0.269,1.68-0.873,3.262-2.554,3.532 C666.522,892.702,666.357,892.714,666.194,892.714z"/><path fill="#EFECE2" d="M656.266,831.021c-1.487,0-2.796-1.078-3.04-2.593l-2.999-18.633c-0.269-1.68,0.873-3.262,2.554-3.532 c1.684-0.267,3.263,0.873,3.532,2.554l2.999,18.633c0.271,1.68-0.873,3.261-2.553,3.532 C656.593,831.009,656.429,831.021,656.266,831.021z"/><path fill="#003800" d="M582.058,656.393c-0.688,0-1.37-0.306-1.826-0.891c-5.574-7.155-10.531-17.327-14.735-30.232 c-0.394-1.215,0.269-2.52,1.483-2.913c1.211-0.402,2.518,0.266,2.914,1.48c4.035,12.396,8.742,22.093,13.986,28.824 c0.783,1.006,0.604,2.459-0.404,3.244C583.055,656.233,582.554,656.393,582.058,656.393z"/><path fill="#003800" d="M561.229,602.194c-1.069,0-2.03-0.745-2.261-1.833c-3.814-18.052-6.738-39.604-8.689-64.056 c-0.102-1.271,0.847-2.387,2.119-2.487c1.262-0.081,2.387,0.848,2.488,2.12c1.937,24.254,4.832,45.607,8.605,63.466 c0.264,1.249-0.535,2.476-1.784,2.74C561.548,602.178,561.386,602.194,561.229,602.194z"/><path fill="#003800" d="M550.81,509.792c-1.229,0-2.252-0.968-2.309-2.208c-1.281-28.399-0.883-49.567-0.877-49.778 c0.025-1.26,1.055-2.265,2.309-2.265c0.018,0,0.032,0,0.049,0c1.275,0.025,2.29,1.08,2.264,2.356 c-0.004,0.209-0.399,21.237,0.875,49.479c0.058,1.274-0.93,2.354-2.206,2.412C550.878,509.79,550.844,509.792,550.81,509.792z"/><path fill="#003800" d="M685.874,799.115c-0.307,0-0.619-0.06-0.918-0.19c-7.16-3.104-14.158-6.974-20.799-11.504 c-1.057-0.719-1.328-2.157-0.607-3.212c0.719-1.053,2.156-1.328,3.211-0.606c6.401,4.365,13.141,8.094,20.033,11.081 c1.172,0.507,1.709,1.868,1.203,3.04C687.618,798.595,686.768,799.115,685.874,799.115z"/><path fill="#003800" d="M642.431,768.047c-0.615,0-1.226-0.243-1.68-0.723c-26.902-28.425-37.895-60.627-38.35-61.984 c-0.404-1.21,0.246-2.52,1.457-2.926c1.213-0.401,2.521,0.245,2.926,1.455c0.11,0.323,11.152,32.624,37.322,60.276 c0.879,0.928,0.838,2.39-0.089,3.269C643.571,767.837,642.999,768.047,642.431,768.047z"/><path fill="#FFF" d="M887.524,536.197c-0.81,0-1.596-0.427-2.02-1.186c-0.623-1.113-0.223-2.522,0.891-3.144 c23.188-12.938,38.799-19.993,38.952-20.064c1.165-0.521,2.534-0.003,3.058,1.159c0.523,1.165,0.004,2.532-1.158,3.058 c-0.154,0.067-15.602,7.054-38.597,19.884C888.292,536.104,887.907,536.197,887.524,536.197z"/><path fill="#003800" d="M830.1,579.82c-0.567,0-1.136-0.208-1.583-0.629c-0.93-0.875-0.974-2.337-0.1-3.268 c5.944-6.313,12.342-12.337,19.014-17.901c0.981-0.82,2.439-0.687,3.256,0.293c0.818,0.98,0.686,2.438-0.294,3.255 c-6.531,5.449-12.791,11.344-18.607,17.522C831.329,579.576,830.717,579.82,830.1,579.82z"/><path fill="#003800" d="M807.172,608.834c-0.435,0-0.876-0.124-1.267-0.381c-1.066-0.701-1.363-2.134-0.662-3.201 c4.256-6.471,8.932-12.802,13.906-18.819c0.813-0.986,2.268-1.126,3.254-0.311c0.984,0.813,1.123,2.271,0.309,3.254 c-4.866,5.89-9.443,12.085-13.605,18.416C808.661,608.468,807.925,608.834,807.172,608.834z"/><path fill="#003800" d="M787.241,648.57c-0.219,0-0.441-0.031-0.663-0.098c-1.224-0.365-1.919-1.652-1.554-2.874 c0.109-0.363,2.723-9.01,9.504-22.085c0.586-1.132,1.982-1.573,3.115-0.989c1.133,0.589,1.575,1.983,0.986,3.117 c-6.558,12.649-9.148,21.195-9.176,21.279C789.154,647.924,788.235,648.57,787.241,648.57z"/><path fill="#003800" d="M902.272,677.319c-1.015,0-1.944-0.673-2.228-1.697c-0.339-1.231,0.386-2.505,1.614-2.843 c11.944-3.29,24.56-5.55,37.498-6.72c1.266-0.101,2.395,0.822,2.51,2.095c0.115,1.271-0.822,2.395-2.094,2.511 c-12.665,1.144-25.008,3.354-36.686,6.571C902.682,677.292,902.476,677.319,902.272,677.319z"/><path fill="#003800" d="M837.585,709.797c-0.68,0-1.355-0.3-1.813-0.874c-0.794-1.001-0.625-2.455,0.373-3.248 c10.676-8.471,22.469-15.763,35.045-21.671c1.156-0.543,2.533-0.047,3.075,1.108c0.543,1.156,0.046,2.533-1.109,3.075 c-12.255,5.757-23.74,12.858-34.136,21.108C838.597,709.633,838.087,709.797,837.585,709.797z"/><path fill="#003800" d="M804.503,745.766c-0.386,0-0.777-0.097-1.139-0.301c-1.11-0.629-1.498-2.039-0.869-3.149 c0.244-0.434,6.156-10.748,19.287-23.858c0.901-0.901,2.367-0.902,3.269,0.003c0.901,0.903,0.901,2.367-0.003,3.269 c-12.69,12.67-18.475,22.766-18.532,22.865C806.091,745.345,805.309,745.766,804.503,745.766z"/><path fill="#003800" d="M706.293,965.304c-47.138,86.481-173.571,131.217-261.249,100.207 c-36.399-10.148-54.885-40.567-54.885-40.567s-0.268,0.415-0.834,1.201c-5,6.913-33.092,41.278-96.381,42.356 c-70.371,1.176-88.293-19.685-88.293-19.685s-62.553,30.396-78.241-43.14c-0.173-0.735-0.319-1.47-0.465-2.206 c0-38.753,17.277-45.91,17.277-45.91s-26.028-19.417-20.71-57.409c0.612-4.656,1.74-9.582,3.433-14.781 c15.491-47.699,47.109-70.372,63.804-84.102c16.693-13.7,65.031-57.846,72.773-69.782c7.748-11.916,12.822-17.652,19.688-5.271 c7.157,12.915,21.471,34.513,22.646,57.162c0.295,5.491,32.209-29.807,39.979-43.534c7.745-13.729,17.896-19.096,25.053-3.578 c7.083,15.367,7.157,41.889,4.265,46.4c2.256-2.648,38.753-45.299,78.636-64.883c54.882-26.964,153.886-56.083,226.073,8.944 c5.566,5.004,10.712,10.15,15.443,15.421c7.426,8.234,13.849,16.765,19.314,25.565C750.045,826.15,744.091,895.938,706.293,965.304 z"/><path fill="#FFF" d="M390.163,1026.492c-0.591,0-1.155-0.344-1.41-0.92c-0.09-0.203-9.075-20.73-14.413-46.837 c-7.185-35.123-17.798-118.569,38.655-134.795c14.668-4.218,26.472-2.628,35.081,4.727c17.435,14.891,16.254,47.822,13.997,66.128 c-6.754,54.829,25.729,80.361,58.38,85.975c53.494,9.185,108.138-51.365,109.3-52.851c0.334-0.677,1.127-1.024,1.867-0.774 c0.809,0.27,1.244,1.142,0.975,1.948c-0.998,2.993-50.58,55.682-101.084,55.685c-3.863,0-7.728-0.309-11.578-0.971 c-34.052-5.853-67.937-32.408-60.918-89.388c3.711-30.104-1.006-53.217-12.939-63.409c-7.773-6.636-18.614-8.019-32.229-4.107 c-53.98,15.515-43.499,96.932-36.488,131.217c5.269,25.766,14.127,46.009,14.215,46.21c0.344,0.778-0.009,1.688-0.788,2.032 C390.583,1026.45,390.372,1026.492,390.163,1026.492z"/><path fill="#FFF" d="M269.085,812.365c-0.646,0-1.246-0.407-1.461-1.053c-0.27-0.809,0.166-1.681,0.973-1.949 c3.009-1.004,22.253-10.227,35.051-26.912c0.519-0.673,1.484-0.803,2.16-0.286c0.676,0.52,0.804,1.485,0.286,2.161 c-14.798,19.293-36.319,27.894-36.521,27.96C269.41,812.34,269.246,812.365,269.085,812.365z"/><path fill="#FFF" d="M346.624,833.839c-0.373,0-0.748-0.136-1.043-0.408c-0.627-0.576-0.667-1.55-0.09-2.176 c0.204-0.225,20.682-22.704,27.07-48.831c0.203-0.828,1.049-1.332,1.863-1.132c0.827,0.203,1.332,1.037,1.131,1.863 c-6.582,26.916-26.936,49.249-27.799,50.187C347.452,833.671,347.039,833.839,346.624,833.839z"/><path fill="#FFF" d="M170.45,873.812c-7.227,0-12.666-2.2-16.178-6.545c-6.791-8.404-3.728-21.644-3.594-22.203 c0.197-0.826,1.02-1.343,1.855-1.141c0.828,0.196,1.34,1.027,1.143,1.855c-0.029,0.123-2.842,12.346,3,19.562 c3.018,3.724,7.932,5.525,14.551,5.381c0.834-0.036,1.558,0.653,1.577,1.505s-0.655,1.558-1.505,1.577 C171.015,873.809,170.729,873.812,170.45,873.812z"/><path fill="#FFF" d="M238.272,909.504c-5.836,0.001-10.589-1.516-14.201-4.54c-8.127-6.812-7.264-18.61-7.223-19.109 c0.07-0.847,0.801-1.458,1.66-1.409c0.847,0.067,1.479,0.811,1.412,1.658c-0.008,0.106-0.761,10.74,6.146,16.511 c5.041,4.211,12.961,4.935,23.535,2.155c32.893-8.656,43.705-25.973,43.81-26.146c0.439-0.728,1.388-0.964,2.114-0.522 c0.729,0.439,0.965,1.383,0.527,2.111c-0.451,0.752-11.453,18.533-45.665,27.537C245.942,908.92,241.898,909.504,238.272,909.504z"/><path fill="#FFF" d="M207.052,984.741c-0.031,0-0.062-0.001-0.093-0.003c-1.655-0.098-40.81-2.688-64.807-26.082 c-0.609-0.594-0.622-1.569-0.026-2.179c0.592-0.611,1.57-0.62,2.178-0.027c23.184,22.6,62.444,25.188,62.839,25.212 c0.851,0.052,1.497,0.78,1.446,1.63C208.54,984.111,207.862,984.741,207.052,984.741z"/><path fill="#FFF" d="M204.665,1050.354c-0.367,0-0.735-0.131-1.03-0.396c-0.172-0.146-0.872-0.511-1.49-0.833 c-5.536-2.88-22.386-11.648-18.093-41.688c1.34-9.367,5.063-15.501,11.065-18.229c12.269-5.585,29.348,5.353,30.071,5.82 c0.713,0.464,0.916,1.418,0.453,2.131c-0.464,0.714-1.418,0.918-2.131,0.455c-0.164-0.105-16.391-10.486-27.123-5.599 c-4.981,2.267-8.104,7.602-9.283,15.858c-3.985,27.877,10.87,35.607,16.463,38.519c1.017,0.529,1.688,0.878,2.129,1.275 c0.632,0.569,0.684,1.544,0.114,2.177C205.507,1050.183,205.087,1050.354,204.665,1050.354z"/><path fill="#FFF" d="M413.419,774.19c-0.258,0-0.519-0.064-0.76-0.201c-0.74-0.422-0.999-1.362-0.578-2.101 c0.357-0.628,8.823-15.394,17.177-19.136c0.782-0.347,1.688,0.001,2.038,0.776c0.348,0.778,0,1.688-0.777,2.037 c-7.434,3.329-15.676,17.7-15.758,17.845C414.476,773.911,413.955,774.19,413.419,774.19z"/><path fill="#FFF" d="M443.843,762.262c-0.395,0-0.79-0.15-1.09-0.451c-0.602-0.603-0.602-1.576,0-2.178 c0.301-0.301,7.533-7.437,22.539-14.04c0.782-0.347,1.687,0.012,2.029,0.79c0.344,0.778-0.01,1.687-0.79,2.03 c-14.425,6.349-21.53,13.329-21.601,13.4C444.63,762.113,444.237,762.262,443.843,762.262z"/><path fill="#FFF" d="M454.876,737.212c-0.387,0-0.773-0.145-1.072-0.435c-0.609-0.592-0.627-1.566-0.035-2.178 c0.389-0.401,9.654-9.867,22.39-14.111c0.813-0.269,1.681,0.168,1.948,0.974c0.27,0.809-0.166,1.682-0.973,1.949 c-12.002,4-21.061,13.239-21.151,13.333C455.681,737.056,455.278,737.212,454.876,737.212z"/><path fill="#FFF" d="M499.907,718.719c-0.615,0-1.197-0.371-1.436-0.979c-0.311-0.793,0.082-1.687,0.875-1.997 c0.568-0.223,14.104-5.462,29.066-6.662c0.877-0.075,1.593,0.566,1.66,1.413c0.068,0.849-0.564,1.593-1.412,1.66 c-14.498,1.162-28.057,6.407-28.192,6.46C500.284,718.686,500.095,718.719,499.907,718.719z"/><path fill="#FFF" d="M603.692,715.438c-0.089,0-0.178-0.008-0.268-0.022c-23.295-4.095-41.275-4.668-43.473-3.621 c-0.607,0.509-1.512,0.481-2.084-0.089c-0.602-0.602-0.602-1.578,0-2.179c2.915-2.913,28.641-0.214,46.089,2.852 c0.839,0.147,1.397,0.946,1.252,1.785C605.077,714.912,604.427,715.438,603.692,715.438z"/><path fill="#FFF" d="M486.192,742.58c-0.574,0-1.125-0.322-1.391-0.874c-0.369-0.768-0.045-1.688,0.723-2.056 c0.615-0.297,15.172-7.263,21.863-8.479c0.836-0.158,1.641,0.4,1.791,1.24c0.154,0.836-0.402,1.639-1.24,1.79 c-6.283,1.144-20.934,8.155-21.081,8.226C486.642,742.532,486.415,742.58,486.192,742.58z"/><path fill="#FFF" d="M539.873,730.352c-0.655,0-1.264-0.422-1.47-1.08c-0.255-0.813,0.198-1.679,1.01-1.932 c1.508-0.472,14.867-4.571,19.92-3.304c0.824,0.206,1.326,1.042,1.119,1.868c-0.206,0.826-1.047,1.324-1.869,1.12 c-3.558-0.893-14.382,2.047-18.25,3.257C540.181,730.329,540.025,730.352,539.873,730.352z"/><path fill="#FFF" d="M625.761,737.212c-0.27,0-0.543-0.07-0.791-0.22c-11.402-6.839-21.129-6.651-21.234-6.641 c-0.015,0-0.029,0-0.046,0c-0.829,0-1.515-0.661-1.54-1.496c-0.023-0.85,0.646-1.561,1.496-1.586c0.431,0,10.729-0.226,22.91,7.08 c0.729,0.438,0.966,1.385,0.527,2.114C626.795,736.945,626.284,737.212,625.761,737.212z"/><path fill="#FFF" d="M429.89,889.904c-0.039,0-0.08-0.001-0.119-0.004c-0.848-0.065-1.483-0.806-1.418-1.654 c1.141-14.899-2.367-18.937-3.815-19.235c-0.847-0.075-1.435-0.818-1.357-1.665c0.075-0.849,0.876-1.482,1.711-1.394 c0.84,0.075,8.156,1.344,6.534,22.528C431.363,889.289,430.688,889.904,429.89,889.904z"/><path fill="#FFF" d="M448.614,895.23c-0.087,0-0.176-0.008-0.264-0.022c-0.839-0.146-1.402-0.944-1.256-1.782 c2.23-12.857-4.311-20.032-4.377-20.104c-0.582-0.621-0.549-1.597,0.073-2.177c0.62-0.581,1.595-0.55,2.177,0.073 c0.314,0.336,7.652,8.382,5.164,22.733C450.003,894.702,449.351,895.23,448.614,895.23z"/><path fill="#FFF" d="M434.891,950.146c-0.212,0-0.429-0.044-0.637-0.139c-0.774-0.352-1.116-1.266-0.765-2.04 c2.291-5.038,0.639-23.23,0.096-29.208c-0.162-1.786-0.234-2.59-0.234-2.958c0-0.853,0.689-1.541,1.541-1.541 s1.541,0.688,1.541,1.541c0,0.243,0.107,1.426,0.222,2.679c1.056,11.632,1.972,25.64-0.36,30.764 C436.037,949.811,435.478,950.146,434.891,950.146z"/><path fill="#FFF" d="M387.178,941.199c-0.69,0-1.318-0.467-1.493-1.168c-1.832-7.326-0.113-26.54-0.04-27.354 c0.078-0.846,0.818-1.482,1.675-1.396c0.848,0.077,1.472,0.826,1.395,1.675c-0.018,0.194-1.745,19.505-0.04,26.327 c0.208,0.825-0.295,1.662-1.121,1.868C387.428,941.184,387.302,941.199,387.178,941.199z"/><path fill="#FFF" d="M294.733,946.566c-0.045,0-0.089-0.001-0.135-0.006l-109.838-9.542c-0.848-0.074-1.475-0.82-1.4-1.669 c0.073-0.848,0.808-1.471,1.668-1.401l109.838,9.542c0.848,0.074,1.475,0.82,1.4,1.669 C296.198,945.962,295.524,946.566,294.733,946.566z"/><path fill="#FFF" d="M269.083,984.741c-0.212,0-0.429-0.043-0.635-0.137l-84.189-38.175c-0.775-0.353-1.119-1.266-0.768-2.041 c0.354-0.774,1.266-1.119,2.04-0.768l84.19,38.176c0.775,0.352,1.117,1.266,0.768,2.04 C270.229,984.406,269.671,984.741,269.083,984.741z"/><path fill="#FFF" d="M269.083,1020.531c-0.314,0-0.633-0.097-0.907-0.297l-84.19-61.437c-0.686-0.501-0.838-1.466-0.335-2.153 c0.499-0.685,1.466-0.84,2.153-0.336l84.189,61.438c0.688,0.501,0.839,1.466,0.336,2.153 C270.028,1020.312,269.56,1020.531,269.083,1020.531z"/><path fill="#FF7C2B" d="M139.649,909.504c-0.213,0-0.43-0.044-0.638-0.139L50.196,868.89c-0.775-0.354-1.117-1.268-0.766-2.042 c0.354-0.775,1.271-1.118,2.043-0.764l88.817,40.477c0.773,0.354,1.115,1.267,0.763,2.042 C140.795,909.17,140.235,909.504,139.649,909.504z"/><path fill="#FF7C2B" d="M123.606,918.94c-0.15,0-0.305-0.022-0.457-0.069l-71.175-22.112c-0.813-0.253-1.266-1.116-1.015-1.929 c0.253-0.814,1.117-1.265,1.93-1.015l71.175,22.112c0.813,0.253,1.267,1.116,1.015,1.93 C124.874,918.518,124.265,918.94,123.606,918.94z"/><path fill="#FF7C2B" d="M125.046,928.487c-0.058,0-0.116-0.003-0.176-0.011l-74.051-8.401c-0.846-0.095-1.454-0.859-1.357-1.703 c0.096-0.846,0.863-1.46,1.703-1.357l74.052,8.401c0.846,0.095,1.454,0.857,1.357,1.703 C126.485,927.906,125.819,928.487,125.046,928.487z"/><path fill="#FFF" d="M166.49,946.566c-8.21,0-12.034-4.22-13.577-15.734c-4.115,4.802-10.177,4.138-12.466,3.881 c-0.341-0.038-0.614-0.072-0.796-0.072c-0.852,0-1.541-0.689-1.541-1.541s0.689-1.541,1.541-1.541c0.259,0,0.646,0.038,1.133,0.092 c2.932,0.32,9.021,0.993,11.738-6.251c0.256-0.679,0.953-1.087,1.661-0.984c0.716,0.104,1.266,0.69,1.318,1.412 c1.213,16.357,5.503,17.657,10.988,17.657c0.853,0,1.541,0.689,1.541,1.541S167.343,946.566,166.49,946.566z"/><path fill="#836DEB" d="M488.394,577.701H467.46v-20.93c0-2.685-2.18-4.865-4.862-4.865c-2.688,0-4.866,2.181-4.866,4.865v20.93 H436.8c-2.686,0-4.866,2.181-4.866,4.865c0,2.688,2.181,4.867,4.866,4.867h20.932v20.934c0,2.683,2.178,4.862,4.866,4.862 c2.683,0,4.862-2.18,4.862-4.862v-20.934h20.934c2.684,0,4.862-2.18,4.862-4.867C493.256,579.882,491.077,577.701,488.394,577.701z"/><path fill="#836DEB" d="M210.694,695.615H189.76v-20.93c0-2.685-2.179-4.865-4.862-4.865c-2.689,0-4.866,2.181-4.866,4.865v20.93 h-20.931c-2.687,0-4.867,2.181-4.867,4.865c0,2.688,2.181,4.866,4.867,4.866h20.931v20.935c0,2.683,2.177,4.861,4.866,4.861 c2.684,0,4.862-2.179,4.862-4.861v-20.935h20.935c2.683,0,4.861-2.179,4.861-4.866 C215.556,697.796,213.377,695.615,210.694,695.615z"/><path fill="#836DEB" d="M281.315,643.51H271.01v-10.306c0-1.32-1.073-2.394-2.395-2.394c-1.324,0-2.396,1.073-2.396,2.394v10.306 h-10.305c-1.323,0-2.396,1.073-2.396,2.396c0,1.323,1.073,2.396,2.396,2.396h10.305v10.306c0,1.321,1.071,2.395,2.396,2.395 c1.321,0,2.395-1.073,2.395-2.395v-10.306h10.306c1.32,0,2.394-1.072,2.394-2.396C283.709,644.583,282.636,643.51,281.315,643.51z"/><path fill="#836DEB" d="M272.017,488.557h-20.934v-20.929c0-2.685-2.18-4.865-4.863-4.865c-2.688,0-4.866,2.181-4.866,4.865v20.929 h-20.931c-2.687,0-4.867,2.181-4.867,4.865c0,2.688,2.181,4.867,4.867,4.867h20.931v20.934c0,2.684,2.178,4.862,4.866,4.862 c2.684,0,4.863-2.179,4.863-4.862v-20.934h20.934c2.684,0,4.861-2.179,4.861-4.867C276.878,490.737,274.7,488.557,272.017,488.557z"/><path fill="#836DEB" d="M810.726,326.954h-20.934v-20.929c0-2.685-2.179-4.865-4.861-4.865c-2.689,0-4.867,2.181-4.867,4.865 v20.929h-20.932c-2.686,0-4.865,2.181-4.865,4.865c0,2.688,2.18,4.867,4.865,4.867h20.932v20.934c0,2.684,2.178,4.862,4.867,4.862 c2.683,0,4.861-2.179,4.861-4.862v-20.934h20.934c2.684,0,4.863-2.18,4.863-4.867C815.589,329.135,813.409,326.954,810.726,326.954 z"/><path fill="#836DEB" d="M1033.905,469.116h-20.934v-20.93c0-2.685-2.179-4.865-4.861-4.865c-2.689,0-4.867,2.181-4.867,4.865v20.93 h-20.932c-2.686,0-4.866,2.181-4.866,4.865c0,2.688,2.181,4.866,4.866,4.866h20.932v20.935c0,2.683,2.178,4.861,4.867,4.861 c2.683,0,4.861-2.179,4.861-4.861v-20.935h20.934c2.684,0,4.863-2.179,4.863-4.866 C1038.769,471.297,1036.589,469.116,1033.905,469.116z"/><path fill="#836DEB" d="M860.273,401.47h-15.802v-15.798c0-2.026-1.646-3.673-3.671-3.673c-2.03,0-3.673,1.646-3.673,3.673v15.798 h-15.802c-2.026,0-3.673,1.646-3.673,3.672c0,2.03,1.646,3.675,3.673,3.675h15.802v15.803c0,2.025,1.643,3.67,3.673,3.67 c2.025,0,3.671-1.645,3.671-3.67v-15.803h15.802c2.025,0,3.671-1.645,3.671-3.675C863.944,403.116,862.299,401.47,860.273,401.47z"/></svg>