<svg xmlns="http://www.w3.org/2000/svg" version="1.0" viewBox="0 0 1133.858 1133.858"><polygon fill="#57f697" points="990.379 994.608 872.651 994.608 861.271 884.644 1003.436 888.233"/><polygon fill="#00c268" points="990.379 994.608 969.438 994.608 958.057 884.644 1003.436 888.233"/><path fill="#000015" d="M926.08,894.944c0.253,0.063,0.486,0.109,0.738,0.141c-43.484-0.878-79.639-31.573-88.859-72.482 c-1.49-6.612-2.279-13.491-2.279-20.557c0-50.764,40.626-92.034,91.139-93.056c-0.252,0.031-0.485,0.079-0.738,0.142 c-33.33,2.895-59.756,43.392-59.756,92.914C866.324,851.569,892.75,892.053,926.08,894.944z"/><path fill="#000015" d="M1021.839,802.046c0,50.198-39.745,91.105-89.487,92.993c33.991-1.888,61.142-42.795,61.142-92.993 c0-50.199-27.15-91.122-61.142-93.008C982.094,710.924,1021.839,751.847,1021.839,802.046z"/><path fill="#2F6291" d="M926.08,894.944c-33.33-2.892-59.756-43.375-59.756-92.898c0-49.522,26.426-90.02,59.756-92.914 c-11.368,2.895-20.375,43.392-20.375,92.914C905.705,851.569,914.712,892.053,926.08,894.944z"/><path fill="#2F6291" d="M993.493,802.046c0,50.198-27.15,91.105-61.142,92.993c-0.393,0.032-0.802,0.032-1.194,0.046 c-0.206,0.017-0.408,0.017-0.627,0.017c-0.364,0-0.726,0.015-1.101,0c-0.475,0.015-0.943,0-1.401-0.03 c11.665-1.447,21.036-42.528,21.036-93.025s-9.371-91.592-21.036-93.039c0.458-0.034,0.927-0.049,1.401-0.034 c0.375-0.015,0.736,0,1.101,0c0.219-0.015,0.421,0,0.627,0.018c0.393,0.017,0.802,0.017,1.194,0.048 C966.343,710.924,993.493,751.847,993.493,802.046z"/><path fill="#000015" d="M909.881,856.988c-2.337-13.706-3.824-30.262-4.12-48.229"/><path fill="#000015" d="M905.761,808.759c-0.038-2.219-0.056-4.454-0.056-6.713c0-49.522,9.007-90.02,20.375-92.914 c0.645-0.063,1.289-0.11,1.948-0.125c11.665,1.447,21.036,42.542,21.036,93.039s-9.371,91.578-21.036,93.025 c-0.659-0.018-1.304-0.064-1.948-0.127c-6.65-1.691-12.493-16.25-16.199-37.956"/><path fill="#000015" d="M865.334,752.629c-2.34-1.641-63.528-40.251-63.528-40.251l67.735,33.614L865.334,752.629z"/><path fill="#000015" d="M891.06,740.014c-1.989-2.052-54.856-51.448-54.856-51.448l60.233,45.716L891.06,740.014z"/><path fill="#000015" d="M859.343,784.87c-2.854-0.103-75.201,0.854-75.201,0.854l75.115-8.707L859.343,784.87z"/><path fill="#000015" d="M887.216,807.486c-2.857-0.102-75.201,0.852-75.201,0.852l75.113-8.708L887.216,807.486z"/><path fill="#000015" d="M857.307,829.691c-2.633,1.112-67.824,32.498-67.824,32.498l64.434-39.583L857.307,829.691z"/><path fill="#000015" d="M870.924,853.581c-1.643,2.111-40.506,57.472-40.506,57.472l34.503-61.702L870.924,853.581z"/><path fill="#000015" d="M899.706,868.503c-1.639,2.111-40.507,57.469-40.507,57.469l34.502-61.701L899.706,868.503z"/><path fill="#000015" d="M994.055,847.641c2.344,1.643,63.527,40.253,63.527,40.253l-67.734-33.614L994.055,847.641z"/><path fill="#000015" d="M968.332,860.257c1.989,2.054,54.856,51.45,54.856,51.45l-60.233-45.718L968.332,860.257z"/><path fill="#000015" d="M1000.047,815.399c2.857,0.103,75.203-0.854,75.203-0.854l-75.115,8.71L1000.047,815.399z"/><path fill="#000015" d="M972.178,792.784c2.853,0.103,75.199-0.852,75.199-0.852l-75.114,8.708L972.178,792.784z"/><path fill="#000015" d="M1002.082,770.579c2.635-1.111,67.824-32.495,67.824-32.495l-64.431,39.582L1002.082,770.579z"/><path fill="#000015" d="M988.469,746.689c1.638-2.111,40.5-57.472,40.5-57.472l-34.497,61.702L988.469,746.689z"/><path fill="#000015" d="M959.684,731.768c1.639-2.108,40.505-57.47,40.505-57.47l-34.501,61.701L959.684,731.768z"/><path fill="#000015" d="M906.854,790.367c-0.544,0-0.99-0.436-1-0.981c-0.121-6.621-0.092-12.801,0.084-18.366 c0.017-0.541,0.461-0.969,0.998-0.969c0.011,0,0.021,0,0.033,0.001c0.551,0.017,0.984,0.479,0.967,1.03 c-0.174,5.533-0.201,11.68-0.082,18.267c0.01,0.553-0.43,1.009-0.981,1.019C906.865,790.367,906.859,790.367,906.854,790.367z"/><path fill="#000015" d="M910.638,850.556c-0.509,0-0.944-0.387-0.994-0.904c-1.011-10.473-1.834-20.517-2.447-29.853 c-0.036-0.551,0.382-1.027,0.933-1.063c0.537-0.024,1.027,0.381,1.063,0.933c0.611,9.315,1.433,19.339,2.441,29.792 c0.054,0.55-0.35,1.038-0.899,1.091C910.701,850.554,910.67,850.556,910.638,850.556z"/><path fill="#000015" d="M877.529,855.783c-0.339,0-0.67-0.173-0.857-0.484c-1.901-3.158-3.567-6.608-4.953-10.254 c-0.196-0.517,0.063-1.094,0.579-1.29c0.518-0.196,1.095,0.063,1.29,0.579c1.344,3.535,2.958,6.877,4.797,9.934 c0.285,0.474,0.133,1.088-0.341,1.372C877.883,855.737,877.705,855.783,877.529,855.783z"/><path fill="#000015" d="M872.653,845.689c-0.403,0-0.783-0.245-0.935-0.646c-1.41-3.715-2.584-7.763-3.488-12.031 c-0.114-0.54,0.231-1.071,0.771-1.186c0.538-0.114,1.071,0.231,1.186,0.771c0.883,4.168,2.027,8.116,3.4,11.736 c0.196,0.516-0.063,1.094-0.58,1.289C872.892,845.669,872.771,845.689,872.653,845.689z"/><path fill="#000015" d="M867.354,791.415c-0.024,0-0.05-0.001-0.074-0.003c-0.551-0.04-0.965-0.52-0.924-1.07 c0.315-4.271,0.757-8.794,1.313-13.444c0.243-2.015,0.56-4.046,0.94-6.036c0.104-0.542,0.628-0.896,1.171-0.794 c0.542,0.104,0.897,0.628,0.794,1.171c-0.373,1.944-0.682,3.93-0.919,5.898c-0.553,4.619-0.991,9.111-1.305,13.352 C868.311,791.015,867.872,791.415,867.354,791.415z"/><path fill="#000015" d="M880.569,743.651c-0.176,0-0.354-0.046-0.515-0.144c-0.474-0.284-0.626-0.898-0.341-1.372 c9.005-14.961,19.394-22.833,19.831-23.161c0.443-0.33,1.068-0.239,1.399,0.201c0.331,0.442,0.241,1.068-0.2,1.399 c-0.104,0.079-10.525,7.987-19.317,22.592C881.239,743.479,880.908,743.651,880.569,743.651z"/><path fill="#000015" d="M870.923,875.96c-0.204,0-0.411-0.063-0.589-0.192c-0.934-0.681-9.364-6.987-17.938-18.577 c-0.329-0.444-0.235-1.07,0.209-1.398c0.445-0.33,1.07-0.235,1.398,0.209c8.396,11.351,16.602,17.488,17.51,18.151 c0.445,0.325,0.544,0.951,0.218,1.397C871.536,875.817,871.231,875.96,870.923,875.96z"/><path fill="#000015" d="M847.159,848.41c-0.345,0-0.681-0.179-0.866-0.498c-5.14-8.864-8.674-18.217-10.505-27.798 c-0.104-0.542,0.252-1.066,0.794-1.17c0.538-0.099,1.066,0.251,1.171,0.795c1.788,9.359,5.244,18.501,10.271,27.169 c0.277,0.479,0.114,1.09-0.363,1.367C847.502,848.367,847.329,848.41,847.159,848.41z"/><path fill="#000015" d="M836.539,790.396c-0.051,0-0.104-0.004-0.155-0.012c-0.546-0.086-0.919-0.597-0.834-1.143 c1.081-6.91,2.812-13.623,5.144-19.952c0.191-0.518,0.766-0.782,1.284-0.593c0.519,0.191,0.783,0.766,0.593,1.284 c-2.287,6.206-3.984,12.79-5.044,19.569C837.449,790.043,837.023,790.396,836.539,790.396z"/><path fill="#000015" d="M848.868,755.253c-0.171,0-0.345-0.044-0.503-0.137c-0.478-0.278-0.638-0.891-0.359-1.367 c9.583-16.413,20.509-24.022,20.97-24.338c0.456-0.313,1.077-0.197,1.39,0.258s0.197,1.078-0.258,1.391 c-0.109,0.075-11.033,7.698-20.375,23.697C849.547,755.075,849.212,755.253,848.868,755.253z"/><path fill="#000015" d="M948.711,819.901c-0.034,0-0.068-0.002-0.104-0.005c-0.55-0.058-0.949-0.549-0.893-1.098 c0.723-6.992,0.938-14.941,0.643-23.626c-0.02-0.552,0.413-1.015,0.965-1.033c0.531-0.055,1.016,0.413,1.033,0.965 c0.3,8.775,0.081,16.816-0.65,23.899C949.651,819.519,949.217,819.901,948.711,819.901z"/><path fill="#000015" d="M948.396,780.908c-0.512,0-0.948-0.392-0.994-0.911c-0.915-10.276-2.404-21.317-4.427-32.819 c-0.095-0.544,0.269-1.063,0.813-1.158c0.539-0.088,1.063,0.268,1.158,0.813c2.032,11.557,3.528,22.655,4.448,32.987 c0.049,0.551-0.357,1.036-0.907,1.085C948.457,780.907,948.427,780.908,948.396,780.908z"/><path fill="#000015" d="M941.659,735.896c-0.465,0-0.882-0.326-0.979-0.8c-1.303-6.362-2.26-10.274-2.269-10.313 c-0.132-0.536,0.196-1.078,0.732-1.209c0.534-0.138,1.079,0.196,1.209,0.732c0.01,0.039,0.976,3.984,2.286,10.39 c0.11,0.541-0.239,1.069-0.779,1.18C941.793,735.89,941.726,735.896,941.659,735.896z"/><path fill="#000015" d="M988.157,840.37c-0.108,0-0.218-0.018-0.327-0.055c-0.521-0.18-0.798-0.749-0.618-1.271 c1.9-5.51,3.353-11.266,4.317-17.108c0.088-0.545,0.595-0.919,1.149-0.823c0.545,0.09,0.913,0.604,0.823,1.149 c-0.982,5.953-2.463,11.818-4.4,17.435C988.96,840.11,988.572,840.37,988.157,840.37z"/><path fill="#000015" d="M994.015,806.632c0,0-0.013,0-0.02,0c-0.553-0.011-0.991-0.468-0.98-1.02 c0.117-5.938-0.212-12.04-0.979-18.134c-0.069-0.548,0.319-1.048,0.867-1.117c0.559-0.067,1.048,0.319,1.117,0.867 c0.778,6.189,1.114,12.389,0.994,18.423C995.004,806.197,994.559,806.632,994.015,806.632z"/><path fill="#000015" d="M989.184,769.112c-0.438,0-0.841-0.291-0.962-0.735c-0.947-3.447-2.018-6.803-3.183-9.975 c-0.191-0.519,0.074-1.093,0.594-1.283c0.52-0.191,1.094,0.076,1.283,0.594c1.184,3.224,2.272,6.634,3.232,10.135 c0.147,0.532-0.165,1.083-0.699,1.229C989.361,769.101,989.272,769.112,989.184,769.112z"/><path fill="#000015" d="M985.978,759.058c-0.407,0-0.79-0.251-0.938-0.655c-1.247-3.397-2.154-5.327-2.163-5.347 c-0.235-0.499-0.022-1.095,0.478-1.331c0.501-0.237,1.095-0.022,1.33,0.477c0.039,0.081,0.951,2.021,2.232,5.512 c0.19,0.519-0.075,1.094-0.594,1.283C986.208,759.038,986.092,759.058,985.978,759.058z"/><path fill="#57f697" d="M981.561,642.336c0.362,52.07-42.794,67.114-52.241,69.789c-1.165,0.329-1.81,0.469-1.81,0.469 s-2.861-11.666,0.912-27.683c0.407-1.685,0.865-3.397,1.431-5.173c5.377-17.201,18.71-38.141,50.072-55.058 C981.01,630.985,981.531,636.864,981.561,642.336z"/><path fill="#00c268" d="M929.853,679.738c0.736,3.789,1.634,7.436,2.499,8.819c2.108,3.365,14.685-11.76,33.017-19.92 c18.347-8.159,13.032-12.876,14.571-21.255c0.349-1.902,0.931-3.585,1.621-5.047c0.362,52.07-42.794,67.114-52.241,69.789 c-0.348-8.004-0.66-18.537-0.897-27.214L929.853,679.738z"/><path fill="#57f697" d="M969.58,685.475c-1.54,5.174-3.535,9.418-5.831,12.894c-13.349,20.28-36.506,14.432-36.506,14.432 s0.032-0.126,0.096-0.363C928.201,709.293,935.609,686.64,969.58,685.475z"/><path fill="#00c268" d="M963.749,698.368c-13.349,20.28-36.506,14.432-36.506,14.432s0.032-0.126,0.096-0.363 c2.389-2.938,8.098-6.303,21.065-8.772C955.76,702.267,960.572,700.378,963.749,698.368z"/><path fill="#57f697" d="M928.814,713.385c0,0-31.244-10.868-35.991-53.012c-0.691-6.122-0.827-12.889-0.225-20.38 c15.594,6.677,25.245,15.444,31.092,24.594C938.502,687.772,928.814,713.385,928.814,713.385z"/><path fill="#00c268" d="M928.814,713.385c0,0-31.244-10.868-35.991-53.012c13.65,6.524,25.595,37.409,30.152,28.899 c2.774-5.168,1.949-16.089,0.715-24.686C938.502,687.772,928.814,713.385,928.814,713.385z"/><path fill="#57f697" d="M927.606,710.678c0,0-8.54,1.949-20.489-0.63c-14.383-3.097-33.723-12.797-48.97-40.436 c-0.486-0.895-0.991-1.825-1.481-2.767C916.96,657.461,927.606,710.678,927.606,710.678z"/><path fill="#00c268" d="M907.117,710.048c-14.383-3.097-33.723-12.797-48.97-40.436c4.355-1.226,11.808-1.715,23.11,2.391 c20.186,7.342,6.758,12.576,18.443,21.491C905.689,698.052,907.135,704.687,907.117,710.048z"/><path fill="#57f697" d="M926.08,711.08c0,0-2.222,4.862-7.906,9.702c-6.836,5.825-18.714,11.606-37.773,8.748 c-0.615-0.095-1.254-0.195-1.893-0.309C896.321,696.501,926.08,711.08,926.08,711.08z"/><path fill="#00c268" d="M918.174,720.782c-6.836,5.825-18.714,11.606-37.773,8.748c1.02-2.566,3.546-6.36,9.731-10.319 c11.047-7.065,8.604,1.387,17.264-0.971C911.825,717.025,915.579,718.784,918.174,720.782z"/><path fill="#00c268" d="M990.899,954.146c-0.216,0-0.431-0.069-0.614-0.212l-16.867-13.169l-16.874,13.169 c-0.361,0.283-0.869,0.283-1.23,0l-16.873-13.169l-16.88,13.169c-0.361,0.283-0.869,0.283-1.23,0l-16.873-13.169l-16.867,13.169 c-0.361,0.283-0.869,0.283-1.23,0l-17.484-13.649c-0.436-0.34-0.513-0.968-0.174-1.403c0.34-0.437,0.967-0.514,1.404-0.173 l16.869,13.169l16.867-13.169c0.361-0.283,0.869-0.283,1.23,0l16.873,13.169l16.88-13.169c0.361-0.283,0.869-0.283,1.23,0 l16.873,13.169l16.874-13.169c0.361-0.285,0.869-0.283,1.23,0l17.482,13.649c0.436,0.34,0.513,0.968,0.173,1.403 C991.491,954.015,991.197,954.146,990.899,954.146z"/><path fill="#00c268" d="M990.899,971.44c-0.216,0-0.431-0.069-0.614-0.212l-16.867-13.17l-16.874,13.17 c-0.361,0.283-0.869,0.283-1.23,0l-16.873-13.17l-16.88,13.17c-0.361,0.283-0.869,0.283-1.23,0l-16.873-13.17l-16.867,13.17 c-0.363,0.283-0.871,0.282-1.23,0l-17.484-13.65c-0.436-0.34-0.513-0.968-0.174-1.403c0.34-0.436,0.967-0.514,1.404-0.173 l16.869,13.17l16.867-13.17c0.359-0.283,0.868-0.283,1.23,0l16.873,13.17l16.88-13.17c0.361-0.283,0.869-0.283,1.23,0l16.873,13.17 l16.874-13.17c0.361-0.284,0.869-0.283,1.23,0l17.482,13.65c0.436,0.34,0.513,0.968,0.173,1.403 C991.491,971.309,991.197,971.44,990.899,971.44z"/><path fill="#00c268" d="M990.899,984.019c-0.216,0-0.431-0.069-0.614-0.212l-16.867-13.171l-16.874,13.171 c-0.361,0.283-0.869,0.283-1.23,0l-16.873-13.171l-16.88,13.171c-0.361,0.283-0.869,0.283-1.23,0l-16.873-13.171l-16.867,13.171 c-0.361,0.283-0.869,0.283-1.23,0l-17.484-13.651c-0.436-0.34-0.513-0.968-0.174-1.403c0.34-0.436,0.967-0.515,1.404-0.173 l16.869,13.171l16.867-13.171c0.359-0.283,0.868-0.283,1.23,0l16.873,13.171l16.88-13.171c0.361-0.283,0.869-0.283,1.23,0 l16.873,13.171l16.874-13.171c0.361-0.284,0.869-0.283,1.23,0l17.482,13.651c0.436,0.34,0.513,0.968,0.173,1.403 C991.491,983.887,991.197,984.019,990.899,984.019z"/><path fill="#FFF" d="M923.188,876.46c-0.595,0-1.158-0.356-1.393-0.943c-1.246-3.116-2.355-6.846-3.297-11.085 c-0.179-0.809,0.331-1.61,1.14-1.789c0.808-0.185,1.609,0.33,1.789,1.139c0.906,4.082,1.968,7.655,3.153,10.622 c0.308,0.769-0.066,1.642-0.836,1.949C923.562,876.426,923.373,876.46,923.188,876.46z"/><path fill="#FFF" d="M917.31,848.731c-0.757,0-1.407-0.571-1.489-1.34c-0.253-2.36-0.481-4.868-0.68-7.456 c-0.063-0.826,0.556-1.547,1.382-1.61c0.823-0.067,1.546,0.556,1.61,1.382c0.195,2.558,0.421,5.035,0.67,7.364 c0.089,0.824-0.508,1.563-1.331,1.651C917.417,848.729,917.363,848.731,917.31,848.731z"/><path fill="#FFF" d="M915.86,827.142c-0.805,0-1.471-0.639-1.498-1.449c-0.075-2.227-0.137-4.457-0.179-6.692 c-0.016-0.828,0.644-1.513,1.472-1.528c0.01,0,0.02,0,0.028,0c0.814,0,1.484,0.653,1.5,1.472c0.042,2.22,0.102,4.437,0.177,6.647 c0.028,0.828-0.62,1.521-1.448,1.55C915.895,827.142,915.878,827.142,915.86,827.142z"/><path fill="#FFF" d="M915.652,803.195c-0.006,0-0.013,0-0.02,0c-0.828-0.011-1.491-0.69-1.48-1.52 c0.019-1.455,0.043-2.9,0.071-4.329c0.017-0.818,0.685-1.471,1.499-1.471c0.01,0,0.021,0,0.031,0 c0.828,0.017,1.486,0.701,1.47,1.53c-0.028,1.422-0.053,2.859-0.071,4.309C917.142,802.536,916.472,803.195,915.652,803.195z"/><path fill="#FFF" d="M916.561,776.089c-0.025,0-0.052-0.001-0.078-0.002c-0.827-0.043-1.465-0.748-1.421-1.575 c0.13-2.517,0.267-4.887,0.399-7.086c0.05-0.826,0.745-1.45,1.588-1.406c0.827,0.05,1.456,0.761,1.406,1.588 c-0.133,2.191-0.268,4.552-0.397,7.059C918.016,775.467,917.354,776.089,916.561,776.089z"/><path fill="#FFF" d="M917.684,758.438c-0.039,0-0.077-0.001-0.116-0.004c-0.826-0.063-1.444-0.784-1.382-1.61 c0.295-3.842,0.494-6.04,0.494-6.04c0.075-0.826,0.812-1.425,1.63-1.358c0.825,0.075,1.434,0.805,1.358,1.63 c-0.002,0.006-0.199,2.188-0.49,5.997C919.117,757.84,918.46,758.438,917.684,758.438z"/><path fill="#FFF" d="M876.094,782.06c-0.057,0-0.114-0.003-0.172-0.01c-0.822-0.094-1.414-0.837-1.32-1.66 c0.343-3.014,0.761-6.103,1.242-9.182c0.129-0.818,0.893-1.371,1.715-1.25c0.818,0.129,1.378,0.896,1.25,1.715 c-0.476,3.037-0.889,6.084-1.227,9.057C877.495,781.494,876.846,782.06,876.094,782.06z"/><path fill="#FFF" d="M879.354,761.956c-0.104,0-0.21-0.011-0.315-0.033c-0.811-0.174-1.327-0.971-1.154-1.78 c1.068-4.989,1.89-7.816,1.925-7.935c0.231-0.795,1.07-1.25,1.858-1.019c0.797,0.231,1.253,1.064,1.021,1.859 c-0.008,0.028-0.827,2.853-1.869,7.721C880.668,761.475,880.046,761.956,879.354,761.956z"/><path fill="#FFF" d="M981.34,768.487c-0.646,0-1.244-0.422-1.438-1.073c-0.931-3.14-2.105-6.347-3.492-9.533 c-0.331-0.76,0.017-1.644,0.776-1.974c0.763-0.332,1.644,0.018,1.974,0.776c1.436,3.298,2.653,6.621,3.619,9.877 c0.235,0.795-0.218,1.629-1.012,1.865C981.625,768.468,981.48,768.487,981.34,768.487z"/><path fill="#FFF" d="M973.231,749.651c-0.523,0-1.031-0.274-1.308-0.763c-2.023-3.585-3.553-5.756-3.568-5.777 c-0.478-0.677-0.318-1.612,0.358-2.091c0.675-0.479,1.611-0.32,2.09,0.356c0.065,0.093,1.628,2.306,3.733,6.037 c0.407,0.722,0.152,1.637-0.568,2.044C973.734,749.589,973.48,749.651,973.231,749.651z"/><path fill="#FFF" d="M919.391,706.647c-0.716,0-1.349-0.514-1.477-1.242c-0.44-2.531-1.662-5.483-3.633-8.773 c-0.425-0.711-0.193-1.632,0.518-2.058c0.709-0.426,1.631-0.195,2.058,0.517c2.159,3.607,3.509,6.904,4.014,9.799 c0.143,0.816-0.404,1.594-1.22,1.735C919.563,706.641,919.477,706.647,919.391,706.647z"/><path fill="#FFF" d="M909.081,688.431c-0.428,0-0.854-0.182-1.149-0.535c-1.244-1.482-2.602-3.007-4.033-4.53 c-0.568-0.604-0.538-1.553,0.065-2.12c0.604-0.568,1.554-0.539,2.12,0.065c1.471,1.564,2.865,3.131,4.145,4.655 c0.533,0.635,0.45,1.581-0.184,2.113C909.764,688.315,909.421,688.431,909.081,688.431z"/><path fill="#FFF" d="M954.623,649.107c-0.359,0-0.719-0.128-1.006-0.387c-0.614-0.556-0.663-1.504-0.107-2.118 c4.631-5.129,9.773-9.449,15.283-12.844c0.707-0.432,1.63-0.215,2.064,0.49c0.435,0.706,0.215,1.63-0.49,2.064 c-5.269,3.244-10.19,7.383-14.631,12.299C955.44,648.94,955.032,649.107,954.623,649.107z"/><path fill="#FFF" d="M943.671,664.673c-0.239,0-0.48-0.057-0.705-0.177c-0.731-0.39-1.008-1.298-0.618-2.029 c2.069-3.879,4.527-7.665,7.309-11.255c0.506-0.654,1.449-0.774,2.104-0.267c0.653,0.507,0.774,1.449,0.267,2.104 c-2.677,3.456-5.043,7.1-7.032,10.829C944.726,664.385,944.207,664.673,943.671,664.673z"/><path fill="#FFF" d="M939.385,675.798c-0.034,0-0.068-0.001-0.104-0.003c-0.825-0.056-1.451-0.771-1.396-1.598 c0.096-1.408,0.821-3.803,1.99-6.57c0.322-0.763,1.203-1.119,1.966-0.798c0.763,0.322,1.12,1.202,0.798,1.966 c-1.212,2.868-1.704,4.775-1.759,5.604C940.826,675.19,940.166,675.798,939.385,675.798z"/><path fill="#fce6d9" d="M880.568,987.911c-0.749,0-1.396-0.561-1.487-1.322l-0.517-4.337c-0.099-0.823,0.489-1.569,1.312-1.667 c0.823-0.098,1.569,0.49,1.667,1.312l0.517,4.337c0.099,0.823-0.489,1.569-1.312,1.667 C880.688,987.908,880.628,987.911,880.568,987.911z"/><path fill="#fce6d9" d="M877.827,965.539c-0.75,0-1.397-0.561-1.487-1.323l-2.242-18.924c-0.098-0.823,0.49-1.569,1.313-1.666 c0.836-0.106,1.568,0.49,1.666,1.313l2.242,18.924c0.098,0.823-0.49,1.569-1.313,1.666 C877.945,965.536,877.885,965.539,877.827,965.539z"/><path fill="#FFF" d="M873.808,930.854c-0.75,0-1.397-0.561-1.487-1.323l-1.156-9.759c-0.098-0.823,0.49-1.569,1.313-1.666 c0.832-0.111,1.569,0.489,1.666,1.313l1.156,9.759c0.098,0.823-0.49,1.569-1.313,1.666 C873.926,930.852,873.865,930.854,873.808,930.854z"/><path fill="#07183D" d="M840.822,500.763h-12.498v-12.5c0-1.604-1.302-2.904-2.903-2.904c-1.607,0-2.907,1.301-2.907,2.904v12.5 h-12.5c-1.604,0-2.907,1.303-2.907,2.906c0,1.606,1.304,2.906,2.907,2.906h12.5v12.501c0,1.603,1.3,2.906,2.907,2.906 c1.602,0,2.903-1.304,2.903-2.906v-12.501h12.498c1.606,0,2.907-1.3,2.907-2.906C843.729,502.065,842.429,500.763,840.822,500.763z"/><path fill="#07183D" d="M909.241,484.143H896.74v-12.5c0-1.604-1.298-2.905-2.902-2.905c-1.605,0-2.906,1.301-2.906,2.905v12.5 h-12.498c-1.604,0-2.908,1.3-2.908,2.904c0,1.606,1.304,2.907,2.908,2.907h12.498v12.497c0,1.606,1.301,2.907,2.906,2.907 c1.604,0,2.902-1.301,2.902-2.907v-12.497h12.501c1.606,0,2.907-1.301,2.907-2.907 C912.148,485.442,910.848,484.143,909.241,484.143z"/><path fill="#07183D" d="M466.533,92.705h-12.501v-12.5c0-1.604-1.298-2.905-2.902-2.905c-1.605,0-2.905,1.301-2.905,2.905v12.5 h-12.499c-1.604,0-2.909,1.3-2.909,2.904c0,1.606,1.305,2.907,2.909,2.907h12.499v12.497c0,1.606,1.3,2.907,2.905,2.907 c1.604,0,2.902-1.301,2.902-2.907V98.517h12.501c1.606,0,2.907-1.301,2.907-2.907C469.44,94.005,468.14,92.705,466.533,92.705z"/><path fill="#fce6d9" d="M907.917,966.497h-9.229v-9.229c0-1.184-0.961-2.145-2.146-2.145c-1.183,0-2.146,0.961-2.146,2.145v9.229 h-9.227c-1.186,0-2.148,0.964-2.148,2.147c0,1.185,0.963,2.146,2.148,2.146h9.227v9.228c0,1.184,0.964,2.145,2.146,2.145 c1.185,0,2.146-0.961,2.146-2.145v-9.228h9.229c1.187,0,2.146-0.962,2.146-2.146C910.063,967.461,909.104,966.497,907.917,966.497z"/><path fill="#07183D" d="M323.22,277.722h-12.5v-12.5c0-1.602-1.303-2.904-2.904-2.904c-1.605,0-2.908,1.303-2.908,2.904v12.5 h-12.501c-1.602,0-2.903,1.303-2.903,2.908c0,1.604,1.302,2.904,2.903,2.904h12.501v12.501c0,1.604,1.303,2.906,2.908,2.906 c1.602,0,2.904-1.303,2.904-2.906v-12.501h12.5c1.603,0,2.903-1.301,2.903-2.904C326.123,279.024,324.822,277.722,323.22,277.722z"/><path fill="#07183D" d="M402.263,265.559h-12.502v-12.501c0-1.603-1.302-2.905-2.903-2.905c-1.606,0-2.907,1.303-2.907,2.905 v12.501h-12.499c-1.607,0-2.907,1.302-2.907,2.907c0,1.603,1.3,2.905,2.907,2.905h12.499v12.5c0,1.603,1.301,2.905,2.907,2.905 c1.602,0,2.903-1.303,2.903-2.905v-12.5h12.502c1.6,0,2.903-1.303,2.903-2.905C405.166,266.86,403.862,265.559,402.263,265.559z"/><path fill="#07183D" d="M338.729,395.849H328.44V385.56c0-1.318-1.074-2.389-2.392-2.389c-1.322,0-2.391,1.07-2.391,2.389v10.289 h-10.29c-1.319,0-2.393,1.072-2.393,2.391c0,1.321,1.073,2.393,2.393,2.393h10.29v10.289c0,1.318,1.068,2.389,2.391,2.389 c1.317,0,2.392-1.07,2.392-2.389v-10.289h10.288c1.32,0,2.39-1.071,2.39-2.393C341.118,396.921,340.049,395.849,338.729,395.849z"/><path fill="#07183D" d="M799.564,649.823h-10.288v-10.287c0-1.32-1.071-2.392-2.391-2.392c-1.322,0-2.392,1.071-2.392,2.392v10.287 h-10.29c-1.32,0-2.391,1.071-2.391,2.393c0,1.318,1.07,2.392,2.391,2.392h10.29v10.289c0,1.317,1.069,2.39,2.392,2.39 c1.319,0,2.391-1.072,2.391-2.39v-10.289h10.288c1.319,0,2.391-1.073,2.391-2.392C801.955,650.895,800.884,649.823,799.564,649.823 z"/><path fill="#07183D" d="M1037.141,587.146h-10.289v-10.289c0-1.318-1.072-2.39-2.39-2.39c-1.322,0-2.394,1.071-2.394,2.39v10.289 h-10.287c-1.319,0-2.392,1.071-2.392,2.391c0,1.32,1.072,2.393,2.392,2.393h10.287v10.287c0,1.32,1.071,2.392,2.394,2.392 c1.317,0,2.39-1.071,2.39-2.392v-10.287h10.289c1.317,0,2.389-1.072,2.389-2.393 C1039.529,588.217,1038.458,587.146,1037.141,587.146z"/><path fill="#07183D" d="M357.935,136.819h-18.582V118.24c0-2.383-1.935-4.319-4.317-4.319c-2.386,0-4.32,1.937-4.32,4.319v18.579 h-18.581c-2.386,0-4.32,1.937-4.32,4.32c0,2.386,1.935,4.32,4.32,4.32h18.581v18.584c0,2.382,1.935,4.317,4.32,4.317 c2.383,0,4.317-1.936,4.317-4.317V145.46h18.582c2.384,0,4.319-1.935,4.319-4.32C362.254,138.756,360.318,136.819,357.935,136.819z"/><path fill="#07183D" d="M535.828,400.822h-18.582v-18.579c0-2.383-1.935-4.319-4.317-4.319c-2.386,0-4.32,1.937-4.32,4.319v18.579 h-18.581c-2.386,0-4.32,1.937-4.32,4.32c0,2.386,1.935,4.32,4.32,4.32h18.581v18.584c0,2.382,1.935,4.317,4.32,4.317 c2.383,0,4.317-1.936,4.317-4.317v-18.584h18.582c2.384,0,4.319-1.935,4.319-4.32C540.147,402.759,538.212,400.822,535.828,400.822 z"/><path fill="#57f697" d="M721.412,1114.171c-117.492-25.366-108.146-18.692-114.819-42.723 c-6.677-24.033,36.051-29.372,30.71-48.063c-3.505-12.207-55.438-43.633-93.244-67.531c-20.057-12.71-36.155-23.261-38.936-27.744 c-8.012-12.871-205.607-86.303-205.607-86.303s173.563-186.915,260.35-193.593c36.793,16.212,68.544,65.021,94.525,121.654 c15.514,33.806,28.945,70.39,40.185,104.489c3.795,11.457,7.315,22.644,10.573,33.323c15.035,49.105,24.65,87.958,28.277,97.011 c10.686,26.702,7.08,35.861,34.904,38.05c27.85,2.218,61.228,20.695,67.902,34.047 C842.908,1090.138,838.899,1139.537,721.412,1114.171z"/><path fill="#00c268" d="M705.148,907.681c-41.255-1.069-125.471-11.749-146.115-17.808c-27.207-8.011-196.77-53.645-196.77-53.645 s-9.344-21.125,25.367-43.821c34.717-22.696,134.848,4.008,164.219,0c25.717-3.524,88.227-0.88,102.541-22.539 c15.514,33.806,28.945,70.39,40.185,104.489C698.37,885.814,701.891,897.001,705.148,907.681z"/><path fill="#000015" d="M721.412,1114.171c-117.492-25.366-108.146-18.692-114.819-42.723 c-6.677-24.033,36.051-29.372,30.71-48.063c-3.505-12.207-55.438-43.633-93.244-67.531c-0.834-8.465-1.555-13.914-1.555-13.914 l152.071-67.582c21.15,64.113,34.445,119.308,38.851,130.334c10.686,26.702,7.08,35.861,34.904,38.05 c27.85,2.218,61.228,20.695,67.902,34.047C842.908,1090.138,838.899,1139.537,721.412,1114.171z"/><path fill="#000015" d="M162.057,593.129c0,0-108.205,1.681-108.205,85.794s-7.503,233.405,63.258,282.805 c70.762,49.397,180.096-99.896,236.17-110.575c56.074-10.681,18.581-66.262,33.048-81.284 c41.152-42.723-31.948-139.25-41.417-151.267c-9.471-12.014-27.065-25.237-70.002-26.225 C231.975,591.39,162.057,593.129,162.057,593.129z"/><path fill="#000015" d="M167.574,400.979c0,0-36.283-78.533,37.146-89.214c73.432-10.679,96.131,64.941,57.412,89.214 C223.414,425.25,167.574,400.979,167.574,400.979z"/><path fill="#000015" d="M181.743,534.966c0,0-89.398-46.844-27.522-133.987c39.82-56.076,126.837-21.525,137.339,24.439 c2.349,10.268,21.407,69.721-51.552,105.643C220.109,540.857,181.743,534.966,181.743,534.966z"/><path fill="#fce6d9" d="M273.046,484.83c0,32.813-26.6,59.413-59.41,59.413c-11.735,0-22.676-3.403-31.893-9.277 c-16.544-10.545-27.522-29.062-27.522-50.136c0-32.811,26.604-59.412,59.415-59.412C246.446,425.418,273.046,452.02,273.046,484.83 z"/><ellipse cx="154.222" cy="478.155" fill="#fce6d9" rx="13.353" ry="19.357"/><ellipse cx="267.708" cy="478.155" fill="#fce6d9" rx="13.35" ry="19.357"/><path fill="#000015" d="M189.41,511.933c-15.408,0-27.943-12.535-27.943-27.943c0-15.404,12.535-27.938,27.943-27.938 s27.938,12.534,27.938,27.938C217.349,499.397,204.818,511.933,189.41,511.933z M189.41,459.509 c-13.502,0-24.482,10.985-24.482,24.48c0,13.501,10.98,24.483,24.482,24.483c13.498,0,24.477-10.982,24.477-24.483 C213.887,470.494,202.908,459.509,189.41,459.509z"/><path fill="#000015" d="M242.844,510.64c-14.107,0-25.581-11.479-25.581-25.59c0-14.107,11.474-25.585,25.581-25.585 c14.111,0,25.592,11.478,25.592,25.585C268.436,499.161,256.955,510.64,242.844,510.64z M242.844,462.924 c-12.199,0-22.122,9.926-22.122,22.126c0,12.203,9.923,22.131,22.122,22.131c12.204,0,22.131-9.928,22.131-22.131 C264.975,472.85,255.048,462.924,242.844,462.924z"/><polygon fill="#fce6d9" points="238.42 587.136 233.531 534.448 191.023 531.061 189.52 587.136"/><path fill="#fce6d9" d="M189.76,578.069c0,0-17.92,12.801-27.703,15.06c-9.78,2.258,46.267,42.882,54.921,47.396 c8.653,4.514,57.931-48.148,57.931-48.148s-28.216-2.258-42.506-18.811C218.11,557.018,189.76,578.069,189.76,578.069z"/><path fill="#000015" d="M180.689,406.556c0,0-45.413,32.698-39.82,65.091c2.19,12.662,134.16,29.739,142.67-1.003 c12.382-44.734-27.658-44.961-35.902-59.646C239.389,396.311,180.689,406.556,180.689,406.556z"/><path fill="#57f697" d="M976.74,1088.244c-81.283-20.803-61.176-13.085-69.826-16.821c-5.423-2.352-50.494-15.916-85.236-25.582 c-3.016,0-6.166-0.054-9.477-0.16c-92.148-2.676-290.653-39.706-304.406-44.994c-17.357-6.674-159.734,71.615-269.457,45.154 C128.62,1019.377,84.537,933.608,81.891,914.412c0,0,6.41-3.444,18.073-9.137c58.962-28.702,251.966-114.229,429.191-98.422 c59.679,6.595,211.481,76.185,300.509,119.013c1.735,0.825,3.417,1.652,5.068,2.457c0.086-0.136,0.113-0.214,0.113-0.214 l28.25,12.2c0,0,50.494,23.528,62.107,29.908c11.592,6.383-6.621,7.398,58.078,8.01c64.701,0.617,106.195,13.781,114.768,41.414 C1106.592,1047.283,1058.024,1109.019,976.74,1088.244z"/><path fill="#000015" d="M976.74,1088.244c-81.283-20.803-61.176-13.085-69.826-16.821c-5.423-2.352-50.494-15.916-85.236-25.582 c-3.016,0-6.166-0.054-9.477-0.16c7.316-3.126,14.635-84.621,17.463-119.814c1.735,0.825,3.417,1.652,5.068,2.457 c0.086-0.136,0.113-0.214,0.113-0.214l28.25,12.2c0,0,50.494,23.528,62.107,29.908c11.592,6.383-6.621,7.398,58.078,8.01 c64.701,0.617,106.195,13.781,114.768,41.414C1106.592,1047.283,1058.024,1109.019,976.74,1088.244z"/><polygon fill="#000015" points="306.483 789.318 243.336 905.275 451.381 905.275 484.048 789.318"/><polygon fill="#000015" points="475.393 779.253 443.09 897.857 537.826 772.338 547.192 670.806"/><polygon fill="#2F6291" points="304.623 781.896 241.475 897.857 443.09 897.857 475.75 781.896"/><path fill="#00c268" d="M812.201,1045.681c-92.148-2.676-290.653-39.706-304.406-44.994 c-17.357-6.674-159.734,71.615-269.457,45.154C128.62,1019.377,84.537,933.608,81.891,914.412c0,0,6.41-3.444,18.073-9.137 c7.798,4.167,15.757,10.682,23.317,20.591c34.711,45.448,84.751,83.737,115.139,83.284c30.387-0.453,183.928-29.025,203.951-37.435 C462.398,963.302,795.004,1043.356,812.201,1045.681z"/><path fill="#fce6d9" d="M382.293,841.807c0,16.022-13.162,22.058-21.178,23.391c-8.01,1.336-45.582,7.317-69.56,19.572 c-23.976,12.231-173.565,51.512-221.682,20.506c-2.911-1.862-5.503-4.376-7.819-7.418c-36.348-47.374-7.853-227.052-7.853-227.052 s34.632,1.441,39.975,4.111c5.339,2.672,19.517,2.672,30.437,57.411c7.961,39.867,16.981,66.728,14.899,85.66 c-0.771,7.051-0.826,10.977,0.884,10.466c46.033-13.351,149.773,5.343,159.119,2.724c7.854-2.177,18.541-14.877,44.85-18.873 c4.992-0.761,10.545-1.207,16.75-1.207C400.025,811.098,382.293,825.785,382.293,841.807z"/><path fill="#fce6d9" d="M341.854,760.846c0,0-9.348,4.099-20.027,22.196c-10.681,18.098-14.463,26.019-2.884,23.357 c13.676-3.143,14.02-30.324,31.609-18.307c17.595,12.015,46.04,21.72,52.715,16.715c6.675-5.003,3.597-4.94,9.417-16.388 c2.121-4.174-12.087-19.804-29.443-27.574C365.887,753.075,341.854,760.846,341.854,760.846z"/><path fill="#000015" d="M140.396,828.454c-21.496,16.157-61.254,49.642-78.342,69.403c-36.348-47.374-7.853-227.052-7.853-227.052 s29.022-25.26,34.363-22.592c5.341,2.672,41.39,14.687,52.309,69.427C148.834,757.509,142.479,809.524,140.396,828.454z"/><path fill="#fce6d9" d="M327.555,806.399c6.465-10.241,9.344,4.698,9.344,12.711c0,8.01-27.971,17.118-27.971,17.118 L327.555,806.399z"/><path fill="#fce6d9" d="M346.512,781.988c0,0,1.676,3.703,3.139,5.526c1.459,1.827,20.758,13.384,26.577,17.407 c5.819,4.021,12.897,3.053,15.01,1.981c2.117-1.067-4.008-5.13-4.913-13.032c-0.905-7.901-17.228-16.479-17.228-16.479 L346.512,781.988z"/><path fill="#fce6d9" d="M336.898,824.569c0,0,9.272-12.559,11.123-12.752c1.854-0.188,30.311-0.856,43.659,0.281 c13.347,1.137,9.3,7.479,5.47,9.677c-3.584,2.053-18.471,1.569-20.305,1.569c-1.844,0-12.215,6.437-13.154,6.74 C362.75,830.392,336.898,824.569,336.898,824.569z"/><path fill="#fce6d9" d="M365.813,821.231c-0.117-0.308,14.283-0.309,26.844,2.449c12.557,2.759,15.622,3.384,16.543,3.678 c3.449,1.096,4.404,6.722-1.416,8.87c-5.82,2.145-22.552-2.088-26.231-3.751c-3.679-1.663-6.973-1.752-11.261-1.752 c-4.293,0-4.479-11.147-4.479-11.147"/><path fill="#fce6d9" d="M362.371,829.952c0,0,19.754-3.464,22.127,0.144c2.371,3.606,6.743,5.789,11.338,9.781 c4.595,3.993,9.804,6.959,5.824,9.046c-3.986,2.086-19.916-2.602-22.367-5.053c-2.447-2.451-11.648-6.026-13.48-6.689 C363.975,836.52,362.371,829.952,362.371,829.952z"/><path fill="#fce6d9" d="M361.12,836.229c0,0,22.621,10.09,26.831,13.46c4.209,3.374,8.938,2.146,7.885,5.212 c-1.053,3.062-4.374,5.754-11.641,3.674c-7.271-2.082-13.684,3.562-16.188,3.006c-2.503-0.555-11.69-2.395-11.999-5.456 c-0.303-3.062-1.839-5.185,0-7.189C357.847,846.933,361.12,836.229,361.12,836.229z"/><path fill="#000015" d="M154.221,489.676c-0.954,0-1.729-0.774-1.729-1.732c0-2.266-0.607-3.918-1.795-4.909 c-2.125-1.771-5.57-1.163-5.605-1.157c-0.938,0.164-1.844-0.445-2.02-1.384c-0.172-0.938,0.441-1.84,1.375-2.018 c0.209-0.036,5.051-0.925,8.444,1.88c2.032,1.682,3.063,4.232,3.063,7.588C155.954,488.901,155.179,489.676,154.221,489.676z"/><path fill="#000015" d="M273.046,489.676c-0.688,0-1.341-0.415-1.608-1.094c-1.039-2.613-0.534-4.593,0.068-5.791 c1.611-3.2,5.477-4.307,5.909-4.425c0.921-0.231,1.876,0.304,2.118,1.229c0.245,0.921-0.301,1.867-1.224,2.116 c-0.774,0.213-2.948,1.1-3.718,2.647c-0.415,0.831-0.391,1.795,0.063,2.947c0.352,0.889-0.082,1.896-0.973,2.245 C273.471,489.636,273.26,489.676,273.046,489.676z"/><path fill="#000015" d="M214.881,522.209c-0.732,0-1.446-0.075-2.127-0.23c-0.934-0.216-1.512-1.144-1.298-2.076 c0.217-0.931,1.155-1.511,2.077-1.299c2.66,0.62,6.922-0.958,8.146-3.007c0.332-0.559,0.558-1.271-0.348-2.307 c-4.348-4.969-5.08-20.271-5.152-21.999c-0.038-0.956,0.707-1.759,1.658-1.798c0.909-0.112,1.762,0.704,1.801,1.66 c0.174,4.356,1.289,16.423,4.299,19.859c1.705,1.95,1.965,4.268,0.714,6.364C222.957,520.21,218.694,522.209,214.881,522.209z"/><path fill="#000015" d="M211.176,546.256c-20.389,0-30.181-9.584-30.662-10.07c-0.672-0.678-0.668-1.772,0.011-2.447 c0.677-0.668,1.773-0.668,2.444,0.005l0,0c0.125,0.127,13.196,12.76,40.426,7.932c0.96-0.177,1.844,0.46,2.008,1.398 c0.167,0.941-0.458,1.842-1.4,2.006C219.334,545.909,215.063,546.256,211.176,546.256z"/><path fill="#000015" d="M391.241,808.634c-0.667,0-1.3-0.383-1.586-1.027c-0.063-0.146-6.501-14.553-14.359-24.379 c-0.592-0.745-0.47-1.836,0.278-2.432c0.744-0.599,1.834-0.474,2.429,0.271c8.139,10.183,14.55,24.527,14.815,25.135 c0.39,0.871-0.004,1.895-0.877,2.283C391.714,808.587,391.473,808.634,391.241,808.634z"/><path fill="#000015" d="M405.563,804.662c-0.715,0-1.384-0.448-1.634-1.159c-3.562-10.19-10.406-27.1-13.608-29.097 c-0.809-0.507-1.055-1.574-0.548-2.384c0.504-0.812,1.567-1.06,2.382-0.554c5.169,3.226,13.438,26.298,15.043,30.893 c0.314,0.902-0.158,1.89-1.061,2.204C405.948,804.632,405.755,804.662,405.563,804.662z"/><path fill="#000015" d="M392.656,825.412c-0.176,0-0.35-0.024-0.525-0.08c-0.248-0.076-25.07-7.833-36.326-2.969 c-0.885,0.378-1.898-0.026-2.271-0.901c-0.381-0.877,0.022-1.896,0.896-2.275c12.437-5.38,37.679,2.506,38.744,2.845 c0.915,0.288,1.419,1.261,1.131,2.173C394.068,824.94,393.388,825.412,392.656,825.412z"/><path fill="#000015" d="M389.283,836.533c-0.262,0-0.533-0.06-0.782-0.189c-0.13-0.063-13.045-6.529-25.881-4.677 c-0.962,0.127-1.821-0.522-1.961-1.469c-0.134-0.945,0.523-1.822,1.466-1.96c13.969-2.003,27.385,4.737,27.945,5.024 c0.852,0.436,1.191,1.473,0.758,2.325C390.521,836.188,389.912,836.533,389.283,836.533z"/><path fill="#000015" d="M383.941,848.945c-0.279,0-0.559-0.067-0.816-0.209c-0.117-0.06-11.654-6.173-24.148-3.479 c-0.928,0.205-1.855-0.393-2.059-1.328c-0.197-0.933,0.393-1.855,1.329-2.057c13.771-2.963,26.013,3.544,26.521,3.823 c0.846,0.454,1.155,1.502,0.695,2.343C385.154,848.616,384.557,848.945,383.941,848.945z"/><path fill="#fce6d9" d="M140.396,830.186c-0.052,0-0.104-0.002-0.151-0.006c-0.954-0.084-1.657-0.923-1.573-1.874 c0.072-0.824,7.132-82.485,1.491-104.879c-0.232-0.929,0.33-1.868,1.255-2.102c0.922-0.227,1.865,0.325,2.101,1.256 c5.782,22.957-1.106,102.645-1.401,106.024C142.039,829.508,141.284,830.186,140.396,830.186z"/><path fill="#fce6d9" d="M324.344,771.601c-0.106,0-0.215-0.011-0.326-0.03c-0.937-0.183-1.551-1.088-1.372-2.026 c2.425-12.646-12.323-70.916-12.472-71.504c-0.235-0.927,0.326-1.867,1.253-2.102c0.913-0.236,1.862,0.32,2.103,1.251 c0.618,2.429,15.084,59.609,12.518,73.007C325.889,771.022,325.16,771.601,324.344,771.601z"/><path fill="#FFF" d="M786.834,1031.79c-0.135,0-0.274-0.015-0.414-0.05c-0.867-0.215-88.188-21.53-216.33-37.825 c-33.938-4.314-59.244-7.826-77.722-10.389c-53.248-7.389-57.597-7.99-79.026-2.266c-30.725,8.21-132.857,24.695-174.723,29.608 c-43.885,5.11-109.013-74.277-111.764-77.663c-0.603-0.74-0.494-1.832,0.251-2.433c0.744-0.606,1.831-0.489,2.434,0.25 c0.663,0.815,66.689,81.335,108.675,76.408c41.768-4.902,143.631-21.337,174.236-29.514c22.107-5.905,26.511-5.295,80.391,2.179 c18.469,2.562,43.768,6.07,77.683,10.383c128.36,16.324,215.854,37.686,216.724,37.899c0.928,0.229,1.492,1.167,1.266,2.094 C788.318,1031.264,787.611,1031.79,786.834,1031.79z"/><path fill="#FFF" d="M870.945,1053.055c-0.2,0-0.4-0.037-0.594-0.106c-0.445-0.164-0.803-0.501-0.992-0.936l-9.716-22.288 l-20.69,9.907c-0.535,0.254-1.166,0.22-1.67-0.098c-0.504-0.316-0.809-0.87-0.809-1.466v-21.362c0-0.955,0.773-1.729,1.732-1.729 c0.955,0,1.727,0.774,1.727,1.729v18.618l19.834-9.497c0.424-0.198,0.916-0.223,1.353-0.062c0.44,0.163,0.794,0.503,0.979,0.932 l9.709,22.27l14.393-7.109c0.854-0.425,1.896-0.072,2.319,0.787c0.419,0.856,0.069,1.894-0.79,2.317l-16.021,7.911 C871.471,1052.99,871.21,1053.055,870.945,1053.055z"/><path fill="#FFF" d="M837.568,1082.322c-0.54,0-1.072-0.253-1.409-0.725c-18.493-25.816-62.185-26.527-86.577-24.657 c-33.416,2.566-57.219,2.701-87.289-3.928c-28.678-6.326-34.628,7.774-34.867,8.377c-0.35,0.884-1.353,1.321-2.234,0.987 c-0.889-0.346-1.335-1.335-0.998-2.223c0.275-0.716,7.05-17.532,38.844-10.522c29.65,6.541,53.195,6.403,86.279,3.86 c25.119-1.927,70.18-1.108,89.656,26.092c0.559,0.778,0.379,1.857-0.398,2.417C838.27,1082.217,837.914,1082.322,837.568,1082.322z"/><path fill="#FFF" d="M606.547,830.186c-0.726,0-1.402-0.459-1.641-1.185c-0.056-0.161-5.507-16.479-23.93-58.435 c-18.12-41.265-38.735-45.827-38.941-45.866c-0.936-0.188-1.545-1.1-1.355-2.039c0.186-0.938,1.095-1.547,2.035-1.354 c0.914,0.181,22.594,4.971,41.431,47.866c18.509,42.152,23.991,58.576,24.044,58.741c0.301,0.904-0.191,1.884-1.099,2.185 C606.907,830.157,606.727,830.186,606.547,830.186z"/><path fill="#FFF" d="M149.498,460.527c-0.037,0-0.076,0-0.118-0.004c-0.956-0.067-1.677-0.89-1.608-1.844 c0.086-1.306,2.438-32.15,25.391-48.326c0.781-0.548,1.864-0.365,2.416,0.417c0.549,0.779,0.359,1.86-0.42,2.412 c-21.625,15.236-23.912,45.429-23.934,45.731C151.161,459.826,150.4,460.527,149.498,460.527z"/><path fill="#FFF" d="M167.574,473.708c-0.018,0-0.036,0-0.046,0c-0.958-0.024-1.712-0.82-1.685-1.776 c0.024-1.038,0.894-25.669,19.248-47.624c0.613-0.732,1.701-0.831,2.44-0.218c0.732,0.613,0.826,1.704,0.216,2.438 c-17.553,20.994-18.437,45.255-18.443,45.499C169.278,472.967,168.508,473.708,167.574,473.708z"/><path fill="#FFF" d="M189.52,356.219c-0.592,0-1.17-0.303-1.49-0.852c-11.32-19.211,14.406-43.822,15.502-44.861 c0.698-0.651,1.792-0.622,2.449,0.072c0.655,0.692,0.622,1.79-0.071,2.446c-0.251,0.234-24.819,23.748-14.899,40.586 c0.483,0.822,0.209,1.884-0.613,2.371C190.123,356.142,189.82,356.219,189.52,356.219z"/><path fill="#FFF" d="M176.992,373.674c-0.356,0-0.719-0.113-1.027-0.341c-6.697-4.973-10.596-11.296-11.583-18.79 c-2.198-16.681,10.707-33.191,11.256-33.886c0.599-0.749,1.685-0.877,2.43-0.283c0.75,0.593,0.879,1.683,0.285,2.431 c-0.125,0.159-12.553,16.083-10.539,31.297c0.864,6.527,4.301,12.062,10.212,16.45c0.768,0.57,0.928,1.655,0.362,2.422 C178.045,373.433,177.523,373.674,176.992,373.674z"/><path fill="#FFF" d="M277.861,467.336c-0.938,0-1.705-0.746-1.732-1.685c-0.898-34.392-29.148-53.017-29.433-53.202 c-0.803-0.516-1.034-1.587-0.515-2.39c0.518-0.805,1.592-1.035,2.391-0.516c0.303,0.192,30.07,19.821,31.017,56.018 c0.024,0.958-0.729,1.752-1.682,1.774C277.891,467.336,277.876,467.336,277.861,467.336z"/><path fill="#00c268" d="M199.442,528.585c8.056,0.389,29.651-8.735,23.313,1.225c-4.537,5.344-0.217,5.686-5.713,6.229 C211.508,536.579,199.188,532.597,199.442,528.585"/><path fill="#07183D" d="M983.268,158.174c0,35.403-28.699,64.101-64.098,64.101H601.086c0,0-11.499,12.139-20.326,15.978 c-8.275,3.597-28.785,3.455-28.785,3.455s10.365-1.92,18.614-9.188c5.319-4.688,5.959-10.244,5.959-10.244h-8.661 c-35.4,0-64.1-28.697-64.1-64.101v-16.776c0-35.4,28.699-64.098,64.1-64.098H919.17c35.398,0,64.098,28.697,64.098,64.098V158.174z"/><path fill="#000015" d="M612.988,343.195c0,35.399,28.701,64.098,64.1,64.098h318.08c0,0,11.502,12.141,20.33,15.977 c8.273,3.597,28.783,3.455,28.783,3.455s-10.361-1.92-18.613-9.188c-5.32-4.688-5.961-10.243-5.961-10.243h8.663 c35.399,0,64.1-28.698,64.1-64.098v-16.778c0-35.399-28.7-64.1-64.1-64.1H677.088c-35.398,0-64.1,28.7-64.1,64.1V343.195z"/><path fill="#000015" d="M543.592,513.405c0,5.008-4.059,9.064-9.064,9.064c-5.01,0-9.068-4.057-9.068-9.064 c0-5.003,4.059-9.063,9.068-9.063C539.533,504.342,543.592,508.402,543.592,513.405z"/><path fill="#000015" d="M609.273,513.405c0,5.008-4.063,9.064-9.066,9.064c-5.008,0-9.066-4.057-9.066-9.064 c0-5.003,4.059-9.063,9.066-9.063C605.211,504.342,609.273,508.402,609.273,513.405z"/><path fill="#000015" d="M576.043,513.405c0,5.008-4.061,9.064-9.066,9.064c-5.01,0-9.068-4.057-9.068-9.064 c0-5.003,4.059-9.063,9.068-9.063C571.982,504.342,576.043,508.402,576.043,513.405z"/><path fill="#FFF" d="M753.531,130.017c0,3.723-3.016,6.736-6.734,6.736H573.713c-3.723,0-6.736-3.014-6.736-6.736l0,0 c0-3.719,3.014-6.732,6.736-6.732h173.084C750.516,123.284,753.531,126.298,753.531,130.017L753.531,130.017z"/><path fill="#FFF" d="M753.531,166.238c0,3.72-3.016,6.735-6.734,6.735H573.713c-3.723,0-6.736-3.016-6.736-6.735l0,0 c0-3.721,3.014-6.737,6.736-6.737h173.084C750.516,159.501,753.531,162.518,753.531,166.238L753.531,166.238z"/><path fill="#FFF" d="M855.873,337.801c0,3.722-3.014,6.736-6.732,6.736H676.056c-3.722,0-6.737-3.015-6.737-6.736l0,0 c0-3.718,3.016-6.732,6.737-6.732h173.085C852.859,331.068,855.873,334.083,855.873,337.801L855.873,337.801z"/></svg>