<svg width="90vh" height="90vh" viewBox="0 0 1392 1392" fill="none" xmlns="http://www.w3.org/2000/svg">
<circle cx="696" cy="696" r="696" fill="#C6FFDD"/>
<mask id="mask0" mask-type="alpha" maskUnits="userSpaceOnUse" x="0" y="0" width="1392" height="1392">
<circle cx="696" cy="696" r="696" fill="#0B0B0B"/>
</mask>
<g mask="url(#mask0)">
<g clip-path="url(#clip0)">
<path d="M893.811 1327.9C841.061 1254.63 799.79 1112.99 794.906 1042.17L543.979 934.107L439.579 1327.9H893.811Z" fill="#F9C9B6" stroke="black" stroke-width="14.6526"/>
<mask id="mask1" mask-type="alpha" maskUnits="userSpaceOnUse" x="439" y="934" width="455" height="431">
<path d="M893.811 1364.53C841.061 1291.27 799.79 1112.99 794.906 1042.17L543.979 934.107L439.579 1364.53H893.811Z" fill="#F9C9B6"/>
</mask>
<g mask="url(#mask1)">
<g style="mix-blend-mode:multiply">
<ellipse cx="783.916" cy="926.78" rx="216.126" ry="197.811" fill="black"/>
</g>
</g>
<mask id="path-6-inside-1" fill="white">
<path fill-rule="evenodd" clip-rule="evenodd" d="M1003.29 710.354C1003.19 709.929 1003.09 709.504 1002.99 709.079C1002.89 708.654 1002.78 708.229 1002.68 707.805L942.621 457.13C942.561 456.876 942.501 456.622 942.44 456.368C942.379 456.113 942.317 455.859 942.256 455.605L941.994 454.511L941.989 454.512C904.558 302.694 751.524 209.343 599.231 245.831C446.938 282.319 352.823 434.885 388.256 587.182L388.249 587.183L450.491 846.967L450.542 846.955C489.381 996.795 641.282 1088.51 792.453 1052.29C943.623 1016.07 1037.47 865.477 1004.19 714.305L1004.24 714.294L1003.29 710.354Z"/>
</mask>
<path fill-rule="evenodd" clip-rule="evenodd" d="M1003.29 710.354C1003.19 709.929 1003.09 709.504 1002.99 709.079C1002.89 708.654 1002.78 708.229 1002.68 707.805L942.621 457.13C942.561 456.876 942.501 456.622 942.44 456.368C942.379 456.113 942.317 455.859 942.256 455.605L941.994 454.511L941.989 454.512C904.558 302.694 751.524 209.343 599.231 245.831C446.938 282.319 352.823 434.885 388.256 587.182L388.249 587.183L450.491 846.967L450.542 846.955C489.381 996.795 641.282 1088.51 792.453 1052.29C943.623 1016.07 1037.47 865.477 1004.19 714.305L1004.24 714.294L1003.29 710.354Z" fill="#F9C9B6"/>
<path d="M1003.29 710.354L989.027 713.704L989.034 713.736L989.042 713.768L1003.29 710.354ZM1002.99 709.079L988.74 712.492L988.74 712.493L1002.99 709.079ZM1002.68 707.805L988.432 711.219L988.439 711.251L988.447 711.284L1002.68 707.805ZM942.621 457.13L928.363 460.505L928.367 460.525L928.372 460.544L942.621 457.13ZM942.44 456.368L928.19 459.781L928.19 459.781L942.44 456.368ZM942.256 455.605L928.006 459.019L928.011 459.038L928.016 459.058L942.256 455.605ZM941.994 454.511L956.243 451.097L952.825 436.829L938.561 440.266L941.994 454.511ZM941.989 454.512L927.762 458.02L931.251 472.172L945.421 468.757L941.989 454.512ZM599.231 245.831L602.645 260.081V260.081L599.231 245.831ZM388.256 587.182L391.688 601.427L405.822 598.022L402.527 583.861L388.256 587.182ZM388.249 587.183L384.817 572.938L370.59 576.366L373.999 590.597L388.249 587.183ZM450.491 846.967L436.241 850.381L439.654 864.627L453.901 861.217L450.491 846.967ZM450.542 846.955L464.725 843.278L461.117 829.357L447.131 832.704L450.542 846.955ZM1004.19 714.305L1000.78 700.056L986.788 703.407L989.88 717.455L1004.19 714.305ZM1004.24 714.294L1007.65 728.544L1021.9 725.13L1018.48 710.88L1004.24 714.294ZM1017.56 707.004C1017.45 706.557 1017.35 706.111 1017.24 705.665L988.74 712.493C988.837 712.897 988.932 713.301 989.027 713.704L1017.56 707.004ZM1017.24 705.665C1017.13 705.219 1017.02 704.773 1016.91 704.327L988.447 711.284C988.545 711.686 988.643 712.089 988.74 712.492L1017.24 705.665ZM928.372 460.544L988.432 711.219L1016.93 704.391L956.871 453.716L928.372 460.544ZM956.88 453.755C956.817 453.488 956.753 453.221 956.689 452.954L928.19 459.781C928.248 460.023 928.306 460.264 928.363 460.505L956.88 453.755ZM956.689 452.954C956.625 452.686 956.56 452.418 956.496 452.152L928.016 459.058C928.075 459.3 928.133 459.541 928.19 459.781L956.689 452.954ZM927.744 457.925L928.006 459.019L956.505 452.191L956.243 451.097L927.744 457.925ZM945.421 468.757L945.426 468.756L938.561 440.266L938.556 440.267L945.421 468.757ZM956.215 451.005C916.858 291.371 755.948 193.216 595.817 231.582L602.645 260.081C747.1 225.471 892.259 314.017 927.762 458.02L956.215 451.005ZM595.817 231.582C435.685 269.948 336.727 430.365 373.984 590.502L402.527 583.861C368.918 439.404 458.19 294.691 602.645 260.081L595.817 231.582ZM391.68 601.428L391.688 601.427L384.824 572.937L384.817 572.938L391.68 601.428ZM464.74 843.553L402.498 583.769L373.999 590.597L436.241 850.381L464.74 843.553ZM447.131 832.704L447.08 832.717L453.901 861.217L453.952 861.205L447.131 832.704ZM436.358 850.631C477.198 1008.19 636.915 1104.62 795.867 1066.54L789.039 1038.04C645.65 1072.39 501.565 985.401 464.725 843.278L436.358 850.631ZM795.867 1066.54C954.819 1028.45 1053.49 870.113 1018.5 711.155L989.88 717.455C1021.45 860.842 932.428 1003.68 789.039 1038.04L795.867 1066.54ZM1000.82 700.045L1000.78 700.056L1007.6 728.555L1007.65 728.544L1000.82 700.045ZM989.042 713.768L989.986 717.708L1018.48 710.88L1017.54 706.94L989.042 713.768Z" fill="black" mask="url(#path-6-inside-1)"/>
</g>
<circle cx="612.794" cy="583.405" r="43.9579" transform="rotate(-6.27568 612.794 583.405)" fill="#D2EFF3"/>
<ellipse cx="617.52" cy="616.972" rx="32.9684" ry="49.4526" transform="rotate(-6.77646 617.52 616.972)" fill="black"/>
<circle cx="846.427" cy="551.799" r="43.9579" transform="rotate(-6.27568 846.427 551.799)" fill="#D2EFF3"/>
<ellipse cx="851.962" cy="580.34" rx="32.9684" ry="49.4526" transform="rotate(-6.27568 851.962 580.34)" fill="black"/>
<path d="M802.232 484.323C822.99 474.555 871.832 465.641 901.137 508.134" stroke="black" stroke-width="14.6526" stroke-linecap="round"/>
<path d="M525.953 577.026C533.538 555.375 561.42 514.294 612.267 523.183" stroke="black" stroke-width="14.6526" stroke-linecap="round"/>
<path d="M535.093 554.815L512.571 534.937" stroke="black" stroke-width="14.6526" stroke-linecap="round"/>
<path d="M890.005 487.777L912.527 467.899" stroke="black" stroke-width="14.6526" stroke-linecap="round"/>
<path d="M558.717 534.142L543.893 508.014" stroke="black" stroke-width="14.6526" stroke-linecap="round"/>
<path d="M862.718 474.43L877.541 448.302" stroke="black" stroke-width="14.6526" stroke-linecap="round"/>
<path d="M588.301 520.905L580.239 491.967" stroke="black" stroke-width="14.6526" stroke-linecap="round"/>
<path d="M829.47 472.182L837.533 443.244" stroke="black" stroke-width="14.6526" stroke-linecap="round"/>
<path d="M604.243 438.601C601.365 432.221 601.362 432.222 601.359 432.223L601.35 432.227L601.323 432.24L601.232 432.281L601.124 432.331C601.061 432.36 600.987 432.394 600.902 432.433C600.618 432.565 600.207 432.758 599.677 433.01C598.618 433.516 597.083 434.264 595.139 435.25C591.253 437.221 585.727 440.148 579.096 444.006C565.848 451.712 548.115 463.172 530.215 478.187C494.621 508.044 457.233 552.929 454.981 611.16C454.013 636.214 450.88 757.246 451.58 803.5C452.17 842.449 472.326 884.268 500.286 922.829C524.648 956.428 555.415 988.214 585.909 1014.41C447.567 1019.88 342.761 1001.73 271.935 981.854C235 971.491 207.293 960.655 188.878 952.447C181.599 949.203 175.772 946.368 171.401 944.136C204.715 919.651 232.508 877.676 250.846 815.378C270.956 747.057 279.874 653.755 272.05 530.704C264.96 419.206 319.145 325.006 401.022 258.409C482.984 191.743 592.202 153.21 693.626 153.21C748.513 153.21 793.041 163.957 828.94 190.027C864.851 216.107 893.013 258.163 913.873 322.526L915.321 326.993L920.003 327.348C965.339 330.784 997.219 349.472 1020.72 379.414C1044.48 409.679 1059.95 451.797 1071.29 502.386C1078.76 535.72 1071.49 568.612 1062.74 606.488L1062.33 608.254C1053.77 645.314 1044.24 686.545 1048.43 734.753C1052.21 778.14 1069.52 820.724 1083.92 853.47C1085.77 857.676 1087.56 861.7 1089.26 865.535C1094.3 876.846 1098.61 886.519 1101.51 894.42C1103.46 899.714 1104.59 903.716 1104.95 906.558C1105.13 908.01 1105.06 908.763 1105.01 909.078C1103.38 910.583 1100.37 912.249 1095.55 913.722C1090.53 915.255 1084.21 916.383 1076.95 917.091C1062.45 918.507 1044.93 918.177 1028.1 916.557C1011.24 914.935 995.473 912.055 984.426 908.544C978.82 906.762 974.941 904.975 972.754 903.424C972.42 903.187 972.163 902.987 971.968 902.822C973.333 898.106 975.302 892.481 977.577 885.983C989.279 852.556 1009.06 796.047 996.268 721.618C988.614 677.089 968.186 598.452 949.77 531.246C940.544 497.577 931.794 466.673 925.35 444.187C922.128 432.944 919.483 423.803 917.642 417.473C916.722 414.307 916.003 411.844 915.513 410.171C915.269 409.335 915.082 408.696 914.956 408.267L914.813 407.78L914.776 407.656L914.767 407.625L914.765 407.617C914.764 407.615 914.764 407.614 908.048 409.589L914.764 407.614L911.361 396.041L903.004 404.736L903.002 404.738L902.988 404.752L902.917 404.826C902.85 404.894 902.745 405.002 902.602 405.147C902.316 405.437 901.878 405.877 901.291 406.457C900.116 407.617 898.345 409.336 895.995 411.53C891.295 415.918 884.286 422.203 875.122 429.718C856.788 444.751 829.86 464.676 795.571 484.161C730.302 521.251 638.601 556.619 528.814 553.882C564.034 521.166 584.297 494.276 595.907 474.798C602.381 463.938 606.159 455.391 608.337 449.438C609.426 446.462 610.113 444.138 610.538 442.501C610.75 441.682 610.896 441.036 610.994 440.566C611.043 440.331 611.079 440.141 611.106 439.995C611.119 439.922 611.13 439.86 611.139 439.81L611.15 439.742L611.154 439.715L611.156 439.703C611.157 439.697 611.158 439.692 604.243 438.601ZM604.243 438.601L601.365 432.221L613.177 426.892L611.158 439.692L604.243 438.601ZM597.337 437.461C597.338 437.456 597.337 437.462 597.334 437.479L597.334 437.478L597.337 437.461ZM971.405 902.243C971.413 902.243 971.457 902.292 971.509 902.389C971.422 902.292 971.396 902.243 971.405 902.243Z" fill="#270E00" stroke="black" stroke-width="14"/>
<path d="M915.79 326.02C917.622 342.505 914.691 375.473 910.296 397.452" stroke="black" stroke-width="14.6526"/>
<path d="M880.905 820.083C880.691 818.124 878.672 816.886 876.82 817.629C868.892 820.811 824.042 838.423 792.865 842.712C758.798 847.398 706.349 840.951 697.52 839.797C695.5 839.533 693.926 841.279 694.188 843.177C695.816 854.968 699.668 866.347 705.543 876.708C711.637 887.456 719.787 896.898 729.53 904.495C739.273 912.092 750.416 917.696 762.325 920.987C774.233 924.278 786.673 925.191 798.934 923.674C811.195 922.157 823.038 918.239 833.785 912.146C844.533 906.052 853.974 897.901 861.572 888.159C869.169 878.416 874.773 867.272 878.064 855.364C881.236 843.885 882.198 831.913 880.905 820.083Z" fill="#171921" stroke="#171921" stroke-width="4"/>
<mask id="mask2" mask-type="alpha" maskUnits="userSpaceOnUse" x="696" y="819" width="184" height="104">
<path d="M878.765 819C880.25 831.001 879.357 843.176 876.136 854.831C872.915 866.487 867.43 877.393 859.995 886.929C852.559 896.464 843.318 904.442 832.799 910.406C822.28 916.37 810.689 920.204 798.689 921.689C786.688 923.173 774.513 922.28 762.857 919.059C751.202 915.838 740.295 910.354 730.76 902.918C721.224 895.482 713.247 886.241 707.283 875.722C701.319 865.203 697.485 853.612 696 841.612L878.765 819Z" fill="#171921"/>
</mask>
<g mask="url(#mask2)">
<circle cx="800.293" cy="934.451" r="61.8659" transform="rotate(-7.05286 800.293 934.451)" fill="#FC909F"/>
</g>
<path d="M746.485 633.616C747.23 647.691 752.705 677.871 768.643 685.989C788.564 696.136 772.947 729.774 735.652 727.617" stroke="black" stroke-width="14.6526"/>
<path d="M477.918 795.313L479.874 793.205V790.329V667.609V663.509L476.38 661.365C462.702 652.972 446.069 648.379 428.883 648.379C408.222 648.379 388.878 654.781 375.1 667.776C361.167 680.917 353.649 700.13 355.645 724.083C357.59 747.423 365.426 764.601 378.422 776.016C377.355 779.676 377.04 783.622 377.534 787.775C378.96 799.747 385.013 808.374 394.366 813.689C403.282 818.757 414.692 820.547 426.847 820.547C446.918 820.547 464.517 809.752 477.918 795.313Z" stroke="black" stroke-width="14.6526"/>
<path fill-rule="evenodd" clip-rule="evenodd" d="M501.751 725.247C502.012 722.859 502.146 720.435 502.146 717.979C502.146 680.552 467.322 655.706 428.883 655.706C390.444 655.706 359.283 679.516 362.946 723.474C364.984 747.935 373.737 764.032 387.309 773.722C385.153 777.473 384.21 781.878 384.809 786.908C387.114 806.256 403.63 813.221 426.847 813.221C467.527 813.221 499.714 761.766 501.751 725.247Z" fill="#F9C9B6"/>
<path d="M445.074 686.844C430.421 680.128 398.186 676.587 386.464 716.15" stroke="black" stroke-width="14.6526"/>
<path d="M406.611 688.674C414.548 695.39 429.689 716.148 426.758 745.453" stroke="black" stroke-width="14.6526"/>
<circle cx="421.264" cy="791.243" r="14.6526" fill="white"/>
<circle cx="424.927" cy="787.579" r="3.66316" fill="#FFEDEF"/>
<path d="M695.161 1317.19C695.161 1317.19 695.161 1317.19 699.663 1311.41L695.161 1317.19L701.468 1322.1L705.812 1315.39L705.813 1315.39L705.82 1315.38L705.854 1315.33C705.886 1315.28 705.936 1315.2 706.004 1315.1C706.064 1315.01 706.137 1314.9 706.224 1314.77C706.335 1314.6 706.468 1314.4 706.622 1314.17C707.173 1313.34 707.998 1312.12 709.076 1310.57C711.233 1307.45 714.399 1302.99 718.411 1297.66C726.447 1286.98 737.819 1272.88 751.209 1259.09C764.635 1245.27 779.878 1231.98 795.629 1222.74C811.441 1213.46 827.056 1208.66 841.547 1210.61C997.007 1231.57 1111.41 1300.43 1185.67 1402.99H184.53C244.238 1295.51 329.164 1227.09 466.85 1195.7C472.717 1194.36 480.695 1194.77 490.67 1197.09C500.542 1199.38 511.797 1203.42 523.935 1208.75C548.21 1219.42 575.308 1234.98 600.773 1251.1C626.199 1267.2 649.809 1283.73 667.075 1296.24C675.703 1302.5 682.737 1307.75 687.608 1311.42C690.044 1313.26 691.939 1314.71 693.221 1315.69C693.477 1315.89 693.708 1316.07 693.914 1316.23C694.226 1316.47 694.481 1316.66 694.677 1316.82C694.84 1316.94 694.963 1317.04 695.044 1317.1L695.134 1317.17L695.156 1317.19L695.161 1317.19Z" fill="#9287FF" stroke="black" stroke-width="14.6526"/>
<path d="M423.508 1205.49L442.434 1135.04C443.2 1132.19 446.892 1131.38 448.884 1133.56C503.331 1193.14 572.038 1190.81 594.843 1188.07C597.938 1187.7 600.362 1191.09 598.908 1193.85L550.712 1285.25C549.973 1286.65 548.461 1287.43 546.911 1287.1C532.447 1284.09 460.376 1266.47 423.932 1208.36C423.399 1207.51 423.247 1206.46 423.508 1205.49Z" fill="#E0DDFF" stroke="black" stroke-width="14.6526"/>
<path d="M901.85 1205.11L859.428 1133.75C857.988 1131.32 854.44 1131.36 852.905 1133.73C831.889 1166.09 795.644 1181 782.969 1185.41C780.689 1186.2 779.646 1188.91 780.875 1190.99L830.337 1274.56C831.075 1275.81 832.47 1276.48 833.864 1276.09C841.683 1273.86 868.517 1262.64 901.802 1208.92C902.517 1207.77 902.544 1206.28 901.85 1205.11Z" fill="#E0DDFF" stroke="black" stroke-width="14.6526"/>
<path d="M631.895 1269.29L598.926 1190.53L573.284 1245.48L631.895 1269.29Z" fill="black" stroke="black" stroke-width="14.6526" stroke-linejoin="round"/>
<path d="M747.284 1265.62L780.253 1186.87L805.895 1241.81L747.284 1265.62Z" fill="black" stroke="black" stroke-width="14.6526" stroke-linejoin="round"/>
<path d="M489.032 1120.93L445.074 1131.92L481.705 1155.73L489.032 1120.93Z" fill="black" stroke="black" stroke-width="14.6526" stroke-linejoin="round"/>
<path d="M816.884 1120.93L857.179 1131.92L831.537 1155.73L816.884 1120.93Z" fill="black" stroke="black" stroke-width="14.6526" stroke-linejoin="round"/>
</g>
<defs>
<clipPath id="clip0">
<rect width="732.632" height="1172.21" fill="white" transform="translate(329.685 157.517)"/>
</clipPath>
</defs>
</svg>
