<svg xmlns="http://www.w3.org/2000/svg" version="1.0" viewBox="0 0 1133.859 1133.858"><path fill="#00001b" d="M1107.927,1056.429c0,7.827-6.346,14.173-14.173,14.173H102.192c-7.827,0-14.173-6.346-14.173-14.173 V530.321c0-7.827,6.346-14.173,14.173-14.173h991.562c7.827,0,14.173,6.346,14.173,14.173V1056.429z"/><rect width="991.562" height="526.107" x="102.192" y="530.321" fill="#134296"/><path fill="#FFF" d="M966.447,726.586c0,4.746-3.848,8.594-8.594,8.594H231.717c-4.746,0-8.594-3.848-8.594-8.594l0,0 c0-4.746,3.848-8.594,8.594-8.594h726.137C962.6,717.992,966.447,721.84,966.447,726.586L966.447,726.586z"/><path fill="#FFF" d="M966.447,790.311c0,4.746-3.848,8.594-8.594,8.594H231.717c-4.746,0-8.594-3.848-8.594-8.594l0,0 c0-4.746,3.848-8.594,8.594-8.594h726.137C962.6,781.717,966.447,785.564,966.447,790.311L966.447,790.311z"/><path fill="#FFF" d="M966.447,857.636c0,4.746-3.848,8.594-8.594,8.594H231.717c-4.746,0-8.594-3.848-8.594-8.594l0,0 c0-4.746,3.848-8.594,8.594-8.594h726.137C962.6,849.042,966.447,852.89,966.447,857.636L966.447,857.636z"/><path fill="#FFF" d="M966.447,917.76c0,4.746-3.848,8.594-8.594,8.594H231.717c-4.746,0-8.594-3.848-8.594-8.594l0,0 c0-4.746,3.848-8.594,8.594-8.594h726.137C962.6,909.166,966.447,913.014,966.447,917.76L966.447,917.76z"/><path fill="#FFF" d="M745.405,656.707c0,7.827-6.346,14.173-14.174,14.173H481.519c-7.827,0-14.173-6.346-14.173-14.173v-56.726 c0-7.828,6.346-14.174,14.173-14.174h249.713c7.828,0,14.174,6.346,14.174,14.174V656.707z"/><path fill="#FFF" d="M482.455,998.282l33.151-33.151c2.475-2.475,2.475-6.487,0-8.962l-0.408-0.408 c-2.475-2.475-6.487-2.475-8.962,0l-35.73,35.729c-0.85,0.306-1.649,0.793-2.331,1.474l-0.407,0.408 c-1.347,1.347-1.954,3.148-1.835,4.91c-0.119,1.762,0.488,3.563,1.835,4.909l0.408,0.407c0.681,0.682,1.481,1.169,2.331,1.475 l35.729,35.729c2.475,2.476,6.487,2.475,8.962,0l0.408-0.407c2.475-2.476,2.475-6.488,0-8.963L482.455,998.282z"/><path fill="#FFF" d="M714.711,998.282l-33.15,33.151c-2.475,2.475-2.475,6.487,0,8.961l0.408,0.408 c2.475,2.475,6.487,2.475,8.962,0l35.729-35.729c0.851-0.306,1.65-0.793,2.331-1.474l0.408-0.408 c1.346-1.346,1.954-3.147,1.835-4.91c0.119-1.761-0.489-3.563-1.836-4.908l-0.407-0.408c-0.682-0.682-1.481-1.168-2.331-1.475 l-35.729-35.729c-2.475-2.475-6.487-2.475-8.962,0l-0.408,0.408c-2.475,2.475-2.475,6.487,0,8.962L714.711,998.282z"/><path fill="#ffe7da" d="M332.757,548.967c-0.525,0.417-0.804,0.644-0.804,0.644s-172.939-7.535-182.996-14.075 c-10.054-6.539-13.066-18.094-19.605-29.661c-6.538-11.565-0.504-15.586-0.504-15.586l-0.097-0.075 c11.663,3.624,26.606,9.733,27.133,7.783c0.718-2.637-10.003-11.299,0-12.725c7.031-0.996,16.003,4.34,21.33,8.232 c2.263,1.641,3.871,3.023,4.396,3.56c1.791,1.79,4.652,2.144,31.453-9.647c0.213-0.098,0.427-0.192,0.652-0.289h0.01 c27.229-11.31,93.306,0.289,93.306,0.289s0-0.064,0.03-0.258c0.119-0.558,0.622-2.229,2.799-6.613 C315.605,493.923,329.627,527.999,332.757,548.967z"/><path fill="#ffe7da" d="M307.061,487.158c-0.03,0.193-0.03,0.258-0.03,0.258s-66.077-11.599-93.306-0.289h-0.01 c-0.772-0.988-1.587-1.975-2.443-2.927c-2.628-2.917-8.727-6.614-16.079-10.73c-6.175-3.474-13.229-7.235-19.831-11.063 c-14.472-8.405-6.433-17.87-2.681-15.189c3.752,2.68,16.08,3.215,8.576-2.681c-5.542-4.353-18.106-18.695-24.292-25.889 c2.83,0.76,11.406,3.259,19.639,7.793c10.055,5.532,2.015,24.13,46.255,26.146c44.241,2.004,77.921,26.638,77.921,26.638 s0,0,0.59-2.583C303.224,480.341,305.218,484.135,307.061,487.158z"/><path fill="#134296" d="M195.195,473.473c-0.127,0.064-1.188,0.632-2.731,1.587c-3.174,1.94-8.384,5.466-11.835,9.53 c-9.895-10.346-63.556-52.066-84.953-68.372l1.501,0.173v-34.688l58.818,36.704c0,0,0.332,0.086,0.965,0.244 c3.827,4.45,10.098,11.633,15.629,17.495c3.42,3.625,6.562,6.733,8.673,8.394c7.502,5.896-4.824,5.36-8.577,2.68 c-3.751-2.68-11.792,6.786,2.681,15.19c5.918,3.432,12.199,6.806,17.881,9.97C193.9,472.743,194.554,473.107,195.195,473.473z"/><path fill="#134296" d="M177.214,493.504c-5.327-3.893-14.299-9.229-21.33-8.232c-12.95-10.334-69.604-53.522-95.565-72.979 l35.342,3.923h0.012c21.395,16.305,75.058,58.024,84.953,68.369C178.189,487.426,176.615,490.525,177.214,493.504z"/><path fill="#00001b" d="M155.884,497.996c-0.526,1.95-15.47-4.159-27.133-7.783l-79.335-65.774l7.043-12.574l3.848,0.429h0.012 c25.962,19.456,82.615,62.645,95.565,72.979C145.881,486.697,156.602,495.359,155.884,497.996z"/><path fill="#00001b" d="M344.44,418.285c-2.187,6.249-5.069,12.424-8.821,18.395c-15.362,24.463-22.47,37.251-25.76,43.865 c-2.177,4.384-2.68,6.056-2.799,6.613c-1.843-3.023-3.837-6.817-5.691-10.516c0.654-2.863,2.036-8.876,4.943-21.547 c5.239-22.875,23.132-49.791,23.271-55.968C335.564,404.381,342.532,411.844,344.44,418.285z"/><path fill="#ffe7da" d="M344.44,418.285c-1.908-6.441-8.876-13.904-14.857-19.157v-0.011c0-0.344-0.042-0.622-0.149-0.825 c-2.005-4.02-3.517-9.046-12.061-13.065c-5.531,7.535-22.124,9.551-33.68,6.023c-10.914-3.313-25.609-13.998-27.25-15.211 c1.844-1.941,3.935-3.869,6.131-5.404c6.539-4.522,32.18-19.1,34.186-23.625c2.014-4.524-4.737-11.094-4.737-11.094 s12.51-1.79,16.798-5.725c2.39-2.188,6.559-5.383,10.836-6.723c0.761,0.611,1.512,1.095,2.24,1.426 c6.539,3.023,3.516,11.063,3.516,11.063s8.094,0,18.652,0.171C347.914,349.519,356.21,384.796,344.44,418.285z"/><path fill="#00001b" d="M308.82,330.191c-4.288,3.935-16.798,5.725-16.798,5.725s6.751,6.569,4.737,11.094 c-2.006,4.525-27.646,19.103-34.186,23.625c-2.196,1.535-4.287,3.463-6.131,5.404c-0.098-0.064-0.149-0.107-0.149-0.107 s-7.505,5.36-20.367,5.36c-9.263-28.612,8.575-54.584,16.657-64.425c-7.471-5.264-18.073-16.445-7.6-33.199 c15.082-24.129,43.736-30.155,59.321-10.055c11.472,14.814,9.583,28.804,3.569,36.359c3.549,4.429,7.869,10.464,11.781,13.496 C315.379,324.809,311.21,328.004,308.82,330.191z"/><path fill="#00001b" d="M590.283,552.559c-4.362,0.064-8.532,0.085-12.498,0.064c-81.447-0.494-170.936-53.78-180.487-50.77 c-8.875,2.799-57.669,41.625-64.541,47.113c-3.13-20.968-17.151-55.044-22.897-68.422c3.29-6.614,10.397-19.402,25.76-43.865 c3.752-5.971,6.635-12.146,8.821-18.395c11.77-33.489,3.474-68.767-0.376-82.156c18.149,0.302,43.576,1.127,47.715,3.346 c6.538,3.516,128.697,64.854,155.84,53.287c4.053-1.148,8.105-2.176,12.167-3.066C577.666,411.167,618.68,472.086,590.283,552.559z"/><path fill="#EC8576" d="M906.259,492.06c-3.954,10.463-59.847,30.776-98.372,43.683h-0.021c-3.227,0.332-6.486,0.666-9.777,0.996 c-70.771,7.162-153.655,14.966-207.81,15.822c28.407-80.471-12.616-141.39-30.486-162.863 c91.738-20.377,184.398,20.658,184.398,20.658l-15.897-69.346c18.642-6.797,57.457-15.338,112.085-2.743 c11.833,17.204,24.278,39.224,33.54,56.503c8.662,16.154,14.557,28.148,14.557,28.148s0.056,0.021,0.142,0.065h0.021 C897.729,447.445,910.698,480.289,906.259,492.06z"/><path fill="#00001b" d="M852.775,254.007c-20.615,10.559-60.824,26.146-60.824,26.146s8.04,12.562,33.178,38.707 c4.728,4.921,9.927,11.675,15.242,19.402c-54.625-12.596-93.442-4.052-112.073,2.745l-22.821-99.565c0,0,0-31.675,78.425-40.723 S873.389,243.449,852.775,254.007z"/><path fill="#EC8576" d="M928.193,524.562c-3.271,0.14-6.646,0.323-10.153,0.536c-5.681,0.354-11.685,0.814-18.008,1.395 c-22.876,2.078-55.571,5.531-92.146,9.25c38.525-12.906,94.418-33.22,98.372-43.683c4.439-11.771-8.53-44.614-17.622-69.076 c1.029,0.439,7.15,3.033,15.78,6.022c2.625,0.924,5.498,1.866,8.521,2.811C919.295,457.907,928.547,500.57,928.193,524.562z"/><path fill="#00001b" d="M1101.126,533.521c-16.09,8.544-68.368,1.007-84.458-2.016c-13.798-2.584-36.845-9.24-88.481-6.945 c0.354-23.991-8.896-66.656-15.243-92.747c19.06,5.939,44.391,11.438,57.469,4.181c22.628-12.574,50.275,0,53.297,5.531 c3.012,5.521,9.049,29.157,44.732,43.737C1104.139,499.839,1117.216,524.977,1101.126,533.521z"/><path fill="#134296" d="M309.844,492.058c-0.919-1.042-2.01-2.596-3.242-4.621l0.918-0.558c1.198,1.971,2.25,3.476,3.128,4.471 L309.844,492.058z"/><polygon fill="#134296" points="195.571 473.849 194.813 473.091 195.582 473.838"/><path fill="#b6564a" d="M918.04,525.098c-5.681,0.354-11.685,0.814-18.008,1.395c-22.876,2.078-55.571,5.531-92.146,9.25 c38.525-12.906,94.418-33.22,98.372-43.683c4.439-11.771-8.53-44.614-17.622-69.076c1.029,0.439,7.15,3.033,15.78,6.022 C910.944,456.375,919.06,496.819,918.04,525.098z"/><path fill="#00001b" d="M193.246,472.379c-0.268,0.91-0.525,1.812-0.782,2.681c-3.174,1.94-8.384,5.466-11.835,9.53 c-9.895-10.346-63.556-52.066-84.953-68.372l1.501,0.173v-27.389c21.054,16.444,52.752,39.297,75.412,47.144 c3.42,3.625,6.562,6.733,8.673,8.394c7.502,5.896-4.824,5.36-8.577,2.68c-3.751-2.68-11.792,6.786,2.681,15.19 C181.283,465.841,187.564,469.215,193.246,472.379z"/><path fill="#FFF" d="M772.764,445.452c-0.288,0-0.57-0.115-0.777-0.335l-14.729-15.522c2.55,5.092,4.652,10.896,2.403,13.079 c-2.109,2.05-6.67,0.51-14.789-4.99c-26.775-18.142-152.515-13.676-153.782-13.629c-0.604,0.023-1.089-0.441-1.112-1.031 c-0.021-0.593,0.439-1.089,1.033-1.111c5.199-0.193,127.711-4.536,155.063,13.996c9.8,6.639,11.793,5.52,12.093,5.228 c1.676-1.627-2.394-10.671-7.125-18.119c-0.295-0.466-0.188-1.08,0.246-1.421c0.437-0.339,1.057-0.292,1.437,0.108l18.306,19.292 c-3.384-17.842-17.829-94.125-18.539-99.857c-0.071-0.588,0.345-1.124,0.932-1.196c0.592-0.069,1.124,0.345,1.197,0.934 c0.777,6.289,19.012,102.334,19.196,103.304c0.091,0.468-0.14,0.938-0.563,1.154C773.098,445.412,772.93,445.452,772.764,445.452z"/><path fill="#FFF" d="M733.477,324.541c-0.347,0-0.686-0.167-0.894-0.478c-0.329-0.492-0.194-1.158,0.299-1.487l20.417-13.596 l-20.463-15.17c-0.412-0.307-0.549-0.862-0.328-1.324l10.844-22.615c0.257-0.534,0.898-0.76,1.431-0.502 c0.533,0.255,0.759,0.896,0.503,1.429l-10.461,21.817l20.977,15.551c0.279,0.207,0.441,0.539,0.432,0.889 c-0.008,0.35-0.187,0.671-0.477,0.864l-21.687,14.442C733.888,324.484,733.68,324.541,733.477,324.541z"/><path fill="#FFF" d="M935.242,494.576c-0.177,0-0.355-0.044-0.517-0.133c-0.342-0.188-0.556-0.549-0.556-0.939v-20.045 c0-0.592,0.481-1.071,1.072-1.071c0.592,0,1.071,0.479,1.071,1.071v18.094l29.917-18.988c0.498-0.315,1.153-0.17,1.474,0.321 l11.85,18.234c0.323,0.496,0.181,1.159-0.315,1.481c-0.497,0.323-1.159,0.183-1.482-0.313l-11.271-17.346l-30.666,19.467 C935.643,494.52,935.443,494.576,935.242,494.576z"/><path fill="#FFF" d="M717.117,236.139c-0.416,0-0.813-0.245-0.986-0.652c-0.232-0.545,0.021-1.175,0.566-1.406 c0.208-0.089,21.185-8.943,47.201-13.336c24.116-4.07,57.637-5.035,80.373,13.49c0.459,0.375,0.528,1.051,0.153,1.51 c-0.373,0.459-1.049,0.526-1.507,0.152c-42.42-34.564-124.556-0.195-125.381,0.155C717.4,236.11,717.258,236.139,717.117,236.139z"/><path fill="#FFF" d="M1068.694,516.148c-0.104,0-0.213-0.016-0.318-0.049c-31.911-9.949-46.258-26.567-52.672-38.756 c-6.987-13.279-6.368-24.063-6.339-24.516c0.039-0.59,0.547-1.039,1.139-0.999c0.591,0.038,1.038,0.548,1.002,1.138 c-0.008,0.106-0.597,10.731,6.158,23.492c6.239,11.792,20.212,27.886,51.351,37.594c0.563,0.177,0.88,0.777,0.704,1.343 C1069.575,515.854,1069.15,516.148,1068.694,516.148z"/><path fill="#FFF" d="M397.298,502.926c-0.241,0-0.485-0.08-0.684-0.247c-0.457-0.379-0.518-1.055-0.139-1.51 c0.309-0.373,31.222-37.261,58.024-49.249c0.538-0.242,1.174,0,1.416,0.54c0.241,0.54,0,1.175-0.541,1.417 c-26.355,11.787-56.945,48.297-57.252,48.664C397.911,502.795,397.605,502.926,397.298,502.926z"/><path fill="#ffe7da" d="M301.369,298.031c-0.097,0-0.197-0.015-0.296-0.042c-0.569-0.164-0.898-0.758-0.735-1.327 c5.593-19.445-17.031-32.482-17.261-32.612c-0.517-0.29-0.697-0.943-0.406-1.46c0.291-0.515,0.945-0.697,1.46-0.406 c0.244,0.138,24.322,14.018,18.268,35.07C302.265,297.725,301.835,298.031,301.369,298.031z"/><path fill="#FFF" d="M289.839,295.951c-0.015,0-0.03,0-0.047,0c-0.591-0.024-1.051-0.524-1.024-1.117 c0.565-13.309-17.305-30.771-17.486-30.947c-0.426-0.41-0.437-1.091-0.024-1.516c0.41-0.425,1.091-0.438,1.515-0.024 c0.766,0.741,18.744,18.309,18.137,32.579C290.885,295.501,290.41,295.951,289.839,295.951z"/><path fill="#FFF" d="M241.449,373.434c-0.444,0-0.857-0.278-1.013-0.722c-7.811-22.534,10.923-48.767,11.723-49.871 c0.348-0.479,1.02-0.585,1.497-0.238c0.479,0.347,0.586,1.017,0.24,1.495c-0.191,0.263-18.877,26.44-11.434,47.912 c0.194,0.56-0.104,1.17-0.662,1.363C241.686,373.413,241.566,373.434,241.449,373.434z"/><path fill="#FFF" d="M250.652,363.043c-0.456,0-0.877-0.293-1.021-0.749c-3.638-11.518,2.155-25.96,2.404-26.569 c0.223-0.548,0.848-0.81,1.396-0.588c0.549,0.225,0.813,0.849,0.588,1.397c-0.058,0.142-5.746,14.342-2.344,25.114 c0.177,0.563-0.136,1.167-0.701,1.345C250.869,363.027,250.76,363.043,250.652,363.043z"/><path fill="#00001b" d="M282.816,392.43c-0.133,0-0.263-0.006-0.391-0.019c-1.906-0.188-3.044-1.673-3.044-3.972 c0-5.328-5.313-16.322-5.367-16.433c-0.258-0.532-0.036-1.174,0.497-1.433c0.528-0.258,1.174-0.037,1.431,0.495 c0.229,0.468,5.583,11.55,5.583,17.37c0,1.73,0.837,1.812,1.11,1.838c1.775,0.187,4.982-2.158,5.673-5.61 c0.115-0.581,0.678-0.956,1.262-0.842c0.58,0.116,0.957,0.681,0.84,1.263C289.554,389.376,285.733,392.43,282.816,392.43z"/><path fill="#00001b" d="M289.359,377.631c-10.392,0-18.848-8.455-18.848-18.848c0-10.394,8.456-18.848,18.848-18.848 c10.394,0,18.848,8.454,18.848,18.848C308.207,369.176,299.753,377.631,289.359,377.631z M289.359,342.08 c-9.211,0-16.704,7.492-16.704,16.703c0,9.21,7.493,16.702,16.704,16.702c9.21,0,16.703-7.492,16.703-16.702 C306.063,349.572,298.569,342.08,289.359,342.08z"/><path fill="#00001b" d="M263.24,392.064c-4.217,0-8.403-1.645-11.789-4.63c-3.324-2.931-5.473-6.807-6.045-10.915 c-0.583-4.17,0.519-8.078,3.102-11.008c2.533-2.874,6.201-4.459,10.328-4.459c4.217,0,8.404,1.644,11.79,4.629 c6.91,6.088,8.229,15.923,2.942,21.921C271.034,390.479,267.366,392.064,263.24,392.064z M258.836,363.196 c-3.502,0-6.599,1.326-8.721,3.732c-2.163,2.453-3.08,5.754-2.586,9.294c0.502,3.602,2.398,7.012,5.339,9.604 c2.994,2.64,6.677,4.093,10.372,4.093c3.501,0,6.599-1.328,8.721-3.734c4.506-5.111,3.271-13.588-2.753-18.896 C266.215,364.649,262.531,363.196,258.836,363.196z"/><path fill="#00001b" d="M317.171,337.201c-0.219,0-0.438-0.066-0.629-0.204c-2.45-1.78-3.282-4.36-2.337-7.263 c0.627-1.934,2.607-4.896,3.859-4.896c0.593,0,1.073,0.48,1.073,1.072c0,0.454-0.284,0.844-0.683,0.999 c-0.58,0.452-2.442,2.742-2.486,5.015c-0.025,1.33,0.573,2.424,1.833,3.339c0.479,0.347,0.585,1.019,0.237,1.497 C317.829,337.049,317.502,337.201,317.171,337.201z"/><path fill="#8296AA" d="M672.953,398.311c-16.34,29.978-60.165,45.483-90.555,34.734c-12.618-3.517-19.026-14.061-19.026-14.061 s-0.092,0.145-0.289,0.417c-1.733,2.395-11.47,14.308-33.408,14.682c-24.393,0.407-30.604-6.824-30.604-6.824 s-21.683,10.537-27.121-14.951c-0.06-0.258-0.109-0.511-0.161-0.767c0-13.433,5.988-15.914,5.988-15.914s-9.021-6.729-7.178-19.898 c0.211-1.613,0.604-3.322,1.189-5.123c5.37-16.534,16.33-24.393,22.116-29.151c5.786-4.749,22.542-20.052,25.227-24.189 c2.685-4.13,4.442-6.12,6.823-1.827c2.48,4.477,7.441,11.963,7.85,19.814c0.103,1.903,11.164-10.332,13.857-15.089 c2.686-4.759,6.203-6.62,8.684-1.242c2.457,5.327,2.48,14.521,1.479,16.084c0.781-0.917,13.433-15.7,27.258-22.49 c19.022-9.347,53.341-19.439,78.363,3.101c1.929,1.734,3.713,3.52,5.352,5.346c2.574,2.854,4.801,5.812,6.695,8.862 C688.117,350.078,686.054,374.268,672.953,398.311z"/><path fill="#FFF" d="M563.375,419.522c-0.205,0-0.401-0.119-0.488-0.32c-0.033-0.069-3.146-7.186-4.998-16.234 c-2.488-12.175-6.168-41.1,13.4-46.723c5.083-1.463,9.176-0.911,12.159,1.638c6.042,5.16,5.634,16.578,4.852,22.921 c-2.341,19.006,8.919,27.856,20.236,29.802c18.543,3.185,37.483-17.805,37.886-18.319c0.115-0.235,0.391-0.354,0.647-0.269 c0.28,0.092,0.431,0.396,0.337,0.674c-0.346,1.038-17.531,19.302-35.038,19.305c-1.339,0-2.677-0.109-4.013-0.338 c-11.804-2.028-23.547-11.234-21.115-30.984c1.285-10.435-0.35-18.447-4.486-21.979c-2.694-2.3-6.451-2.78-11.17-1.423 c-18.711,5.377-15.079,33.6-12.648,45.482c1.826,8.932,4.896,15.948,4.927,16.017c0.119,0.271-0.002,0.586-0.272,0.706 C563.52,419.508,563.447,419.522,563.375,419.522z"/><path fill="#FFF" d="M521.405,345.299c-0.225,0-0.432-0.14-0.507-0.363c-0.092-0.281,0.058-0.585,0.338-0.677 c1.043-0.348,7.713-3.545,12.148-9.329c0.18-0.232,0.516-0.277,0.749-0.099c0.235,0.18,0.278,0.515,0.099,0.75 c-5.128,6.687-12.588,9.669-12.658,9.691C521.518,345.291,521.461,345.299,521.405,345.299z"/><path fill="#FFF" d="M548.281,352.742c-0.129,0-0.259-0.046-0.359-0.14c-0.218-0.201-0.232-0.538-0.032-0.757 c0.072-0.076,7.169-7.869,9.383-16.924c0.069-0.287,0.363-0.463,0.646-0.393c0.287,0.069,0.464,0.358,0.393,0.646 c-2.281,9.329-9.336,17.071-9.636,17.396C548.57,352.684,548.426,352.742,548.281,352.742z"/><path fill="#FFF" d="M487.215,366.599c-2.504,0-4.389-0.763-5.605-2.271c-2.354-2.912-1.293-7.501-1.247-7.695 c0.069-0.285,0.353-0.465,0.644-0.394c0.287,0.066,0.465,0.356,0.396,0.642c-0.011,0.042-0.985,4.281,1.039,6.779 c1.047,1.293,2.749,1.916,5.044,1.867c0.289-0.014,0.54,0.225,0.547,0.521s-0.227,0.54-0.521,0.546 C487.412,366.597,487.313,366.599,487.215,366.599z"/><path fill="#FFF" d="M510.725,378.97c-2.023,0-3.67-0.525-4.922-1.574c-2.818-2.358-2.519-6.45-2.504-6.622 c0.025-0.294,0.277-0.507,0.576-0.49c0.292,0.025,0.512,0.283,0.489,0.575c-0.004,0.038-0.264,3.724,2.13,5.724 c1.748,1.461,4.492,1.71,8.158,0.746c11.4-3,15.149-9.003,15.187-9.063c0.151-0.251,0.479-0.332,0.732-0.18 c0.252,0.153,0.334,0.479,0.182,0.733c-0.156,0.26-3.97,6.423-15.827,9.545C513.384,378.768,511.98,378.97,510.725,378.97z"/><path fill="#FFF" d="M499.903,405.049c-0.011,0-0.022,0-0.031,0c-0.575-0.034-14.147-0.933-22.465-9.041 c-0.211-0.207-0.215-0.545-0.01-0.756c0.206-0.211,0.545-0.215,0.757-0.008c8.035,7.832,21.644,8.73,21.78,8.738 c0.296,0.018,0.519,0.271,0.501,0.564C500.42,404.831,500.184,405.049,499.903,405.049z"/><path fill="#FFF" d="M499.076,427.793c-0.128,0-0.256-0.045-0.357-0.137c-0.06-0.053-0.302-0.178-0.516-0.289 c-1.92-0.999-7.76-4.038-6.273-14.451c0.466-3.246,1.756-5.374,3.836-6.317c4.253-1.938,10.173,1.854,10.424,2.018 c0.248,0.159,0.317,0.49,0.158,0.737c-0.162,0.246-0.492,0.318-0.739,0.159c-0.058-0.038-5.682-3.635-9.401-1.941 c-1.727,0.786-2.81,2.634-3.219,5.496c-1.381,9.663,3.768,12.342,5.707,13.352c0.353,0.185,0.586,0.306,0.739,0.443 c0.218,0.197,0.235,0.534,0.038,0.755C499.367,427.734,499.222,427.793,499.076,427.793z"/><path fill="#FFF" d="M571.436,332.067c-0.09,0-0.181-0.022-0.264-0.069c-0.257-0.146-0.346-0.473-0.201-0.729 c0.124-0.218,3.059-5.336,5.954-6.633c0.272-0.121,0.587,0,0.707,0.269c0.12,0.271,0,0.587-0.269,0.708 c-2.578,1.153-5.434,6.134-5.463,6.184C571.802,331.972,571.622,332.067,571.436,332.067z"/><path fill="#FFF" d="M581.981,327.932c-0.138,0-0.275-0.052-0.378-0.156c-0.209-0.207-0.209-0.546,0-0.754 c0.103-0.105,2.611-2.577,7.813-4.867c0.271-0.119,0.584,0.004,0.703,0.273c0.119,0.271-0.004,0.585-0.274,0.704 c-5,2.2-7.462,4.62-7.486,4.646C582.253,327.88,582.117,327.932,581.981,327.932z"/><path fill="#FFF" d="M585.805,319.25c-0.134,0-0.268-0.051-0.371-0.15c-0.212-0.205-0.219-0.545-0.013-0.757 c0.136-0.138,3.347-3.418,7.762-4.89c0.281-0.092,0.582,0.059,0.675,0.337c0.094,0.28-0.057,0.583-0.338,0.677 c-4.159,1.385-7.3,4.589-7.33,4.62C586.083,319.195,585.945,319.25,585.805,319.25z"/><path fill="#FFF" d="M601.414,312.839c-0.213,0-0.415-0.127-0.498-0.339c-0.106-0.274,0.028-0.584,0.304-0.693 c0.197-0.077,4.889-1.893,10.074-2.309c0.304-0.025,0.554,0.196,0.576,0.489c0.022,0.296-0.195,0.554-0.489,0.576 c-5.025,0.401-9.725,2.222-9.771,2.24C601.544,312.828,601.479,312.839,601.414,312.839z"/><path fill="#FFF" d="M637.389,311.702c-0.031,0-0.062-0.002-0.094-0.008c-8.075-1.42-14.307-1.619-15.067-1.254 c-0.211,0.175-0.524,0.167-0.722-0.032c-0.209-0.207-0.209-0.546,0-0.756c1.009-1.008,9.928-0.072,15.975,0.99 c0.29,0.051,0.484,0.327,0.435,0.618C637.868,311.521,637.644,311.702,637.389,311.702z"/><path fill="#FFF" d="M596.659,321.111c-0.198,0-0.39-0.113-0.481-0.303c-0.127-0.267-0.015-0.587,0.25-0.715 c0.215-0.103,5.26-2.516,7.578-2.937c0.291-0.056,0.569,0.137,0.623,0.428c0.052,0.292-0.141,0.568-0.431,0.622 c-2.179,0.396-7.256,2.826-7.308,2.85C596.816,321.094,596.737,321.111,596.659,321.111z"/><path fill="#FFF" d="M615.268,316.872c-0.228,0-0.439-0.147-0.51-0.376c-0.088-0.279,0.069-0.581,0.35-0.669 c0.522-0.163,5.154-1.583,6.905-1.146c0.286,0.07,0.46,0.363,0.388,0.648c-0.071,0.287-0.363,0.459-0.647,0.388 c-1.233-0.31-4.985,0.71-6.326,1.128C615.375,316.863,615.32,316.872,615.268,316.872z"/><path fill="#FFF" d="M645.038,319.25c-0.093,0-0.188-0.025-0.274-0.077c-3.953-2.37-7.323-2.306-7.36-2.301h-0.015 c-0.289,0-0.526-0.229-0.535-0.52c-0.008-0.293,0.225-0.541,0.519-0.548c0.149,0,3.72-0.08,7.941,2.453 c0.253,0.15,0.335,0.479,0.183,0.733C645.396,319.158,645.221,319.25,645.038,319.25z"/><path fill="#FFF" d="M577.145,372.176c-0.014,0-0.028,0-0.042,0c-0.293-0.023-0.514-0.281-0.492-0.573 c0.396-5.165-0.82-6.564-1.32-6.669c-0.295-0.024-0.499-0.282-0.471-0.578c0.025-0.292,0.303-0.513,0.592-0.48 c0.291,0.024,2.828,0.464,2.265,7.809C577.655,371.963,577.42,372.176,577.145,372.176z"/><path fill="#FFF" d="M583.635,374.023c-0.03,0-0.061-0.002-0.092-0.009c-0.291-0.051-0.485-0.327-0.436-0.618 c0.774-4.455-1.494-6.943-1.517-6.968c-0.201-0.216-0.189-0.553,0.024-0.756c0.216-0.201,0.555-0.188,0.755,0.027 c0.109,0.114,2.653,2.903,1.79,7.878C584.115,373.841,583.891,374.023,583.635,374.023z"/><path fill="#FFF" d="M578.879,393.059c-0.075,0-0.149-0.015-0.221-0.049c-0.27-0.121-0.388-0.438-0.266-0.707 c0.794-1.746,0.221-8.053,0.032-10.123c-0.055-0.619-0.081-0.898-0.081-1.026c0-0.294,0.239-0.533,0.535-0.533 c0.294,0,0.533,0.239,0.533,0.533c0,0.085,0.037,0.494,0.077,0.928c0.366,4.032,0.683,8.888-0.125,10.663 C579.275,392.941,579.081,393.059,578.879,393.059z"/><path fill="#FFF" d="M562.34,389.955c-0.24,0-0.458-0.16-0.518-0.403c-0.636-2.54-0.04-9.2-0.016-9.481 c0.028-0.294,0.285-0.514,0.581-0.482c0.294,0.024,0.511,0.284,0.484,0.58c-0.007,0.066-0.605,6.76-0.015,9.124 c0.072,0.286-0.104,0.575-0.388,0.648C562.426,389.951,562.383,389.955,562.34,389.955z"/><path fill="#FFF" d="M530.295,391.817c-0.015,0-0.03,0-0.046-0.003l-38.073-3.308c-0.293-0.025-0.511-0.283-0.484-0.577 c0.025-0.294,0.279-0.51,0.578-0.486l38.072,3.308c0.295,0.024,0.511,0.284,0.486,0.578 C530.803,391.607,530.57,391.817,530.295,391.817z"/><path fill="#FFF" d="M521.405,405.049c-0.074,0-0.149-0.016-0.22-0.047l-29.184-13.233c-0.269-0.121-0.389-0.438-0.266-0.706 c0.123-0.27,0.439-0.389,0.707-0.268l29.183,13.234c0.269,0.121,0.389,0.438,0.267,0.705 C521.803,404.934,521.608,405.049,521.405,405.049z"/><path fill="#FFF" d="M521.405,417.455c-0.11,0-0.22-0.033-0.314-0.102l-29.185-21.297c-0.235-0.175-0.289-0.507-0.114-0.746 c0.173-0.238,0.508-0.293,0.745-0.116l29.184,21.297c0.236,0.171,0.29,0.506,0.115,0.744 C521.733,417.379,521.57,417.455,521.405,417.455z"/><path fill="#8296AA" d="M476.539,378.97c-0.072,0-0.148-0.015-0.221-0.048l-30.786-14.029c-0.268-0.123-0.386-0.439-0.264-0.708 c0.121-0.269,0.439-0.388,0.707-0.265l30.786,14.031c0.268,0.121,0.387,0.439,0.265,0.707 C476.938,378.854,476.743,378.97,476.539,378.97z"/><path fill="#8296AA" d="M470.979,382.24c-0.052,0-0.105-0.006-0.159-0.022l-24.669-7.665c-0.283-0.088-0.44-0.388-0.353-0.668 c0.088-0.282,0.388-0.439,0.668-0.353l24.672,7.666c0.28,0.087,0.438,0.387,0.352,0.667 C471.418,382.094,471.207,382.24,470.979,382.24z"/><path fill="#8296AA" d="M471.477,385.551c-0.019,0-0.039,0-0.061-0.004l-25.668-2.912c-0.293-0.033-0.502-0.298-0.471-0.592 c0.034-0.293,0.301-0.504,0.592-0.469l25.668,2.91c0.294,0.033,0.504,0.298,0.471,0.59 C471.979,385.35,471.745,385.551,471.477,385.551z"/><path fill="#FFF" d="M485.844,391.817c-2.846,0-4.172-1.462-4.707-5.454c-1.426,1.663-3.527,1.434-4.32,1.345 c-0.119-0.012-0.213-0.024-0.275-0.024c-0.296,0-0.535-0.24-0.535-0.536c0-0.295,0.239-0.533,0.535-0.533 c0.088,0,0.224,0.015,0.392,0.033c1.016,0.11,3.127,0.343,4.067-2.167c0.09-0.236,0.332-0.377,0.578-0.342 c0.248,0.036,0.438,0.238,0.456,0.488c0.422,5.672,1.909,6.122,3.81,6.122c0.295,0,0.534,0.239,0.534,0.534 S486.139,391.817,485.844,391.817z"/><path fill="#8296AA" d="M601.516,253.488h-7.257v-7.255c0-0.932-0.756-1.688-1.687-1.688s-1.688,0.756-1.688,1.688v7.255h-7.254 c-0.932,0-1.688,0.756-1.688,1.686c0,0.931,0.756,1.687,1.688,1.687h7.254v7.257c0,0.93,0.757,1.686,1.688,1.686 s1.687-0.756,1.687-1.686v-7.257h7.257c0.93,0,1.685-0.756,1.685-1.687C603.2,254.244,602.445,253.488,601.516,253.488z"/><path fill="#8296AA" d="M505.257,294.357H498v-7.254c0-0.929-0.755-1.685-1.686-1.685c-0.932,0-1.688,0.756-1.688,1.685v7.254 h-7.254c-0.932,0-1.687,0.756-1.687,1.688c0,0.932,0.755,1.688,1.687,1.688h7.254v7.255c0,0.932,0.756,1.686,1.688,1.686 c0.931,0,1.686-0.754,1.686-1.686v-7.255h7.257c0.929,0,1.686-0.756,1.686-1.688C506.942,295.113,506.186,294.357,505.257,294.357z"/><path fill="#8296AA" d="M529.735,276.299h-3.571v-3.572c0-0.458-0.373-0.832-0.831-0.832s-0.83,0.374-0.83,0.832v3.572h-3.571 c-0.459,0-0.831,0.372-0.831,0.83c0,0.459,0.372,0.83,0.831,0.83h3.571v3.572c0,0.458,0.372,0.83,0.83,0.83s0.831-0.372,0.831-0.83 v-3.572h3.571c0.458,0,0.831-0.371,0.831-0.83C530.566,276.671,530.193,276.299,529.735,276.299z"/><path fill="#8296AA" d="M526.513,222.587h-7.256v-7.254c0-0.93-0.756-1.687-1.686-1.687c-0.933,0-1.688,0.757-1.688,1.687v7.254 h-7.255c-0.932,0-1.687,0.757-1.687,1.688c0,0.933,0.755,1.687,1.687,1.687h7.255v7.257c0,0.929,0.755,1.685,1.688,1.685 c0.93,0,1.686-0.756,1.686-1.685v-7.257h7.256c0.931,0,1.685-0.754,1.685-1.687C528.197,223.344,527.443,222.587,526.513,222.587z"/></svg>