<svg xmlns="http://www.w3.org/2000/svg" version="1.0" viewBox="0 0 1133.859 1133.858"><path fill="#07183D" d="M87.258,168.564H70.037v-17.223c0-2.211-1.795-4.002-4.004-4.002c-2.211,0-4.005,1.791-4.005,4.002v17.223 H44.807c-2.209,0-4.002,1.794-4.002,4.005c0,2.21,1.793,4.003,4.002,4.003h17.222v17.225c0,2.21,1.794,4.002,4.005,4.002 c2.209,0,4.004-1.792,4.004-4.002v-17.225h17.221c2.211,0,4.004-1.793,4.004-4.003C91.262,170.358,89.469,168.564,87.258,168.564z"/><path fill="#07183D" d="M300.052,103.426V86.205h17.222c2.211,0,4.002-1.795,4.002-4.004c0-2.21-1.791-4.004-4.002-4.004h-17.222 V60.975c0-2.208-1.794-4.002-4.005-4.002s-4.002,1.794-4.002,4.002v17.223h-17.226c-2.21,0-4.002,1.794-4.002,4.004 c0,2.209,1.792,4.004,4.002,4.004h17.226v17.221c0,2.211,1.791,4.006,4.002,4.006S300.052,105.637,300.052,103.426z"/><path fill="#07183D" d="M362.056,38.572v-7.877h7.877c1.012,0,1.831-0.822,1.831-1.832c0-1.011-0.819-1.832-1.831-1.832h-7.877 v-7.877c0-1.01-0.82-1.83-1.832-1.83s-1.831,0.82-1.831,1.83v7.877h-7.878c-1.012,0-1.831,0.821-1.831,1.832 c0,1.01,0.819,1.832,1.831,1.832h7.878v7.877c0,1.01,0.819,1.832,1.831,1.832S362.056,39.582,362.056,38.572z"/><path fill="#07183D" d="M324.197,149.996v-7.877h7.877c1.011,0,1.831-0.82,1.831-1.832c0-1.011-0.82-1.831-1.831-1.831h-7.877 v-7.878c0-1.01-0.821-1.831-1.832-1.831s-1.832,0.821-1.832,1.831v7.878h-7.877c-1.012,0-1.831,0.82-1.831,1.831 c0,1.012,0.819,1.832,1.831,1.832h7.877v7.877c0,1.012,0.821,1.832,1.832,1.832S324.197,151.008,324.197,149.996z"/><path fill="#07183D" d="M228.259,50.113v-7.877h7.877c1.012,0,1.831-0.82,1.831-1.832c0-1.011-0.819-1.831-1.831-1.831h-7.877 v-7.878c0-1.01-0.822-1.832-1.832-1.832c-1.011,0-1.832,0.822-1.832,1.832v7.878h-7.877c-1.012,0-1.831,0.82-1.831,1.831 c0,1.012,0.819,1.832,1.831,1.832h7.877v7.877c0,1.012,0.821,1.832,1.832,1.832C227.437,51.945,228.259,51.125,228.259,50.113z"/><path fill="#ffffff" d="M804.942,839.284c-0.312,0-0.624-0.09-0.899-0.277c-8.385-5.682-13.982-8.571-14.039-8.601 c-0.789-0.403-1.101-1.372-0.695-2.162c0.403-0.789,1.373-1.102,2.163-0.696c0.231,0.119,5.81,2.995,14.374,8.799 c0.735,0.497,0.926,1.497,0.429,2.231C805.964,839.037,805.457,839.284,804.942,839.284z"/><path fill="#ffffff" d="M843.516,1093.444c-0.774,0-1.457-0.561-1.584-1.351l-1.121-6.967c-0.143-0.874,0.455-1.699,1.33-1.841 c0.88-0.143,1.701,0.455,1.843,1.332l1.12,6.965c0.141,0.876-0.454,1.7-1.331,1.842 C843.687,1093.438,843.6,1093.444,843.516,1093.444z"/><path fill="#ffffff" d="M841.248,1079.358c-0.775,0-1.457-0.562-1.585-1.351l-2.716-16.876c-0.143-0.877,0.455-1.701,1.33-1.843 c0.876-0.14,1.701,0.456,1.843,1.331l2.716,16.876c0.141,0.876-0.454,1.701-1.33,1.843 C841.419,1079.353,841.333,1079.358,841.248,1079.358z"/><polygon fill="#F76683" points="824.332 1003.345 976.189 1003.345 960.014 1096.07 839.194 1096.07"/><path fill="#2F6291" d="M1050.398,907.218c-14.525,27.982-30.931,48.084-47.505,62.49 c-53.169,46.178-108.099,33.637-108.099,33.637s14.975-74.844,88.849-94.085C1002.025,904.463,1024.047,903.114,1050.398,907.218z"/><path fill="#000015" d="M1002.894,969.708c-53.169,46.178-108.099,33.637-108.099,33.637s14.975-74.844,88.849-94.085 c-21.552,48.971,10.891,23.771,15.479,31.044C1003.901,947.875,1007.66,952.448,1002.894,969.708z"/><path fill="#000015" d="M895.356,1003.923l-1.115-1.156c0.071-0.069,7.276-7.002,19.084-17.023 c28.847-24.49,84.992-67.357,136.89-79.308l0.361,1.565c-51.567,11.875-107.476,54.572-136.213,78.967 C902.601,996.953,895.428,1003.854,895.356,1003.923z"/><rect width="47.802" height="1.609" x="931.878" y="978.057" fill="#000015" transform="matrix(0.9361 0.3517 -0.3517 0.9361 405.3168 -273.606)"/><rect width="51.722" height="1.607" x="938.066" y="972.56" fill="#000015" transform="matrix(0.9594 0.2822 -0.2822 0.9594 313.8819 -232.4696)"/><rect width="1.606" height="40.659" x="968.337" y="910.178" fill="#000015" transform="matrix(0.938 0.3465 -0.3465 0.938 382.4879 -278.1761)"/><path fill="#000015" d="M984.99,936.026l-0.81-1.389l0.405,0.693l-0.408-0.691c1.452-0.949,7.474-15.224,12.459-28.475l1.506,0.566 C996.4,911.356,987.588,934.513,984.99,936.026z"/><rect width="32.12" height="1.606" x="999.262" y="932.598" fill="#000015" transform="matrix(0.8965 0.443 -0.443 0.8965 518.5792 -353.2079)"/><rect width="1.607" height="36.254" x="921.171" y="945.604" fill="#000015" transform="matrix(0.9902 0.1398 -0.1398 0.9902 143.7883 -119.4314)"/><rect width="51.901" height="1.606" x="950.499" y="963.159" fill="#000015" transform="matrix(0.9631 0.2693 -0.2693 0.9631 295.6614 -227.3416)"/><path fill="#2F6291" d="M972.669,928.759c-24.488,63.412-76.878,78.089-76.878,78.089s-12.461-40.259,4.378-81.985 c11.208-27.767,35.374-56.183,84.8-73.834C985.571,882.771,980.574,908.304,972.669,928.759z"/><path fill="#000015" d="M972.669,928.759c-24.488,63.412-76.878,78.089-76.878,78.089s-12.461-40.259,4.378-81.985 c-0.642,15.995,11.657,16.145,16.382,23.013C922.641,956.729,928.642,928.94,972.669,928.759z"/><path fill="#000015" d="M896.555,1007.091l-1.533-0.484c0.029-0.094,2.997-9.449,8.486-23.629 c13.412-34.64,41.759-97.922,80.926-132.548l1.064,1.203c-38.912,34.4-67.133,97.422-80.491,131.926 C899.537,997.686,896.583,1006.998,896.555,1007.091z"/><rect width="1.607" height="46.923" x="936.114" y="933.697" fill="#000015" transform="matrix(0.1379 0.9904 -0.9904 0.1379 1755.6958 -102.8276)"/><rect width="1.605" height="50.771" x="940.568" y="923.213" fill="#000015" transform="matrix(0.2105 0.9776 -0.9776 0.2105 1670.5735 -171.3483)"/><rect width="39.91" height="1.606" x="905.834" y="908.387" fill="#000015" transform="matrix(0.143 0.9897 -0.9897 0.143 1693.2753 -137.0773)"/><path fill="#000015" d="M942.057,906.53l-1.373-0.834l0.686,0.418l-0.688-0.413c0.804-1.511-0.688-16.638-2.596-30.39l1.593-0.221 C940.614,881.844,943.553,904.068,942.057,906.53z"/><rect width="1.607" height="31.528" x="966.176" y="874.285" fill="#000015" transform="matrix(0.0377 0.9993 -0.9993 0.0377 1819.9539 -109.7858)"/><rect width="35.589" height="1.608" x="882.876" y="959.142" fill="#000015" transform="matrix(0.3489 0.9372 -0.9372 0.3489 1486.0793 -219.0366)"/><rect width="1.607" height="50.946" x="946.963" y="909.149" fill="#000015" transform="matrix(0.2236 0.9747 -0.9747 0.2236 1646.7849 -198.1415)"/><path fill="#2F6291" d="M776.462,857.317c-0.158-13.082,0.948-27.254,3.591-42.603c121.089,65.293,119.61,157.957,116.244,185.104 c-0.61,4.981-1.293,7.753-1.293,7.753s-72.74-15.755-104.266-83.636v-0.007C782.273,905.711,776.783,883.742,776.462,857.317"/><path fill="#000015" d="M896.297,999.819c-0.61,4.981-1.293,7.753-1.293,7.753s-72.74-15.755-104.266-83.636v-0.007 c0,0,72.137,25.62,86.157,38.154C885.283,969.58,892.144,987.013,896.297,999.819z"/><path fill="#000015" d="M895.007,1008.377c-0.44,0-0.478,0-6.271-6.563c-3.285-3.721-8.524-9.766-14.832-17.439 c-29.484-35.875-80.984-105.596-94.637-169.489l1.571-0.336c13.58,63.561,64.915,133.044,94.308,168.805 c12.204,14.851,20.367,23.585,20.443,23.667l-0.582,0.549V1008.377z"/><rect width="1.605" height="58.679" x="865.341" y="902.907" fill="#000015" transform="matrix(0.9305 0.3663 -0.3663 0.9305 401.744 -252.4985)"/><rect width="1.607" height="63.493" x="858.751" y="890.391" fill="#000015" transform="matrix(0.9548 0.2972 -0.2972 0.9548 312.9005 -213.7942)"/><rect width="49.912" height="1.608" x="782.098" y="914.1" fill="#000015" transform="matrix(0.9323 0.3616 -0.3616 0.9323 385.4576 -229.9287)"/><path fill="#000015" d="M812.574,896.435c-1.029-1.835-18.695-9.575-34.796-15.924l0.589-1.497 c5.635,2.224,33.835,13.471,35.607,16.636L812.574,896.435z"/><rect width="1.606" height="39.429" x="810.703" y="838.562" fill="#000015" transform="matrix(0.8894 0.4572 -0.4572 0.8894 482.1295 -276.0476)"/><rect width="44.505" height="1.606" x="824.661" y="972.641" fill="#000015" transform="matrix(0.9877 0.1565 -0.1565 0.9877 162.7498 -120.5284)"/><rect width="1.605" height="63.71" x="847.456" y="874.731" fill="#000015" transform="matrix(0.9586 0.2847 -0.2847 0.9586 293.1721 -203.9633)"/><polygon fill="#c03257" points="943.376 1003.345 975.837 1003.345 959.662 1096.07 935.722 1096.07"/><path fill="#2F6291" d="M895.007,1007.573c0,0,16.908-84.514,112.653-69.596C963.439,1023.202,895.007,1007.573,895.007,1007.573z"/><path fill="#000015" d="M895.565,1008.151l-1.116-1.156c0.052-0.051,5.273-5.074,13.828-12.336 c20.902-17.741,61.585-48.801,99.202-57.463l0.361,1.564c-37.286,8.588-77.733,39.477-98.525,57.125 C900.805,1003.11,895.615,1008.103,895.565,1008.151z"/><rect width="34.61" height="1.606" x="921.852" y="989.044" fill="#000015" transform="matrix(0.9361 0.3517 -0.3517 0.9361 408.1523 -267.0726)"/><rect width="37.448" height="1.606" x="926.333" y="985.064" fill="#000015" transform="matrix(0.9594 0.2822 -0.2822 0.9594 316.641 -226.6345)"/><rect width="1.606" height="29.438" x="948.028" y="940.12" fill="#000015" transform="matrix(0.938 0.3465 -0.3465 0.938 389.6608 -269.6311)"/><path fill="#000015" d="M960.418,959.026l-0.808-1.389l-0.021,0.014c1.082-0.838,5.396-11.088,8.943-20.515l1.504,0.567 C967.759,943.756,962.264,957.95,960.418,959.026z"/><rect width="23.256" height="1.608" x="970.64" y="956.131" fill="#000015" transform="matrix(0.8965 0.443 -0.443 0.8965 525.5308 -336.1101)"/><rect width="1.608" height="26.249" x="913.88" y="965.768" fill="#000015" transform="matrix(0.9902 0.1397 -0.1397 0.9902 145.7432 -118.1979)"/><rect width="37.574" height="1.606" x="935.336" y="978.258" fill="#000015" transform="matrix(0.9631 0.2693 -0.2693 0.9631 298.9269 -220.7844)"/><path fill="#2F6291" d="M812.462,971.326c-3.74-6.596-7.037-14.287-9.71-23.252c80.092,2.747,92.867,59.926,92.867,59.926 S841.066,1021.749,812.462,971.326"/><path fill="#000015" d="M895.336,1008.752c-0.057-0.021-5.719-2.153-14.264-5.997c-20.881-9.391-58.905-28.917-78.949-54.182 l1.258-0.998c19.833,24.998,57.603,44.383,78.351,53.714c8.498,3.822,14.114,5.938,14.171,5.958L895.336,1008.752z"/><rect width="28.887" height="1.606" x="851.977" y="980.285" fill="#000015" transform="matrix(0.0849 0.9964 -0.9964 0.0849 1770.4519 34.5443)"/><rect width="31.256" height="1.606" x="845.675" y="977.267" fill="#000015" transform="matrix(0.1576 0.9875 -0.9875 0.1576 1691.4447 -26.5838)"/><rect width="1.607" height="24.569" x="835.761" y="974.073" fill="#000015" transform="matrix(0.0893 0.996 -0.996 0.0893 1744.249 65.0259)"/><path fill="#000015" d="M816.168,977.997l-0.135-1.602c5.393-0.457,18.099-1.407,19.606-0.381l-0.907,1.328l0.035,0.02 C833.68,976.863,824.456,977.294,816.168,977.997z"/><rect width="1.607" height="19.41" x="825.345" y="950.704" fill="#000015" transform="matrix(0.9999 0.0134 -0.0134 0.9999 12.9171 -10.9619)"/><rect width="1.606" height="21.91" x="866.143" y="992.508" fill="#000015" transform="matrix(0.2985 0.9544 -0.9544 0.2985 1565.8976 -123.4795)"/><rect width="31.362" height="1.608" x="837.24" y="972.877" fill="#000015" transform="matrix(0.1709 0.9853 -0.9853 0.1709 1666.524 -33.0855)"/><path fill="#c03257" d="M847.541,1021.062c-0.395,0-0.738-0.292-0.794-0.695c-0.059-0.439,0.249-0.844,0.688-0.904l100.411-13.586 c0.44-0.057,0.845,0.25,0.905,0.689c0.059,0.439-0.248,0.844-0.688,0.904l-100.413,13.586 C847.613,1021.06,847.578,1021.062,847.541,1021.062z"/><path fill="#c03257" d="M857.236,1034.611c-0.396,0-0.74-0.292-0.794-0.696c-0.061-0.439,0.247-0.844,0.687-0.903l92.693-12.542 c0.437-0.06,0.845,0.248,0.904,0.688c0.061,0.439-0.248,0.845-0.687,0.904l-92.694,12.542 C857.309,1034.609,857.271,1034.611,857.236,1034.611z"/><path fill="#c03257" d="M863.292,1048.65c-0.396,0-0.741-0.292-0.797-0.695c-0.059-0.439,0.25-0.845,0.689-0.904l88.612-11.99 c0.439-0.06,0.846,0.25,0.904,0.689c0.06,0.439-0.248,0.845-0.688,0.903l-88.614,11.99 C863.364,1048.648,863.327,1048.65,863.292,1048.65z"/><path fill="#c03257" d="M870.59,1062.524c-0.396,0-0.741-0.294-0.796-0.697c-0.06-0.438,0.25-0.844,0.688-0.903l83.289-11.271 c0.44-0.053,0.844,0.249,0.902,0.689c0.061,0.439-0.247,0.844-0.687,0.904l-83.29,11.27 C870.662,1062.521,870.625,1062.524,870.59,1062.524z"/><path fill="#c03257" d="M874.583,1076.844c-0.396,0-0.741-0.293-0.796-0.696c-0.06-0.439,0.25-0.845,0.689-0.904l81.271-10.996 c0.438-0.055,0.843,0.248,0.903,0.689c0.06,0.439-0.25,0.844-0.688,0.903l-81.271,10.996 C874.655,1076.842,874.618,1076.844,874.583,1076.844z"/><path fill="#c03257" d="M885.271,1090.256c-0.396,0-0.74-0.292-0.795-0.695c-0.06-0.439,0.25-0.844,0.689-0.903l72.555-9.817 c0.443-0.056,0.844,0.25,0.904,0.69c0.059,0.438-0.249,0.843-0.688,0.902l-72.557,9.817 C885.344,1090.254,885.309,1090.256,885.271,1090.256z"/><path fill="#ffffff" d="M877.402,923.745c-0.621,0-1.212-0.362-1.476-0.967c-1.663-3.834-3.508-7.68-5.484-11.43 c-0.413-0.785-0.113-1.756,0.672-2.171c0.784-0.413,1.757-0.112,2.171,0.673c2.016,3.822,3.896,7.74,5.59,11.648 c0.354,0.814-0.021,1.761-0.835,2.113C877.832,923.702,877.615,923.745,877.402,923.745z"/><path fill="#ffffff" d="M866.229,902.317c-0.539,0-1.068-0.271-1.371-0.766c-2.443-3.982-5.099-7.951-7.892-11.797 c-0.522-0.719-0.362-1.723,0.354-2.244c0.719-0.521,1.723-0.361,2.246,0.355c2.842,3.914,5.544,7.953,8.03,12.005 c0.464,0.755,0.228,1.746-0.528,2.21C866.806,902.241,866.515,902.317,866.229,902.317z"/><path fill="#ffffff" d="M852.37,882.714c-0.47,0-0.935-0.204-1.253-0.599c-9.934-12.329-21.606-23.792-34.696-34.065 c-0.698-0.547-0.82-1.559-0.272-2.256c0.549-0.699,1.558-0.819,2.256-0.272c13.281,10.425,25.13,22.059,35.215,34.579 c0.558,0.691,0.448,1.701-0.242,2.258C853.079,882.598,852.724,882.714,852.37,882.714z"/><path fill="#ffffff" d="M876.335,981.404c-0.384,0-0.769-0.137-1.075-0.415c-4.777-4.313-11.767-8.93-20.772-13.722 c-0.784-0.416-1.082-1.39-0.664-2.173c0.415-0.783,1.388-1.08,2.173-0.663c9.239,4.913,16.444,9.684,21.416,14.174 c0.658,0.595,0.711,1.61,0.116,2.269C877.211,981.227,876.773,981.404,876.335,981.404z"/><path fill="#ffffff" d="M847.362,965.438c-0.191,0-0.387-0.037-0.576-0.109c-6.426-2.472-13.511-4.895-21.058-7.2 c-0.848-0.26-1.326-1.159-1.066-2.007c0.259-0.849,1.156-1.328,2.008-1.068c7.617,2.33,14.773,4.777,21.27,7.277 c0.828,0.318,1.242,1.248,0.924,2.076C848.617,965.046,848.008,965.438,847.362,965.438z"/><path fill="#ffffff" d="M819.403,956.193c-0.146,0-0.295-0.02-0.441-0.062c-4.768-1.357-7.813-2.117-7.843-2.125 c-0.862-0.214-1.387-1.086-1.173-1.947c0.215-0.86,1.086-1.389,1.947-1.172c0.031,0.008,3.124,0.779,7.949,2.153 c0.852,0.243,1.349,1.132,1.104,1.985C820.747,955.732,820.103,956.193,819.403,956.193z"/><path fill="#ffffff" d="M978.156,876.808c-0.072,0-0.146-0.004-0.219-0.014c-0.879-0.12-1.495-0.929-1.377-1.809 c0.428-3.15,0.818-6.17,0.909-8.492c0.036-0.888,0.767-1.584,1.669-1.543c0.887,0.035,1.577,0.782,1.543,1.668 c-0.097,2.465-0.499,5.569-0.937,8.799C979.637,876.224,978.946,876.808,978.156,876.808z"/><path fill="#ffffff" d="M952.193,873.671c-0.492,0-0.979-0.224-1.294-0.65c-0.528-0.711-0.378-1.719,0.335-2.246 c4.401-3.263,8.652-6.033,12.637-8.234c2.425-1.34,4.443-2.333,6.169-3.036c0.82-0.338,1.76,0.057,2.095,0.882 c0.334,0.82-0.06,1.758-0.882,2.093c-1.608,0.655-3.515,1.596-5.827,2.874c-3.858,2.133-7.991,4.826-12.278,8.003 C952.86,873.568,952.524,873.671,952.193,873.671z"/><path fill="#ffffff" d="M932.009,891.655c-0.31,0-0.623-0.089-0.899-0.277c-0.735-0.497-0.927-1.496-0.429-2.23 c0.97-1.432,5.513-5.986,11.157-10.848c0.672-0.578,1.688-0.503,2.266,0.17c0.58,0.672,0.503,1.687-0.168,2.266 c-6.28,5.407-10.071,9.443-10.595,10.215C933.03,891.407,932.524,891.655,932.009,891.655z"/><path fill="#ffffff" d="M1004.664,913.87c-0.791,0-1.479-0.584-1.59-1.389c-0.12-0.88,0.495-1.689,1.374-1.811 c2.043-0.28,4.069-0.535,6.021-0.76c0.882-0.1,1.68,0.531,1.781,1.412s-0.531,1.679-1.412,1.78 c-1.93,0.222-3.932,0.476-5.953,0.751C1004.811,913.865,1004.737,913.87,1004.664,913.87z"/><path fill="#ffffff" d="M976.23,942.923c-0.763,0-1.44-0.546-1.58-1.322c-0.157-0.873,0.423-1.709,1.298-1.865 c2.187-0.394,4.397-0.739,6.574-1.025c0.882-0.104,1.687,0.504,1.803,1.385c0.116,0.88-0.505,1.686-1.384,1.803 c-2.127,0.277-4.288,0.616-6.426,1C976.42,942.915,976.324,942.923,976.23,942.923z"/><path fill="#ffffff" d="M957.338,947.737c-0.672,0-1.3-0.426-1.523-1.098c-0.281-0.844,0.174-1.753,1.016-2.034 c0.771-0.257,1.556-0.511,2.351-0.759c0.85-0.263,1.748,0.208,2.013,1.056c0.265,0.847-0.209,1.749-1.057,2.012 c-0.775,0.241-1.537,0.489-2.29,0.74C957.679,947.71,957.508,947.737,957.338,947.737z"/><path fill="#ffffff" d="M926.96,962.601c-0.51,0-1.012-0.243-1.324-0.695c-0.504-0.73-0.32-1.73,0.411-2.234 c0.604-0.418,1.273-0.869,2.004-1.346c0.743-0.486,1.739-0.275,2.225,0.467c0.484,0.744,0.274,1.739-0.469,2.225 c-0.707,0.461-1.353,0.896-1.936,1.299C927.593,962.508,927.273,962.601,926.96,962.601z"/><path fill="#ffffff" d="M922.936,965.567c-0.48,0-0.959-0.217-1.275-0.629c-0.539-0.703-0.408-1.713,0.297-2.252l0.184-0.144 c0.556-0.437,1.855-1.458,3.904-2.872c0.731-0.504,1.732-0.321,2.237,0.409c0.504,0.731,0.319,1.731-0.41,2.235 c-1.97,1.358-3.215,2.338-3.748,2.756l-0.21,0.163C923.623,965.458,923.278,965.567,922.936,965.567z"/><path fill="#ffffff" d="M837.062,1053.354c-0.774,0-1.458-0.561-1.585-1.352l-4.129-25.647c-0.141-0.876,0.455-1.7,1.331-1.843 c0.877-0.142,1.7,0.457,1.843,1.334l4.129,25.646c0.14,0.877-0.456,1.699-1.331,1.842 C837.232,1053.349,837.146,1053.354,837.062,1053.354z"/><path fill="#ffffff" d="M831.883,1021.19c-0.774,0-1.456-0.561-1.583-1.352l-1.564-9.715c-0.141-0.875,0.455-1.7,1.331-1.842 c0.879-0.139,1.7,0.455,1.842,1.332l1.563,9.715c0.141,0.875-0.454,1.699-1.331,1.842 C832.054,1021.185,831.968,1021.19,831.883,1021.19z"/><path fill="#000015" d="M793.194,930.146c-0.36,0-0.715-0.159-0.952-0.465c-2.906-3.73-5.491-9.034-7.681-15.762 c-0.207-0.635,0.14-1.313,0.771-1.52c0.632-0.209,1.314,0.14,1.52,0.772c2.104,6.462,4.559,11.519,7.293,15.028 c0.409,0.523,0.314,1.281-0.21,1.69C793.714,930.063,793.453,930.146,793.194,930.146z"/><path fill="#000015" d="M782.334,901.888c-0.557,0-1.057-0.389-1.178-0.955c-1.988-9.411-3.513-20.648-4.531-33.396 c-0.053-0.663,0.442-1.244,1.106-1.297c0.657-0.043,1.243,0.441,1.297,1.105c1.01,12.645,2.519,23.777,4.486,33.089 c0.138,0.65-0.278,1.291-0.929,1.429C782.5,901.88,782.418,901.888,782.334,901.888z"/><path fill="#000015" d="M776.902,853.713c-0.641,0-1.174-0.505-1.202-1.151c-0.669-14.807-0.46-25.843-0.459-25.952 c0.014-0.657,0.552-1.182,1.206-1.182c0.007,0,0.015,0,0.023,0c0.665,0.014,1.193,0.563,1.181,1.229 c-0.002,0.109-0.208,11.073,0.456,25.798c0.029,0.664-0.485,1.227-1.15,1.256C776.939,853.712,776.92,853.713,776.902,853.713z"/><path fill="#000015" d="M847.32,1004.556c-0.16,0-0.322-0.031-0.478-0.101c-3.733-1.616-7.382-3.634-10.846-5.996 c-0.549-0.374-0.69-1.125-0.315-1.675c0.375-0.549,1.123-0.692,1.676-0.316c3.336,2.275,6.851,4.221,10.443,5.777 c0.61,0.265,0.892,0.975,0.626,1.586C848.229,1004.284,847.787,1004.556,847.32,1004.556z"/><path fill="#000015" d="M824.669,988.357c-0.318,0-0.638-0.126-0.875-0.376c-14.024-14.82-19.755-31.609-19.992-32.316 c-0.212-0.632,0.129-1.314,0.76-1.525c0.63-0.211,1.313,0.128,1.525,0.758c0.057,0.169,5.813,17.009,19.458,31.427 c0.457,0.482,0.438,1.245-0.047,1.704C825.266,988.249,824.967,988.357,824.669,988.357z"/><path fill="#000015" d="M952.454,867.479c-0.422,0-0.832-0.223-1.053-0.618c-0.325-0.58-0.116-1.315,0.464-1.639 c12.09-6.745,20.229-10.424,20.309-10.462c0.607-0.271,1.321-0.001,1.594,0.605c0.273,0.607,0.002,1.32-0.604,1.594 c-0.079,0.035-8.133,3.677-20.121,10.367C952.855,867.431,952.653,867.479,952.454,867.479z"/><path fill="#000015" d="M922.516,890.224c-0.296,0-0.593-0.109-0.826-0.329c-0.483-0.455-0.508-1.218-0.051-1.702 c3.098-3.292,6.434-6.433,9.912-9.334c0.512-0.428,1.271-0.357,1.697,0.153c0.426,0.51,0.358,1.271-0.152,1.696 c-3.405,2.841-6.67,5.915-9.703,9.137C923.155,890.097,922.836,890.224,922.516,890.224z"/><path fill="#000015" d="M910.563,905.35c-0.229,0-0.457-0.064-0.661-0.198c-0.558-0.365-0.71-1.112-0.345-1.668 c2.217-3.375,4.657-6.676,7.249-9.813c0.424-0.515,1.183-0.586,1.696-0.161c0.514,0.424,0.586,1.185,0.161,1.696 c-2.537,3.071-4.924,6.301-7.094,9.602C911.339,905.159,910.955,905.35,910.563,905.35z"/><path fill="#000015" d="M900.169,926.067c-0.113,0-0.229-0.018-0.345-0.052c-0.637-0.19-0.999-0.861-0.809-1.498 c0.055-0.188,1.419-4.698,4.953-11.515c0.307-0.59,1.034-0.82,1.624-0.516c0.591,0.307,0.821,1.035,0.517,1.625 c-3.421,6.596-4.772,11.051-4.785,11.095C901.167,925.729,900.688,926.067,900.169,926.067z"/><path fill="#000015" d="M960.143,941.056c-0.528,0-1.013-0.352-1.161-0.886c-0.177-0.642,0.202-1.305,0.843-1.481 c6.228-1.715,12.805-2.894,19.55-3.504c0.66-0.052,1.248,0.429,1.309,1.093c0.06,0.663-0.429,1.247-1.093,1.31 c-6.603,0.595-13.037,1.748-19.125,3.426C960.355,941.041,960.249,941.056,960.143,941.056z"/><path fill="#000015" d="M926.418,957.987c-0.355,0-0.708-0.155-0.945-0.455c-0.414-0.521-0.327-1.28,0.195-1.693 c5.564-4.416,11.713-8.218,18.271-11.299c0.604-0.283,1.321-0.023,1.604,0.578c0.283,0.604,0.023,1.321-0.578,1.604 c-6.391,3.002-12.378,6.704-17.798,11.005C926.944,957.903,926.68,957.987,926.418,957.987z"/><path fill="#000015" d="M909.17,976.741c-0.201,0-0.405-0.051-0.593-0.157c-0.579-0.327-0.782-1.063-0.455-1.642 c0.128-0.227,3.21-5.604,10.057-12.438c0.472-0.47,1.233-0.471,1.704,0.001c0.471,0.471,0.469,1.234-0.001,1.704 c-6.616,6.604-9.633,11.869-9.662,11.921C909.998,976.522,909.59,976.741,909.17,976.741z"/><path fill="#000015" d="M275.02,249.34c-12.834,0-23.275-10.441-23.275-23.275s10.441-23.274,23.275-23.274 s23.274,10.44,23.274,23.274S287.854,249.34,275.02,249.34z M275.02,204.79c-11.731,0-21.275,9.544-21.275,21.274 c0,11.731,9.544,21.275,21.275,21.275c11.73,0,21.274-9.544,21.274-21.275C296.294,214.334,286.75,204.79,275.02,204.79z"/><path fill="#07183D" d="M46.214,565.82l30.12-21l106.109,97.649l-34.449,24.021l-21.25,14.819c-8.45,5.9-20.08,3.82-25.971-4.63 l-59.189-84.89C35.684,583.34,37.764,571.71,46.214,565.82z"/><path fill="#2F6291" d="M182.544,642.4l-106.21-97.58c0,0,51.05,20.62,58.35,30.859c7.301,10.25,25.551,15.91,37.11,26.86 S182.544,642.4,182.544,642.4z"/><path fill="#2F6291" d="M958.063,759.442c0,8.102-6.57,14.672-14.674,14.672H528.222c-8.104,0-14.673-6.57-14.673-14.672V95.216 c0-8.104,6.569-14.673,14.673-14.673h415.167c8.104,0,14.674,6.569,14.674,14.673V759.442z"/><path fill="#000015" d="M230.645,966.99c-20.42,42.109-40.721,84.26-43.351,92.8c-4,13-3,40-6,50s-48,34-86,19s-44-26-20-60 s27-26,24-34c-1.63-4.36-1.19-40.44,2.62-85.81C134.624,962.33,185.554,977.521,230.645,966.99z"/><path fill="#F76683" d="M348.554,636.87c-17.06,99.02-44.97,205.17-88.26,268.92c-3.431,7.15-7.29,15.14-11.41,23.62 c-3.47,7.18-7.13,14.7-10.85,22.37c-0.011,0-0.011,0-0.011,0.01c-2.43,5.03-4.91,10.11-7.379,15.2 c-45.091,10.53-96.021-4.66-128.73-18.01c3.18-37.95,8.73-82.391,17.38-120.19c11.47-50.09,22.21-116.58,28.7-162.3l34.449-24.021 c-0.029,0.21-0.049,0.32-0.049,0.32l-11.101,8c0,0,3,8,18,9.5c8.2,1.77,18.37-4.32,28.271-13.57 c35.619,3.29,76.209,3.521,112.699-4.81C336.494,640.49,342.604,638.82,348.554,636.87z"/><path fill="#000015" d="M371.624,401.79c1.069,19.57-2,83.21-11.979,161.04c0,0,4.529,27,10.649,65.229 c-6.92,3.421-14.2,6.341-21.74,8.801v0.01c-5.95,1.95-12.06,3.62-18.29,5.04c-36.49,8.33-77.08,8.1-112.699,4.81 c19.649-18.35,38.27-49.12,38.41-55.52l30.139-21.01c8.451-5.891,10.521-17.521,4.631-25.971l-59.19-84.89 c-5.899-8.45-17.52-10.521-25.97-4.63l-52.12,36.34c-26.96,2.85-60.54,27.79-76.479,41.07c5.99-48.37,48.039-141.37,56.31-153.32 c5.931-8.56,33.09-21.46,53.81-30.98h0.01c12,22.851,46.99,78.101,105.381,88.931c27.72-41.22,6.84-113.46-0.53-133.17 c25.44-15.19,67.05-41.94,112.649-61.65c12.33,27.48,27.421,65.24,33.711,97.46C405.534,362.18,378.004,385.11,371.624,401.79z"/><path fill="#000015" d="M297.294,216.79l-14.649,8.33c0,0,0,0-0.011,0.01c-21.2,5.45-58.46,21.24-57.34,26.25 c1.38,6.16,0.5,16.34-4.59,14.19c-5.091-2.141-17.15-1.34-17.15,12.33c0,13.659,21.74,7.89,21.74,7.89 c-0.38,5.33-3.81,10.22-7.899,14.24c-0.061-0.79-0.101-1.24-0.101-1.24s-31.681-8.03-37.69-40.67 c-6.189,3.39-13.279,5.31-20.83,5.31c-24.029,0-43.5-19.47-43.5-43.5c0-24.02,19.471-43.5,43.5-43.5 c17.261,0,32.17,10.051,39.201,24.62c14.799-12.42,41.26-27.5,72.319-13.26C292.294,201.79,297.294,216.79,297.294,216.79z"/><path fill="#ffffff" d="M182.443,643.468L182.443,643.468c-0.553-0.001-1-0.446-1-0.998c0-0.109,0.029-0.298,0.063-0.401 c0.177-0.521,0.745-0.803,1.269-0.626c0.474,0.16,0.748,0.642,0.664,1.12C183.391,643.069,182.963,643.468,182.443,643.468z"/><path fill="#07183D" d="M284.375,570.112l-30.141,21.01c0.021-0.4-0.039-0.71-0.18-0.91c-3.5-5-51-86.5-87-98 c-4.71-1.5-9.88-1.83-15.33-1.25l52.12-36.34c8.45-5.891,20.069-3.82,25.97,4.63l59.19,84.89 C294.895,552.592,292.824,564.222,284.375,570.112z"/><path fill="#000015" d="M324.284,1133.6c-50.99-3.81-88.99-21.81-95.99-52.81c-5.33-23.61,6.16-88.41,9.729-129 c0-0.01,0-0.01,0.011-0.01c3.72-7.67,7.38-15.19,10.85-22.37c25.78,17.16,69.97,42.92,108.88,47.64 c-17.75,33.03-33.93,62.37-33.47,70.74c1,18,30,49,46,57S375.273,1137.4,324.284,1133.6z"/><path fill="#F76683" d="M402.294,874.79c-1.61,21.4-24.11,64.27-44.53,102.26c-36.81-4.47-78.359-27.77-104.56-44.8 c-1.49-0.97-2.931-1.92-4.32-2.84c4.12-8.48,7.979-16.47,11.41-23.62c43.29-63.75,71.2-169.9,88.26-268.92v-0.01 c7.54-2.46,14.82-5.38,21.74-8.801c2.899,18.11,6.149,38.74,9.44,60.221C391.544,765.37,403.895,853.36,402.294,874.79z"/><circle cx="601.554" cy="172.876" r="54.351" fill="#000015"/><path fill="#000015" d="M889.875,165.966c0,8.105-6.57,14.674-14.672,14.674H695.424c-8.103,0-14.672-6.568-14.672-14.674v-5.851 c0-8.104,6.569-14.674,14.672-14.674h179.779c8.102,0,14.672,6.569,14.672,14.674V165.966z"/><path fill="#000015" d="M889.875,278.99c0,8.005-6.489,14.494-14.494,14.494H571.015c-8.005,0-14.494-6.489-14.494-14.494l0,0 c0-8.005,6.489-14.493,14.494-14.493h304.366C883.386,264.497,889.875,270.985,889.875,278.99L889.875,278.99z"/><path fill="#000015" d="M889.875,326.433c0,8.104-6.57,14.674-14.672,14.674h-304.01c-8.104,0-14.673-6.57-14.673-14.674v-1.711 c0-8.104,6.569-14.673,14.673-14.673h304.01c8.102,0,14.672,6.568,14.672,14.673V326.433z"/><path fill="#000015" d="M718.021,433.064c0,8.104-6.57,14.674-14.673,14.674H577.405c-8.104,0-14.674-6.569-14.674-14.674v-60.722 c0-8.103,6.57-14.673,14.674-14.673h125.943c8.103,0,14.673,6.57,14.673,14.673V433.064z"/><path fill="#000015" d="M871.24,403.042c0,8.104-6.569,14.674-14.673,14.674h-62.54c-8.104,0-14.674-6.57-14.674-14.674v-4.816 c0-8.104,6.569-14.674,14.674-14.674h62.54c8.104,0,14.673,6.57,14.673,14.674V403.042z"/><path fill="#000015" d="M884.699,483.454c0,5.434-4.402,9.836-9.836,9.836H572.567c-5.433,0-9.836-4.402-9.836-9.836l0,0 c0-5.432,4.403-9.834,9.836-9.834h302.296C880.297,473.62,884.699,478.022,884.699,483.454L884.699,483.454z"/><path fill="#000015" d="M698.352,703.269c0,8.104-6.569,14.674-14.673,14.674h-95.921c-8.104,0-14.674-6.569-14.674-14.674v-159.07 c0-8.104,6.57-14.675,14.674-14.675h95.921c8.104,0,14.673,6.57,14.673,14.675V703.269z"/><path fill="#000015" d="M884.699,710.574c0,8.104-6.569,14.672-14.673,14.672H754.434c-8.102,0-14.671-6.568-14.671-14.672V544.198 c0-8.104,6.569-14.675,14.671-14.675h115.593c8.104,0,14.673,6.57,14.673,14.675V710.574z"/><path fill="#ffffff" d="M292.494,436.74c-58.391-10.83-93.381-66.08-105.381-88.931c10.75-4.939,19.761-8.97,23.181-11.02 c8.819-5.29,7.53-30.8,7.101-36.76c4.09-4.021,7.52-8.91,7.899-14.24c0,0-21.74,5.77-21.74-7.89c0-13.67,12.06-14.471,17.15-12.33 c5.09,2.149,5.97-8.03,4.59-14.19c-1.12-5.01,36.14-20.8,57.34-26.25l-2.34,1.33c0,0,4,10.66,10,13.33s-5,9.33-5,9.33 s10.33,21.34-10.33,40c-8,10-12.67,14.67-8.67,25.34c1.149,3.05,10.56-1.88,25.67-10.89 C299.334,323.28,320.214,395.521,292.494,436.74z"/><path fill="#ffffff" d="M595.624,237.12c3.34,2,24,10.67,24,16.67s-34.66-8.67-46,1.33c-7.16,6.32-79,45.11-135.3,84.26 c-6.29-32.22-21.381-69.979-33.711-97.46c21.861-9.46,44.762-16.741,67.011-21.46c79.48-16.858,82-22,82-22s13.625-38.373,16.67-50 c2.319-8.854,12.67,12,8,23.33s16-14.55,28-26.61c12-12.06,11.33-2.06,7.33,6.61s-13.362,25.39-13.362,25.39 s44.541-38.953,48.541-34.103c4,4.85-13.488,25.383-25.328,39.383c-2.963,3.5-9.982,12.306-8.467,12.539 c5.51,0.848,21.199-7.681,21.199-7.681s28.141-15.648,28.757-6.198c0.364,5.583-27.34,27.34-56.67,39.34 S592.294,235.12,595.624,237.12z"/><path fill="#ffffff" d="M255.975,591.2c-0.141,6.399-18.761,37.17-38.41,55.52c-9.9,9.25-20.07,15.34-28.271,13.57 c-15-1.5-18-9.5-18-9.5l11.101-8c0,0,0.02-0.11,0.049-0.32l0.101-0.069c-0.03,0-0.06-0.011-0.09-0.011 c0.29-2.67-28.11-28.409-28.16-28.6c-9.28-1.5-75.78-26.63-77.96-68.97c-0.02-0.34-0.03-0.681-0.04-1.03 c-0.08-3.49,0.17-7.41,0.69-11.68c15.939-13.28,49.52-38.221,76.479-41.07c5.45-0.58,10.62-0.25,15.33,1.25c36,11.5,83.5,93,87,98 C255.934,590.49,255.994,590.8,255.975,591.2z"/><path fill="#ffffff" d="M281.17,523.857c-1.924,1.359-4.584,0.902-5.941-1.02l-30.939-43.75c-1.36-1.922-0.904-4.582,1.018-5.941 l0,0c1.924-1.359,4.582-0.902,5.942,1.02l30.939,43.75C283.547,519.838,283.091,522.498,281.17,523.857L281.17,523.857z"/><path fill="#c03257" d="M379.734,688.28c-15.78,39.49-36.36,95.319-54.07,131.51c-19.93,40.71-53.16,86.95-72.46,112.46 c-1.49-0.97-2.931-1.92-4.32-2.84c4.12-8.48,7.979-16.47,11.41-23.62c43.29-63.75,71.2-169.9,88.26-268.92v-0.01 c7.54-2.46,14.82-5.38,21.74-8.801C373.193,646.17,376.443,666.8,379.734,688.28z"/><path fill="#FFF" d="M115.273,933.25c-0.129,0-0.26-0.024-0.386-0.078c-0.51-0.213-0.749-0.799-0.536-1.309l26.885-64.136 c-0.9-3.235-7.147-27.818,3.694-50.371c11.326-23.559,20.113-131.679,20.201-132.769c0.044-0.552,0.521-0.959,1.077-0.917 c0.55,0.045,0.961,0.526,0.916,1.077c-0.357,4.463-8.905,109.582-20.392,133.476c-11.228,23.353-3.563,49.017-3.483,49.272 c0.068,0.224,0.057,0.465-0.033,0.681l-27.021,64.46C116.035,933.02,115.664,933.25,115.273,933.25z"/><path fill="#FFF" d="M292.357,930.41c-0.214,0-0.43-0.068-0.611-0.21c-0.437-0.338-0.517-0.966-0.178-1.402 c13.654-17.625,21.666-100.27,21.744-101.103c0.053-0.55,0.541-0.973,1.091-0.9c0.55,0.052,0.953,0.54,0.901,1.09 c-0.326,3.424-8.148,84.057-22.156,102.138C292.951,930.277,292.656,930.41,292.357,930.41z"/><path fill="#FFF" d="M110.336,1008.79c-0.08,0-0.16-0.01-0.24-0.029c-0.537-0.132-0.864-0.674-0.731-1.211l4.875-19.741 l-4.866-17.023c-0.151-0.53,0.156-1.084,0.688-1.236c0.531-0.146,1.084,0.156,1.236,0.688l4.938,17.279 c0.048,0.167,0.052,0.345,0.01,0.514l-4.939,20C111.193,1008.485,110.785,1008.79,110.336,1008.79z"/><path fill="#FFF" d="M255.979,1008.79c-0.313,0-0.621-0.146-0.816-0.422l-7.094-10c-0.307-0.432-0.223-1.028,0.19-1.358 l33.141-26.522l-24.394-20.745c-0.42-0.357-0.472-0.989-0.113-1.409c0.357-0.422,0.988-0.473,1.409-0.114l25.317,21.53 c0.227,0.193,0.355,0.479,0.352,0.776c-0.004,0.299-0.143,0.58-0.375,0.766l-33.35,26.69l6.547,9.23 c0.32,0.45,0.213,1.074-0.236,1.394C256.381,1008.73,256.178,1008.79,255.979,1008.79z"/><path fill="#FFF" d="M123.234,1121.102c-4.497,0-7.598-0.273-8.054-0.315c-0.55-0.052-0.954-0.539-0.902-1.089 s0.532-0.958,1.089-0.903c0.419,0.039,42.02,3.674,49.824-17.352c0.191-0.518,0.769-0.785,1.285-0.59 c0.518,0.192,0.781,0.768,0.59,1.285C160.873,1118.823,136.227,1121.102,123.234,1121.102z"/><path fill="#FFF" d="M319.016,1114.744c-26.448,0-44.045-7.504-54.949-14.876c-15.857-10.721-21.26-23.163-21.482-23.688 c-0.215-0.509,0.022-1.095,0.531-1.311c0.508-0.218,1.094,0.021,1.311,0.529c0.053,0.123,5.451,12.502,20.871,22.886 c14.25,9.596,40.232,19.413,83.079,11.663c0.542-0.099,1.063,0.263,1.161,0.807c0.1,0.543-0.262,1.063-0.806,1.162 C337.775,1113.897,327.896,1114.744,319.016,1114.744z"/><path fill="#FFF" d="M184.608,197.088c-0.161,0-0.324-0.039-0.476-0.121c-29.023-15.729-50.859-2.895-51.078-2.765 c-0.47,0.289-1.086,0.137-1.373-0.336c-0.285-0.472-0.137-1.086,0.336-1.373c0.227-0.139,22.992-13.586,53.068,2.716 c0.485,0.263,0.666,0.87,0.402,1.355C185.308,196.898,184.963,197.088,184.608,197.088z"/><path fill="#FFF" d="M176.615,203.026c-0.221,0-0.441-0.072-0.627-0.221c-8.889-7.156-23.486-4.619-23.633-4.591 c-0.542,0.099-1.063-0.264-1.162-0.806c-0.098-0.544,0.262-1.063,0.806-1.162c0.633-0.116,15.634-2.734,25.243,5 c0.431,0.347,0.499,0.977,0.152,1.406C177.197,202.898,176.907,203.026,176.615,203.026z"/><path fill="#FFF" d="M158.584,255.373c-27.932,0-36.288-29.656-36.377-29.982c-0.144-0.533,0.172-1.082,0.705-1.226 c0.533-0.143,1.082,0.171,1.227,0.704c0.373,1.38,9.535,33.708,42.02,27.79c0.547-0.106,1.064,0.261,1.164,0.804 c0.099,0.544-0.262,1.064-0.805,1.163C163.713,255.138,161.07,255.373,158.584,255.373z"/><path fill="#FFF" d="M286.699,210.563c-0.251,0-0.502-0.094-0.696-0.282c-29.195-28.281-60.202-17.451-60.487-17.315 c-0.469,0.293-1.061,0.137-1.354-0.332s-0.126-1.099,0.342-1.392c0.273-0.171,32.671-11.673,62.891,17.604 c0.396,0.384,0.406,1.017,0.022,1.413C287.221,210.462,286.96,210.563,286.699,210.563z"/><path fill="#FFF" d="M278.705,214.218c-0.248,0-0.496-0.092-0.689-0.276c-14.177-13.512-31.156-15.242-31.326-15.258 c-0.549-0.052-0.953-0.539-0.902-1.089c0.051-0.551,0.536-0.956,1.087-0.903c0.721,0.067,17.821,1.792,32.521,15.803 c0.4,0.381,0.416,1.014,0.034,1.413C279.232,214.114,278.969,214.218,278.705,214.218z"/><path fill="#000015" d="M259.376,255.064c-12.834,0-23.274-10.441-23.274-23.275s10.44-23.274,23.274-23.274 s23.274,10.44,23.274,23.274S272.21,255.064,259.376,255.064z M259.376,210.515c-11.731,0-21.274,9.544-21.274,21.274 c0,11.731,9.543,21.275,21.274,21.275s21.274-9.544,21.274-21.275C280.65,220.059,271.107,210.515,259.376,210.515z"/></svg>