<svg xmlns="http://www.w3.org/2000/svg" version="1.0" viewBox="0 0 1133.859 1133.858"><path fill="#554f00" d="M995.232,553.441c2.509-3.957,31.76-69.455,61.85-93.959c7.523,5.004,7.523,5.004,7.523,5.004 L995.232,553.441z"/><polygon fill="#554f00" points="1057.082 459.482 1070.458 519.395 1064.605 464.486"/><path fill="#554f00" d="M994.672,554.875c-1.676-2.644-21.221-46.404-41.324-62.776c-5.026,3.342-5.026,3.342-5.026,3.342 L994.672,554.875z"/><polygon fill="#554f00" points="953.348 492.099 944.413 532.127 948.321 495.44"/><path fill="#554f00" d="M1058.54,387.447l-9.051,23.791l-20.181,53.082v0.009l-2.833,7.425l-31.238,82.166 c0.553-2.03,2.054-12.559,4.688-27.752c0.007-0.007,0.007-0.015,0.007-0.022c3.91-22.431,10.301-55.032,19.818-85.522 c6.494-20.83,14.45-40.676,24.069-55.622c0.349-0.539,0.696-1.078,1.046-1.602C1058.54,387.447,1058.54,387.447,1058.54,387.447z"/><path fill="#554f00" d="M1058.54,387.447l-9.051,23.791c-1.229-6.755-3.459-18.302-5.67-26.237 c0.349-0.539,0.696-1.078,1.046-1.602C1058.54,387.447,1058.54,387.447,1058.54,387.447z"/><polygon fill="#efdb0c" points="1044.865 383.397 1092.899 467.575 1058.541 387.451"/><path fill="#554f00" d="M1029.309,464.32v0.009l-2.833,7.425l-7.054-8.627c0,0-12.697,40.676-19.49,63.019 c3.91-22.431,10.301-55.032,19.818-85.522L1029.309,464.32z"/><path fill="#554f00" d="M904.683,400.661l-2.468,9.027l-2.389,8.751l-2.242,8.199l-18.449,67.51l11.707-75.782l1.603-10.374 c0,0,0,0,1.894-1.128c0.255-0.153,0.546-0.328,0.881-0.532c0.771-0.466,1.761-1.056,3.034-1.818 C899.891,403.529,901.995,402.27,904.683,400.661z"/><path fill="#554f00" d="M904.683,412.907l-2.244,9.23l-2.612-3.698l-2.242,8.199l-6.742-8.272l1.603-10.374c0,0,0,0,1.894-1.128 c0.255-0.153,0.546-0.328,0.881-0.532c0.771-0.466,1.761-1.056,3.034-1.818l3.962,5.175L904.683,412.907z"/><path fill="#efdb0c" d="M995.237,553.44l-92.799-131.303l-2.612-3.698l-7.382-10.447c0,0,0,0,1.894-1.128 c0.255-0.153,0.546-0.328,0.881-0.532c0.771-0.466,1.761-1.056,3.034-1.818c1.638-0.984,3.742-2.244,6.43-3.853 c13.374,11.983,26.377,29.522,38.163,48.479c2.694,4.332,5.322,8.744,7.878,13.171C975.157,504.661,992.892,549.326,995.237,553.44 z"/><path fill="#554f00" d="M950.724,462.312l-6.887,8.35c0,0-1.297-13.125-0.991-21.521 C945.54,453.473,948.168,457.885,950.724,462.312z"/><polygon fill="#554f00" points="979.524 361.899 973.338 380.007 969.398 391.517 966.507 399.97 945.162 462.406 959.764 387.425 964.694 362.125 967.067 362.09"/><path fill="#554f00" d="M975.719,386.828l-4.989,12.987l-1.331-8.299l-2.892,8.453c-1.782-3.422-4.318-8.221-6.743-12.545 l4.931-25.3c0,0,0,0,2.323-0.195l0.05,0.16l6.271,17.917L975.719,386.828z"/><path fill="#efdb0c" d="M995.557,554.875l-0.24-1.521l-4.208-26.282l-20.379-127.256l-1.331-8.299l-4.704-29.392 c0,0,0,0,2.323-0.195c2.052-0.168,5.932-0.487,13.257-1.1c8.016,19.86,12.427,45.975,14.729,72.592 c4.632,53.569,0.721,109.178,0.545,119.989C995.535,554.067,995.535,554.562,995.557,554.875z"/><path fill="#554f00" d="M995.548,553.411c-0.079-0.015-0.151-0.038-0.231-0.058l-4.208-26.282l3.895-93.649 C999.635,486.991,995.724,542.6,995.548,553.411z"/><path fill="#554f00" d="M995.932,553.85c0.415-5.653-6.854-92.25,11.255-135.585c10.886,1.042,11.955,1.042,11.955,1.042 L995.932,553.85z"/><polygon fill="#efdb0c" points="1007.187 418.265 1037.451 486.117 1019.142 419.307"/><polygon fill="#008aff" points="1022.584 645.24 966.76 645.24 958.768 545.998 1029.582 545.998"/><circle cx="1007.156" cy="579.816" r="5.689" fill="#005ecb"/><circle cx="1016.013" cy="598.137" r="3.168" fill="#005ecb"/><circle cx="992.139" cy="612.363" r="2.05" fill="#005ecb"/><circle cx="982.746" cy="580.657" r="1.526" fill="#005ecb"/><circle cx="992.598" cy="558.496" r="2.509" fill="#005ecb"/><circle cx="1004.551" cy="558.594" r="2.605" fill="#005ecb"/><circle cx="1017.717" cy="564.786" r="1.704" fill="#005ecb"/><circle cx="993.96" cy="595.526" r="1.821" fill="#005ecb"/><circle cx="970.518" cy="606.913" r="1.622" fill="#005ecb"/><circle cx="970.337" cy="573.73" r="1.44" fill="#005ecb"/><circle cx="979.297" cy="565.053" r="1.971" fill="#005ecb"/><circle cx="975.719" cy="601.717" r="3.579" fill="#005ecb"/><path fill="#554f00" d="M995.003,434.515c-0.574,0-1.058-0.449-1.09-1.028c-0.505-8.768-1.897-19.013-4.129-30.452 c-0.116-0.591,0.271-1.165,0.861-1.281c0.594-0.116,1.168,0.271,1.282,0.862c2.254,11.535,3.653,21.879,4.165,30.744 c0.036,0.602-0.425,1.119-1.028,1.153C995.045,434.514,995.024,434.515,995.003,434.515z"/><path fill="#554f00" d="M989.357,396.645c-0.506,0-0.958-0.35-1.067-0.86c-1.131-5.224-2.421-10.646-3.832-16.112 c-0.152-0.584,0.199-1.18,0.784-1.33s1.179,0.2,1.329,0.784c1.42,5.496,2.715,10.944,3.853,16.196 c0.127,0.589-0.245,1.17-0.837,1.298C989.51,396.637,989.432,396.645,989.357,396.645z"/><path fill="#554f00" d="M983.176,371.787c-0.477,0-0.916-0.314-1.052-0.797c-1.684-6.027-2.878-9.792-2.892-9.829 c-0.182-0.575,0.137-1.188,0.711-1.372c0.574-0.182,1.189,0.135,1.371,0.711c0.014,0.037,1.218,3.836,2.913,9.902 c0.162,0.58-0.177,1.184-0.757,1.345C983.373,371.775,983.273,371.787,983.176,371.787z"/><path fill="#554f00" d="M934.729,437.729c-0.359,0-0.709-0.176-0.919-0.498c-1.558-2.398-3.761-5.404-6.553-8.931 c-0.374-0.472-0.295-1.16,0.179-1.533c0.474-0.376,1.16-0.294,1.535,0.178c2.833,3.581,5.077,6.64,6.67,9.097 c0.33,0.506,0.187,1.184-0.32,1.51C935.138,437.671,934.932,437.729,934.729,437.729z"/><path fill="#554f00" d="M923.518,423.069c-0.31,0-0.621-0.135-0.837-0.393c-1.313-1.573-2.645-3.144-3.961-4.677 c-0.394-0.456-0.343-1.146,0.114-1.54c0.458-0.394,1.146-0.341,1.542,0.116c1.325,1.542,2.664,3.121,3.981,4.7 c0.387,0.464,0.323,1.153-0.139,1.539C924.014,422.986,923.766,423.069,923.518,423.069z"/><path fill="#554f00" d="M909.983,407.543c-0.297,0-0.594-0.121-0.81-0.36c-3.127-3.46-5.227-5.71-5.283-5.77 c-0.186-0.197-0.301-0.462-0.301-0.752c0-0.603,0.489-1.093,1.093-1.093c0.556,0,0.556,0,6.111,6.15 c0.403,0.448,0.37,1.139-0.077,1.543C910.507,407.449,910.245,407.543,909.983,407.543z"/><path fill="#554f00" d="M1035.611,401.543c-0.15,0-0.305-0.031-0.451-0.099c-0.549-0.251-0.791-0.898-0.543-1.447 c2.482-5.449,4.297-9.106,5.394-10.868c0.319-0.511,0.994-0.668,1.505-0.35c0.514,0.317,0.668,0.992,0.35,1.504 c-1.045,1.683-2.816,5.256-5.26,10.619C1036.424,401.305,1036.027,401.543,1035.611,401.543z"/><path fill="#554f00" d="M1024.878,426.39c-0.139,0-0.281-0.026-0.417-0.084c-0.556-0.23-0.823-0.869-0.591-1.427 c0.024-0.059,2.459-5.932,5.455-12.887c0.241-0.555,0.886-0.808,1.437-0.572c0.554,0.24,0.811,0.883,0.571,1.437 c-2.991,6.941-5.421,12.8-5.445,12.858C1025.713,426.136,1025.308,426.39,1024.878,426.39z"/><path fill="#554f00" d="M1033.215,471.754c-0.48,0-0.919-0.318-1.054-0.803l-8.769-31.998c-0.16-0.581,0.183-1.182,0.765-1.341 c0.581-0.163,1.184,0.183,1.341,0.765l8.772,31.996c0.158,0.581-0.185,1.183-0.767,1.342 C1033.407,471.742,1033.313,471.754,1033.215,471.754z"/><path fill="#554f00" d="M1020.612,425.773c-0.478,0-0.92-0.318-1.052-0.804l-1.271-4.642l-11.197-0.976 c-0.601-0.052-1.046-0.582-0.993-1.183c0.055-0.602,0.577-1.046,1.183-0.993l11.953,1.042c0.456,0.04,0.839,0.357,0.959,0.799 l1.473,5.375c0.159,0.582-0.182,1.182-0.766,1.342C1020.807,425.761,1020.708,425.773,1020.612,425.773z"/><polygon fill="#005ecb" points="1022.584 645.24 1015.178 645.24 1007.187 545.998 1029.582 545.998"/><path fill="#4f0edc" d="M724.372,124.955h-16.671v-16.672c0-2.14-1.736-3.873-3.877-3.873c-2.139,0-3.875,1.733-3.875,3.873v16.672 h-16.671c-2.138,0-3.874,1.736-3.874,3.876s1.736,3.875,3.874,3.875h16.671v16.673c0,2.14,1.736,3.873,3.875,3.873 c2.141,0,3.877-1.733,3.877-3.873v-16.673h16.671c2.138,0,3.876-1.735,3.876-3.875S726.51,124.955,724.372,124.955z"/><path fill="#4f0edc" d="M892.848,365.278h-16.67v-16.671c0-2.14-1.737-3.874-3.875-3.874c-2.141,0-3.877,1.734-3.877,3.874v16.671 h-16.671c-2.138,0-3.874,1.736-3.874,3.877c0,2.14,1.736,3.874,3.874,3.874h16.671v16.673c0,2.141,1.736,3.875,3.877,3.875 c2.138,0,3.875-1.734,3.875-3.875v-16.673h16.67c2.14,0,3.876-1.734,3.876-3.874C896.724,367.015,894.987,365.278,892.848,365.278z"/><path fill="#4f0edc" d="M922.001,244.512h-7.625v-7.624c0-0.979-0.795-1.772-1.773-1.772s-1.772,0.793-1.772,1.772v7.624h-7.626 c-0.978,0-1.772,0.795-1.772,1.774c0,0.979,0.795,1.772,1.772,1.772h7.626v7.626c0,0.979,0.794,1.772,1.772,1.772 s1.773-0.793,1.773-1.772v-7.626h7.625c0.979,0,1.772-0.794,1.772-1.772C923.773,245.307,922.979,244.512,922.001,244.512z"/><path fill="#4f0edc" d="M830.069,305.26h-7.625v-7.625c0-0.979-0.796-1.772-1.771-1.772c-0.979,0-1.773,0.793-1.773,1.772v7.625 h-7.625c-0.979,0-1.772,0.794-1.772,1.772c0,0.979,0.794,1.772,1.772,1.772h7.625v7.626c0,0.979,0.794,1.772,1.773,1.772 c0.976,0,1.771-0.793,1.771-1.772v-7.626h7.625c0.979,0,1.773-0.793,1.773-1.772C831.843,306.054,831.048,305.26,830.069,305.26z"/><path fill="#4f0edc" d="M937.927,341.905h-7.626v-7.624c0-0.979-0.794-1.772-1.772-1.772s-1.772,0.793-1.772,1.772v7.624h-7.626 c-0.978,0-1.772,0.796-1.772,1.773c0,0.979,0.795,1.773,1.772,1.773h7.626v7.625c0,0.979,0.794,1.772,1.772,1.772 s1.772-0.793,1.772-1.772v-7.625h7.626c0.979,0,1.773-0.795,1.773-1.773C939.7,342.701,938.905,341.905,937.927,341.905z"/><path fill="#4f0edc" d="M741.434,405.081h-7.625v-7.626c0-0.979-0.795-1.772-1.772-1.772c-0.979,0-1.773,0.793-1.773,1.772v7.626 h-7.625c-0.978,0-1.772,0.795-1.772,1.772c0,0.979,0.795,1.773,1.772,1.773h7.625v7.625c0,0.979,0.795,1.772,1.773,1.772 c0.978,0,1.772-0.793,1.772-1.772v-7.625h7.625c0.979,0,1.773-0.794,1.773-1.773C743.207,405.876,742.412,405.081,741.434,405.081z"/><path fill="#4f0edc" d="M887.044,467.411h-7.626v-7.625c0-0.979-0.793-1.771-1.772-1.771s-1.772,0.793-1.772,1.771v7.625h-7.626 c-0.977,0-1.772,0.796-1.772,1.773c0,0.979,0.796,1.773,1.772,1.773h7.626v7.625c0,0.979,0.793,1.772,1.772,1.772 s1.772-0.793,1.772-1.772v-7.625h7.626c0.979,0,1.772-0.795,1.772-1.773C888.816,468.207,888.023,467.411,887.044,467.411z"/><path fill="#554f00" d="M542.596,312.682c-12.071,0-21.893-9.821-21.893-21.893s9.821-21.891,21.893-21.891 c12.07,0,21.891,9.819,21.891,21.891S554.666,312.682,542.596,312.682z M542.596,271.344c-10.723,0-19.447,8.724-19.447,19.445 c0,10.723,8.725,19.446,19.447,19.446c10.721,0,19.445-8.724,19.445-19.446C562.041,280.067,553.316,271.344,542.596,271.344z"/><path fill="#008aff" d="M605.474,636.909l-98.575-41.211l1.982,11.545l93.694,40.525h-26.131c-1.909,0-3.461,1.54-3.461,3.461 v190.473c-0.478,0.478-0.979,0.966-1.517,1.468c-2.898,2.788-6.653,6.175-11.092,10.027c-25.51,22.183-73.408,59.944-110.303,89.33 c-21.327-6.677-45.27-24.384-62.243-38.716c0,0,0,0-0.013,0c-5.148-4.354-9.66-8.389-13.256-11.702 c28.555-17.023,57.132-35.342,81.724-53.904c16.081-12.131,30.438-24.372,41.981-36.417c4.157-4.341,8.096-8.707,11.813-13.108 c0.073-0.087,0.147-0.159,0.208-0.245c23.197-27.49,37.738-55.764,43.484-81.749c0,0,0,0,0-0.012 c0.771-3.424,1.371-6.824,1.822-10.162c0-0.012,0-0.012,0-0.024c1.627-12.057,1.247-23.504-1.137-34.008 c-0.037-0.172-0.086-0.354-0.122-0.525c-0.013,0-0.013,0-0.013,0c-5.503-23.589-21.265-42.373-47.423-52.559 c-55.225-21.498-145.372,27.122-193.383,60.312c-12.448,8.608-22.072,16.178-27.502,21.216 c-10.272,9.526-20.802,18.196-29.998,25.461c1.419-1.871,2.19-2.875,2.19-2.875s-15.323,1.272-8.939-43.398 c1.552-10.847,4.965-21.522,9.245-31.453c13.328-30.986,35.083-54.832,35.083-54.832s-0.489-0.343-1.174-1.688 c1.346,1.26,2.838,2.482,4.476,3.668c5.834,4.194,11.776,9.795,20.764,14.883c16.411,9.27,42.924,16.802,97.254,10.835 c84.073-9.232,102.208-33.3,102.539-34.289c0.328-0.991,5.93,12.863,14.173,17.804c8.242,4.94,8.242-10.553,10.553-21.094 c2.299-10.554,9.881,6.921,14.173,13.512c4.28,6.592,5.27,19.127,14.504,17.475c9.232-1.65,5.601-24.065,5.601-24.065 s8.572,25.387,17.804,28.017c9.232,2.642,8.903-13.513,7.912-17.475c-0.99-3.951,11.544,10.553,12.205,9.563L605.474,636.909z"/><path fill="#554f00" d="M605.474,636.909l-98.575-41.211l1.982,11.545l93.694,40.525h-26.131c-1.909,0-3.461,1.54-3.461,3.461 v13.146c-5.786-0.636-11.985-1.272-18.527-1.896c-56.081-5.283-136.79-8.951-193.396,4.451 c-18.245,4.316-33.982,4.854-47.545,2.776c-25.044-3.853-42.665-16.632-55.004-31.05c13.328-30.986,35.083-54.832,35.083-54.832 s-0.489-0.343-1.174-1.688c1.346,1.26,2.838,2.482,4.476,3.668c5.834,4.194,11.776,9.795,20.764,14.883 c16.411,9.27,42.924,16.802,97.254,10.835c84.073-9.232,102.208-33.3,102.539-34.289c0.328-0.991,5.93,12.863,14.173,17.804 c8.242,4.94,8.242-10.553,10.553-21.094c2.299-10.554,9.881,6.921,14.173,13.512c4.28,6.592,5.27,19.127,14.504,17.475 c9.232-1.65,5.601-24.065,5.601-24.065s8.572,25.387,17.804,28.017c9.232,2.642,8.903-13.513,7.912-17.475 c-0.99-3.951,11.544,10.553,12.205,9.563L605.474,636.909z"/><path fill="#fce6d9" d="M556.205,369.225c-26.769,32.662-85.589,97.646-90.517,94.271c-5.185-3.547-62.439-66.402-81.919-87.852 c26.06-16.545,51.604-29.765,51.604-29.765s9.001-24.823,2.629-55.456c8.891,0.99,13.513-0.343,13.513-0.343 s-4.279-2.959-7.446-11.862c-3.155-8.901,4.145-16.813,11.727-16.153c7.593,0.66,8.901,11.532,8.901,11.532 s11.545,1.284,26.708,4.769c13.659,3.131,36.942-4.305,59.247,2.604c-0.818,2.861-6.627,17.487-8.143,19.334 c-1.651,1.981,0,9.562-1.651,11.543c-1.652,1.981-8.903,2.63-8.903,2.63s-1.979,3.302-10.553,7.924 c-8.572,4.61-23.222,6.885-23.222,6.885s0.146,17.842,2.556,25.534C505.357,354.82,530.524,360.983,556.205,369.225z"/><path fill="#fce6d9" d="M694.841,494.567l-62.012,14.101c0,0-5.369,27.526-10.308,52.522c-1.873-10.432-5.577-21.242-9.136-24.177 c-3.388-8.523-12.522-17.096-24.506-24.909c9.231-11.521,29.679-36.968,52.533-52.204c3.132,7.618,6.335,12.913,9.943,13.636 c12.766,2.543,38.287,21.692,38.287,21.692L694.841,494.567z"/><path fill="#554f00" d="M641.413,459.9c-22.854,15.236-43.302,40.684-52.533,52.204c-26.512-17.304-66.966-30.891-89.893-31.794 c-33.299-1.31-134.833,11.543-168.131,39.228c-24.3,20.215-18.405,60.447-13.196,81.15c-8.987-5.088-14.93-10.688-20.764-14.883 c-1.638-1.186-3.13-2.408-4.476-3.668c-1.137-2.227-2.788-7.202-3.582-17.977c0-37.016,24.249-119.987,44.671-148.076 c9-12.351,29.788-27.416,50.26-40.44c19.479,21.449,76.734,84.305,81.919,87.852c4.928,3.374,63.748-61.609,90.517-94.271 c23.907,7.68,48.242,17.169,56.851,25.167C625.884,406.302,633.453,440.554,641.413,459.9z"/><polygon fill="#efdb0c" points="506.898 595.698 602.575 642.498 687.108 637.931 650.568 585.808 551.905 593.062"/><path fill="#008aff" d="M498.266,801.788c-29.166,30.449-76.478,62.17-123.705,90.321c-38.287,22.843-76.525,43.35-104.995,58.954 c-40.979-23.418-83.741-83.461-104.041-114.521c40.746-55.005,80.782-107.478,90.479-120.146l0.012-0.012 c9.196-7.265,19.726-15.935,29.998-25.461c26.377-24.457,151.33-108.602,220.885-81.527 C576.456,636.469,572.444,724.345,498.266,801.788z"/><path fill="#554f00" d="M439.458,1077.299c-97.703,37.139-194.496,2.079-202.028,0.232c3.362-5.467,6.737-11.739,10.553-18.942 c14.675-27.71-27.723-57.878-36.686-60.323c-8.964-2.446,3.265-4.072,12.229-18.747c2.58-4.23,20.312-14.344,46.04-28.455 c28.47-15.604,66.708-36.111,104.995-58.954c15.457,14.257,47.717,41.711,75.512,50.418c-26.83,21.362-47.84,38.3-50.187,41.589 c-6.383,8.939-22.977,19.15,8.94,26.805C440.742,1018.589,459.744,1069.588,439.458,1077.299z"/><path fill="#554f00" d="M247.982,1058.589c-3.815,7.203-7.19,13.476-10.553,18.942c-0.612-0.146-0.93-0.232-0.93-0.232 s-6.384,5.111-17.866,7.985c-11.494,2.861-135.31-4.158-150.633-20.739c-15.31-16.595-14.038-52.339,0-86.812 c6.874-16.875,52.621-80.574,97.523-141.191c20.3,31.061,63.063,91.104,104.041,114.521c-25.729,14.111-43.46,24.225-46.04,28.455 c-8.964,14.675-21.192,16.301-12.229,18.747C220.26,1000.711,262.657,1030.879,247.982,1058.589z"/><path fill="#554f00" d="M571.184,278.55c-6.259,4.292-20.434,0.99-20.434,1.981c0,0.073-0.036,0.22-0.098,0.439 c-22.305-6.909-45.588,0.526-59.247-2.604c-15.163-3.484-26.708-4.769-26.708-4.769s-1.309-10.872-8.901-11.532 c-7.582-0.66-14.882,7.252-11.727,16.153c3.167,8.903,7.446,11.862,7.446,11.862s-4.622,1.333-13.513,0.343 c-23.882-10.59-11.728-38.35-9.551-42.886c-13.194-0.013-28.444-5.088-31.99-24.702c-9.6-53.071,46.812-75.499,77.799-54.724 c19.102,12.791,19.907,25.228,17.573,33.104c2.225-0.146,4.499-0.195,6.823-0.135c37.248,0.979,42.201,18.783,49.782,30.988 C575.147,254.153,573.018,264.548,571.184,278.55z"/><path fill="#fce6d9" d="M622.521,561.19c-4.072,20.52-7.852,39.327-8.145,39.779c-0.661,0.99-13.195-13.514-12.205-9.563 c0.991,3.962,1.32,20.116-7.912,17.475c-9.231-2.63-17.804-28.017-17.804-28.017s3.632,22.415-5.601,24.065 c-9.234,1.652-10.224-10.883-14.504-17.475c-4.292-6.591-11.874-24.065-14.173-13.512c-2.311,10.541-2.311,26.034-10.553,21.094 c-8.243-4.94-13.845-18.795-14.173-17.804c-0.331,0.989-18.466,25.057-102.539,34.289c-54.33,5.967-80.843-1.565-97.254-10.835 c-5.209-20.703-11.104-60.936,13.196-81.15c33.298-27.685,134.832-40.537,168.131-39.228 c33.299,1.319,103.516,29.349,114.398,56.703C616.944,539.948,620.648,550.759,622.521,561.19z"/><path fill="#efdb0c" d="M1065.883,647.284v360.134c0,1.92-1.553,3.473-3.461,3.473H576.445c-1.907,0-3.461-1.553-3.461-3.473 V647.284c0-1.92,1.554-3.46,3.461-3.46h26.133l1.576,0.685l33.776-0.122l147.085-0.563h277.406 C1064.33,643.824,1065.883,645.364,1065.883,647.284z"/><path fill="#554f00" d="M785.015,647.769H602.575l-93.694-40.525l-1.982-11.545l98.575,41.211l8.903-35.939 c0.293-0.452,4.072-19.26,8.145-39.779c4.938-24.996,10.308-52.522,10.308-52.522l62.012-14.101h0.024l136.472-17.204 L785.015,647.769z"/><path fill="#005ecb" d="M572.983,836.542l-1.517,6.628c-2.898,2.788-6.653,6.175-11.092,10.027 c-6.359-11.202-19.444-22.524-45.809-7.79c-41.577,23.234-126.737,58.404-126.737,58.404s0,0-0.013,0 c-0.501-0.184-11.445-4.305-13.256-11.702c-1.357-5.589,40.403-23.908,81.724-53.904c14.712-10.676,29.362-22.831,41.981-36.417 c4.28-4.611,8.217-8.964,11.813-13.108c0.073-0.087,0.147-0.159,0.208-0.245c32.443-37.273,38.801-56.803,43.484-81.749 c0,0,0,0,0-0.012c0.624-3.277,1.21-6.64,1.822-10.162c0-0.012,0-0.012,0-0.024c5.65-32.418-0.893-34.448-1.259-34.533l17.83,2.335 L572.983,836.542z"/><path fill="#FFF" d="M237.43,1078.755c-0.268,0-0.535-0.088-0.76-0.266c-0.529-0.419-0.619-1.188-0.198-1.717 c0.167-0.212,16.635-21.288,12.229-41.843c-2.315-10.799-9.978-19.648-22.778-26.304c-1.228-0.425-12.109-4.439-13.004-13.219 c-0.859-8.426,7.893-18.007,26.011-28.477c11.583-6.692,29.86-16.835,30.044-16.937c0.59-0.331,1.335-0.114,1.662,0.476 c0.328,0.591,0.115,1.335-0.476,1.662c-0.184,0.102-18.442,10.234-30.007,16.917c-21.428,12.382-25.315,21.029-24.802,26.103 c0.762,7.535,11.333,11.152,11.44,11.187c0.06,0.021,0.12,0.046,0.176,0.075c13.533,7.014,21.649,16.439,24.127,28.016 c4.643,21.692-11.996,42.968-12.707,43.863C238.146,1078.596,237.789,1078.755,237.43,1078.755z"/><path fill="#FFF" d="M165.526,943.75c-0.385,0-0.765-0.181-1.002-0.52l-14.527-20.643c-0.21-0.299-0.274-0.675-0.178-1.027 s0.345-0.644,0.68-0.793l38.52-17.251l-13.105-10.451c-0.527-0.422-0.613-1.19-0.193-1.719c0.422-0.528,1.191-0.614,1.72-0.194 l14.674,11.702c0.333,0.267,0.504,0.687,0.45,1.11c-0.053,0.423-0.324,0.788-0.713,0.963l-38.999,17.466l13.673,19.43 c0.39,0.553,0.256,1.315-0.296,1.703C166.015,943.679,165.769,943.75,165.526,943.75z"/><path fill="#FFF" d="M341.755,943.75c-0.365,0-0.729-0.163-0.97-0.478c-0.411-0.535-0.311-1.303,0.225-1.715l32.296-24.842 v-12.904c0-0.676,0.547-1.224,1.223-1.224s1.223,0.548,1.223,1.224v13.506c0,0.38-0.177,0.738-0.478,0.97l-32.773,25.21 C342.277,943.667,342.015,943.75,341.755,943.75z"/><path fill="#fce6d9" d="M182.953,1070.602c-61.285,0-112.657-28.094-113.254-28.426c-0.59-0.328-0.803-1.072-0.476-1.662 c0.328-0.591,1.072-0.806,1.663-0.476c0.689,0.384,69.809,38.162,142.988,25.543c0.665-0.114,1.299,0.332,1.414,0.997 c0.114,0.665-0.332,1.298-0.999,1.413C203.698,1069.817,193.186,1070.602,182.953,1070.602z"/><path fill="#FFF" d="M346.078,1072.975c-30.044,0-57.933-2.173-60.157-2.349c-0.674-0.055-1.175-0.645-1.122-1.316 c0.054-0.672,0.625-1.18,1.315-1.123c1.059,0.086,106.06,8.264,130.193-6.875c0.572-0.362,1.326-0.188,1.685,0.387 c0.359,0.571,0.187,1.326-0.386,1.685C405.479,1070.989,374.794,1072.975,346.078,1072.975z"/><path fill="#FFF" d="M191.35,828.58c-0.278,0-0.558-0.095-0.787-0.288c-0.517-0.435-0.582-1.206-0.147-1.722 c0.825-0.981,82.845-98.378,106.454-121.986c8.389-8.39,32.863-21.648,58.774-35.688c15.947-8.641,32.437-17.574,44.349-25.03 c17.258-10.802,18.289-14.519,17.931-15.613c-0.313-0.969-3.281-3.863-28.229-0.5c-0.664,0.087-1.284-0.378-1.375-1.048 s0.38-1.285,1.048-1.376c25.471-3.437,29.904-0.833,30.883,2.165c2.372,7.276-22.385,21.309-63.441,43.553 c-24.617,13.337-50.072,27.129-58.21,35.267c-23.535,23.535-105.487,120.852-106.313,121.83 C192.045,828.432,191.698,828.58,191.35,828.58z"/><path fill="#FFF" d="M286.014,692.146c-0.119,0-0.242-0.018-0.362-0.055c-21.756-6.752-29.036-9.452-37.384-21.274 c-0.391-0.552-0.258-1.314,0.293-1.704c0.553-0.391,1.315-0.258,1.704,0.293c7.915,11.209,14.499,13.643,36.111,20.35 c0.645,0.201,1.006,0.885,0.806,1.531C287.019,691.811,286.535,692.146,286.014,692.146z"/><path fill="#FFF" d="M572.164,503.771c-0.113,0-0.229-0.016-0.343-0.049c-0.648-0.189-1.021-0.867-0.832-1.516 c0.116-0.406,11.682-40.844,0.903-62.167c-0.305-0.603-0.063-1.339,0.539-1.643c0.604-0.308,1.34-0.063,1.645,0.54 c11.213,22.186-0.246,62.258-0.739,63.952C573.182,503.424,572.693,503.771,572.164,503.771z"/><path fill="#FFF" d="M480.348,200.316c-0.518,0-1-0.334-1.164-0.854c-10.362-32.939-53.739-26.607-54.177-26.539 c-0.659,0.097-1.292-0.354-1.395-1.021c-0.104-0.667,0.354-1.292,1.02-1.396c0.459-0.07,45.898-6.698,56.884,28.22 c0.204,0.646-0.154,1.332-0.799,1.535C480.595,200.299,480.471,200.316,480.348,200.316z"/><path fill="#FFF" d="M468.396,200.316c-0.467,0-0.914-0.27-1.117-0.724c-6.246-13.965-22.613-19.334-22.778-19.387 c-0.642-0.205-0.998-0.893-0.793-1.537c0.206-0.643,0.889-0.994,1.536-0.794c0.714,0.228,17.566,5.737,24.269,20.72 c0.274,0.616,0,1.34-0.617,1.614C468.734,200.283,468.564,200.316,468.396,200.316z"/><path fill="#FFF" d="M560.562,269.344c-0.662,0-1.205-0.526-1.224-1.19c-0.736-28.033-35.367-37.321-35.718-37.412 c-0.652-0.168-1.047-0.836-0.877-1.489c0.168-0.654,0.832-1.046,1.489-0.879c0.366,0.096,36.766,9.832,37.552,39.716 c0.017,0.675-0.517,1.237-1.19,1.255C560.582,269.344,560.57,269.344,560.562,269.344z"/><path fill="#FFF" d="M547.064,267.801c-0.072,0-0.146-0.006-0.22-0.021c-0.665-0.121-1.104-0.758-0.983-1.423 c2.203-12.013-8.734-21.506-8.846-21.6c-0.513-0.438-0.575-1.21-0.138-1.725c0.438-0.514,1.208-0.577,1.722-0.139 c0.498,0.422,12.128,10.485,9.667,23.904C548.158,267.389,547.645,267.801,547.064,267.801z"/><path fill="#554f00" d="M517.449,578.457c-0.541,0-1.038-0.364-1.182-0.915c-0.229-0.885-5.505-21.834,6.344-35.656 c0.439-0.515,1.214-0.573,1.725-0.133c0.514,0.439,0.572,1.211,0.133,1.724c-11.007,12.843-5.887,33.245-5.834,33.45 c0.17,0.653-0.222,1.321-0.875,1.49C517.656,578.444,517.553,578.457,517.449,578.457z"/><path fill="#554f00" d="M534.352,597.206c-0.08,0-0.158-0.008-0.239-0.024c-9.765-1.946-16.514-17.501-16.797-18.162 c-0.267-0.62,0.022-1.339,0.644-1.604c0.619-0.264,1.339,0.023,1.605,0.643c0.064,0.15,6.524,15.031,15.025,16.727 c0.662,0.131,1.093,0.776,0.96,1.438C535.434,596.804,534.924,597.206,534.352,597.206z"/><path fill="#554f00" d="M570.231,606.509c-1.143,0-1.948-0.29-2.013-0.314c-0.635-0.235-0.957-0.938-0.722-1.571 c0.234-0.631,0.932-0.95,1.564-0.725c0.104,0.036,1.992,0.659,3.716-0.751c1.854-1.515,4.637-6.402,2.467-22.115 c-2.758-17.455-8.796-25.486-11.069-28.51c-0.327-0.436-0.591-0.787-0.775-1.065c-0.373-0.562-0.223-1.32,0.34-1.695 c0.561-0.374,1.32-0.224,1.695,0.339c0.165,0.248,0.402,0.563,0.696,0.951c2.373,3.158,8.677,11.543,11.532,29.623 c1.79,12.964,0.648,21.167-3.387,24.405C572.859,606.219,571.376,606.509,570.231,606.509z"/><path fill="#554f00" d="M597.108,610.796c-1.815,0-3.329-0.786-3.42-0.834c-0.598-0.314-0.824-1.055-0.509-1.652 c0.315-0.595,1.053-0.821,1.647-0.512c0.042,0.021,2.09,1.059,3.614,0.25c1.061-0.559,1.731-1.94,1.995-4.105 c1.019-8.364,1.189-36.369-7.261-52.599c-0.312-0.6-0.08-1.338,0.52-1.649c0.6-0.313,1.338-0.077,1.65,0.52 c8.718,16.743,8.563,45.459,7.519,54.024c-0.367,3.019-1.477,5.031-3.298,5.983C598.752,610.646,597.9,610.796,597.108,610.796z"/><path fill="#554f00" d="M459.526,282.193c-0.12,0-0.243-0.018-0.363-0.055c-0.646-0.202-1.005-0.888-0.804-1.532 c1.487-4.775,0.012-8.088-1.489-10.027c-1.549-2-3.333-2.827-3.863-2.854c-0.577,0.215-1.232-0.037-1.515-0.598 c-0.304-0.604-0.061-1.34,0.543-1.643c1.368-0.686,3.539,0.499,4.98,1.723c1.5,1.272,6.195,6.051,3.678,14.127 C460.53,281.858,460.048,282.193,459.526,282.193z"/><path fill="#554f00" d="M497.117,330.647c-20.901,0-37.693-21.422-37.89-21.679c-0.412-0.535-0.313-1.302,0.222-1.715 c0.534-0.411,1.301-0.314,1.715,0.222c0.224,0.289,22.566,28.759,46.852,18.488c0.623-0.261,1.341,0.027,1.604,0.65 c0.264,0.622-0.026,1.34-0.65,1.603C504.932,329.925,500.955,330.647,497.117,330.647z"/><path fill="#554f00" d="M622.52,562.413c-0.548,0-1.047-0.371-1.186-0.927c-0.098-0.396-10.256-39.665-44.111-54.899 c-0.616-0.276-0.891-1-0.614-1.616c0.277-0.615,1.001-0.89,1.617-0.614c34.957,15.729,45.38,56.131,45.481,56.537 c0.163,0.656-0.235,1.32-0.891,1.482C622.717,562.401,622.617,562.413,622.52,562.413z"/><path fill="#554f00" d="M518.439,316.074c-13.941,0-25.282-11.343-25.282-25.285c0-13.94,11.341-25.282,25.282-25.282 c13.942,0,25.283,11.342,25.283,25.282C543.723,304.731,532.382,316.074,518.439,316.074z M518.439,267.952 c-12.592,0-22.837,10.245-22.837,22.837c0,12.595,10.245,22.839,22.837,22.839c12.594,0,22.838-10.244,22.838-22.839 C541.277,278.197,531.033,267.952,518.439,267.952z"/><path fill="#FFF" d="M720.76,555.646c11.578-12.822,29.048-2.616,25.498,11.274c-3.593,14.118-25.498,25.507-25.498,25.507 s-21.641-9.872-25.507-25.507C691.863,553.25,710.197,540.61,720.76,555.646z"/><circle cx="982.538" cy="729.047" r="48.53" fill="#FFF"/><path fill="#FFF" d="M693.09,713.54c0,1.914-1.551,3.467-3.467,3.467H605.6c-1.913,0-3.466-1.553-3.466-3.467v-7.74 c0-1.915,1.553-3.467,3.466-3.467h84.023c1.916,0,3.467,1.552,3.467,3.467V713.54z"/><path fill="#FFF" d="M1025.723,818.706c0,1.914-1.551,3.467-3.467,3.467H605.6c-1.916,0-3.466-1.553-3.466-3.467v-8.963 c0-1.915,1.55-3.467,3.466-3.467h416.656c1.916,0,3.467,1.552,3.467,3.467V818.706z"/><path fill="#FFF" d="M1025.723,854.169c0,1.915-1.551,3.467-3.467,3.467H605.6c-1.913,0-3.466-1.552-3.466-3.467v-7.74 c0-1.914,1.553-3.467,3.466-3.467h416.656c1.916,0,3.467,1.553,3.467,3.467V854.169z"/><path fill="#FFF" d="M705.333,888.643c0,1.915-1.552,3.467-3.468,3.467H605.6c-1.913,0-3.466-1.552-3.466-3.467v-9.196 c0-1.915,1.553-3.467,3.466-3.467h96.266c1.916,0,3.468,1.552,3.468,3.467V888.643z"/><path fill="#554f00" d="M1025.723,970.341c0,1.915-1.551,3.467-3.467,3.467H871.44c-1.916,0-3.467-1.552-3.467-3.467v-49.557 c0-1.914,1.551-3.467,3.467-3.467h150.815c1.916,0,3.467,1.553,3.467,3.467V970.341z"/></svg>